  0
SECTION
  2
HEADER
  9
$ACADVER
  1
AC1024
  9
$ACADMAINTVER
 70
6
  9
$DWGCODEPAGE
  3
ANSI_1252
  9
$LASTSAVEDBY
  1
ezdxf
  9
$INSBASE
 10
0.0
 20
0.0
 30
0.0
  9
$EXTMIN
 10
1e+20
 20
1e+20
 30
1e+20
  9
$EXTMAX
 10
-1e+20
 20
-1e+20
 30
-1e+20
  9
$LIMMIN
 10
0.0
 20
0.0
  9
$LIMMAX
 10
420.0
 20
297.0
  9
$ORTHOMODE
 70
0
  9
$REGENMODE
 70
1
  9
$FILLMODE
 70
1
  9
$QTEXTMODE
 70
0
  9
$MIRRTEXT
 70
1
  9
$LTSCALE
 40
1.0
  9
$ATTMODE
 70
1
  9
$TEXTSIZE
 40
2.5
  9
$TRACEWID
 40
1.0
  9
$TEXTSTYLE
  7
Standard
  9
$CLAYER
  8
0
  9
$CELTYPE
  6
ByLayer
  9
$CECOLOR
 62
256
  9
$CELTSCALE
 40
1.0
  9
$DISPSILH
 70
0
  9
$DIMSCALE
 40
1.0
  9
$DIMASZ
 40
2.5
  9
$DIMEXO
 40
0.625
  9
$DIMDLI
 40
3.75
  9
$DIMRND
 40
0.0
  9
$DIMDLE
 40
0.0
  9
$DIMEXE
 40
1.25
  9
$DIMTP
 40
0.0
  9
$DIMTM
 40
0.0
  9
$DIMTXT
 40
2.5
  9
$DIMCEN
 40
2.5
  9
$DIMTSZ
 40
0.0
  9
$DIMTOL
 70
0
  9
$DIMLIM
 70
0
  9
$DIMTIH
 70
0
  9
$DIMTOH
 70
0
  9
$DIMSE1
 70
0
  9
$DIMSE2
 70
0
  9
$DIMTAD
 70
1
  9
$DIMZIN
 70
8
  9
$DIMBLK
  1

  9
$DIMASO
 70
1
  9
$DIMSHO
 70
1
  9
$DIMPOST
  1

  9
$DIMAPOST
  1

  9
$DIMALT
 70
0
  9
$DIMALTD
 70
3
  9
$DIMALTF
 40
0.03937007874
  9
$DIMLFAC
 40
1.0
  9
$DIMTOFL
 70
1
  9
$DIMTVP
 40
0.0
  9
$DIMTIX
 70
0
  9
$DIMSOXD
 70
0
  9
$DIMSAH
 70
0
  9
$DIMBLK1
  1

  9
$DIMBLK2
  1

  9
$DIMSTYLE
  2
ISO-25
  9
$DIMCLRD
 70
0
  9
$DIMCLRE
 70
0
  9
$DIMCLRT
 70
0
  9
$DIMTFAC
 40
1.0
  9
$DIMGAP
 40
0.625
  9
$DIMJUST
 70
0
  9
$DIMSD1
 70
0
  9
$DIMSD2
 70
0
  9
$DIMTOLJ
 70
0
  9
$DIMTZIN
 70
8
  9
$DIMALTZ
 70
0
  9
$DIMALTTZ
 70
0
  9
$DIMUPT
 70
0
  9
$DIMDEC
 70
2
  9
$DIMTDEC
 70
2
  9
$DIMALTU
 70
2
  9
$DIMALTTD
 70
3
  9
$DIMTXSTY
  7
Standard
  9
$DIMAUNIT
 70
0
  9
$DIMADEC
 70
0
  9
$DIMALTRND
 40
0.0
  9
$DIMAZIN
 70
0
  9
$DIMDSEP
 70
44
  9
$DIMATFIT
 70
3
  9
$DIMFRAC
 70
0
  9
$DIMLDRBLK
  1

  9
$DIMLUNIT
 70
2
  9
$DIMLWD
 70
-2
  9
$DIMLWE
 70
-2
  9
$DIMTMOVE
 70
0
  9
$DIMFXL
 40
1.0
  9
$DIMFXLON
 70
0
  9
$DIMJOGANG
 40
0.785398163397
  9
$DIMTFILL
 70
0
  9
$DIMTFILLCLR
 70
0
  9
$DIMARCSYM
 70
0
  9
$DIMLTYPE
  6

  9
$DIMLTEX1
  6

  9
$DIMLTEX2
  6

  9
$DIMTXTDIRECTION
 70
0
  9
$LUNITS
 70
2
  9
$LUPREC
 70
4
  9
$SKETCHINC
 40
1.0
  9
$FILLETRAD
 40
10.0
  9
$AUNITS
 70
0
  9
$AUPREC
 70
2
  9
$MENU
  1
.
  9
$ELEVATION
 40
0.0
  9
$PELEVATION
 40
0.0
  9
$THICKNESS
 40
0.0
  9
$LIMCHECK
 70
0
  9
$CHAMFERA
 40
0.0
  9
$CHAMFERB
 40
0.0
  9
$CHAMFERC
 40
0.0
  9
$CHAMFERD
 40
0.0
  9
$SKPOLY
 70
0
  9
$TDCREATE
 40
2461295.875983796
  9
$TDUCREATE
 40
2458532.153996898
  9
$TDUPDATE
 40
2461295.875983796
  9
$TDUUPDATE
 40
2458532.1544311
  9
$TDINDWG
 40
0.0
  9
$TDUSRTIMER
 40
0.0
  9
$USRTIMER
 70
1
  9
$ANGBASE
 50
0.0
  9
$ANGDIR
 70
0
  9
$PDMODE
 70
0
  9
$PDSIZE
 40
0.0
  9
$PLINEWID
 40
0.0
  9
$SPLFRAME
 70
0
  9
$SPLINETYPE
 70
6
  9
$SPLINESEGS
 70
8
  9
$HANDSEED
  5
58F
  9
$SURFTAB1
 70
6
  9
$SURFTAB2
 70
6
  9
$SURFTYPE
 70
6
  9
$SURFU
 70
6
  9
$SURFV
 70
6
  9
$UCSBASE
  2

  9
$UCSNAME
  2

  9
$UCSORG
 10
0.0
 20
0.0
 30
0.0
  9
$UCSXDIR
 10
1.0
 20
0.0
 30
0.0
  9
$UCSYDIR
 10
0.0
 20
1.0
 30
0.0
  9
$UCSORTHOREF
  2

  9
$UCSORTHOVIEW
 70
0
  9
$UCSORGTOP
 10
0.0
 20
0.0
 30
0.0
  9
$UCSORGBOTTOM
 10
0.0
 20
0.0
 30
0.0
  9
$UCSORGLEFT
 10
0.0
 20
0.0
 30
0.0
  9
$UCSORGRIGHT
 10
0.0
 20
0.0
 30
0.0
  9
$UCSORGFRONT
 10
0.0
 20
0.0
 30
0.0
  9
$UCSORGBACK
 10
0.0
 20
0.0
 30
0.0
  9
$PUCSBASE
  2

  9
$PUCSNAME
  2

  9
$PUCSORG
 10
0.0
 20
0.0
 30
0.0
  9
$PUCSXDIR
 10
1.0
 20
0.0
 30
0.0
  9
$PUCSYDIR
 10
0.0
 20
1.0
 30
0.0
  9
$PUCSORTHOREF
  2

  9
$PUCSORTHOVIEW
 70
0
  9
$PUCSORGTOP
 10
0.0
 20
0.0
 30
0.0
  9
$PUCSORGBOTTOM
 10
0.0
 20
0.0
 30
0.0
  9
$PUCSORGLEFT
 10
0.0
 20
0.0
 30
0.0
  9
$PUCSORGRIGHT
 10
0.0
 20
0.0
 30
0.0
  9
$PUCSORGFRONT
 10
0.0
 20
0.0
 30
0.0
  9
$PUCSORGBACK
 10
0.0
 20
0.0
 30
0.0
  9
$USERI1
 70
0
  9
$USERI2
 70
0
  9
$USERI3
 70
0
  9
$USERI4
 70
0
  9
$USERI5
 70
0
  9
$USERR1
 40
0.0
  9
$USERR2
 40
0.0
  9
$USERR3
 40
0.0
  9
$USERR4
 40
0.0
  9
$USERR5
 40
0.0
  9
$WORLDVIEW
 70
1
  9
$SHADEDGE
 70
3
  9
$SHADEDIF
 70
70
  9
$TILEMODE
 70
1
  9
$MAXACTVP
 70
64
  9
$PINSBASE
 10
0.0
 20
0.0
 30
0.0
  9
$PLIMCHECK
 70
0
  9
$PEXTMIN
 10
1e+20
 20
1e+20
 30
1e+20
  9
$PEXTMAX
 10
-1e+20
 20
-1e+20
 30
-1e+20
  9
$PLIMMIN
 10
0.0
 20
0.0
  9
$PLIMMAX
 10
420.0
 20
297.0
  9
$UNITMODE
 70
0
  9
$VISRETAIN
 70
1
  9
$PLINEGEN
 70
0
  9
$PSLTSCALE
 70
1
  9
$TREEDEPTH
 70
3020
  9
$CMLSTYLE
  2
Standard
  9
$CMLJUST
 70
0
  9
$CMLSCALE
 40
20.0
  9
$PROXYGRAPHICS
 70
1
  9
$MEASUREMENT
 70
1
  9
$CELWEIGHT
370
-1
  9
$ENDCAPS
280
0
  9
$JOINSTYLE
280
0
  9
$LWDISPLAY
290
0
  9
$INSUNITS
 70
6
  9
$HYPERLINKBASE
  1

  9
$STYLESHEET
  1

  9
$XEDIT
290
1
  9
$CEPSNTYPE
380
0
  9
$PSTYLEMODE
290
1
  9
$FINGERPRINTGUID
  2
{00C424E4-E586-460D-BE22-28750CFCF097}
  9
$VERSIONGUID
  2
{1ACB8092-3185-49DC-B2E2-B55C750347EC}
  9
$EXTNAMES
290
1
  9
$PSVPSCALE
 40
0.0
  9
$OLESTARTUP
290
0
  9
$SORTENTS
280
127
  9
$INDEXCTL
280
0
  9
$HIDETEXT
280
1
  9
$XCLIPFRAME
280
1
  9
$HALOGAP
280
0
  9
$OBSCOLOR
 70
257
  9
$OBSLTYPE
280
0
  9
$INTERSECTIONDISPLAY
280
0
  9
$INTERSECTIONCOLOR
 70
257
  9
$DIMASSOC
280
2
  9
$PROJECTNAME
  1

  9
$CAMERADISPLAY
290
0
  9
$LENSLENGTH
 40
50.0
  9
$CAMERAHEIGHT
 40
0.0
  9
$STEPSPERSEC
 40
24.0
  9
$STEPSIZE
 40
100.0
  9
$3DDWFPREC
 40
2.0
  9
$PSOLWIDTH
 40
0.005
  9
$PSOLHEIGHT
 40
0.08
  9
$LOFTANG1
 40
1.570796326795
  9
$LOFTANG2
 40
1.570796326795
  9
$LOFTMAG1
 40
0.0
  9
$LOFTMAG2
 40
0.0
  9
$LOFTPARAM
 70
7
  9
$LOFTNORMALS
280
1
  9
$LATITUDE
 40
37.795
  9
$LONGITUDE
 40
-122.394
  9
$NORTHDIRECTION
 40
0.0
  9
$TIMEZONE
 70
-8000
  9
$LIGHTGLYPHDISPLAY
280
1
  9
$TILEMODELIGHTSYNCH
280
1
  9
$CMATERIAL
347
20
  9
$SOLIDHIST
280
0
  9
$SHOWHIST
280
1
  9
$DWFFRAME
280
2
  9
$DGNFRAME
280
2
  9
$REALWORLDSCALE
290
1
  9
$INTERFERECOLOR
 62
256
  9
$CSHADOW
280
0
  9
$SHADOWPLANELOCATION
 40
0.0
  0
ENDSEC
  0
SECTION
  2
CLASSES
  0
CLASS
  1
ACDBDICTIONARYWDFLT
  2
AcDbDictionaryWithDefault
  3
ObjectDBX Classes
 90
0
 91
0
280
0
281
0
  0
CLASS
  1
SUN
  2
AcDbSun
  3
SCENEOE
 90
1153
 91
0
280
0
281
0
  0
CLASS
  1
VISUALSTYLE
  2
AcDbVisualStyle
  3
ObjectDBX Classes
 90
4095
 91
0
280
0
281
0
  0
CLASS
  1
MATERIAL
  2
AcDbMaterial
  3
ObjectDBX Classes
 90
1153
 91
0
280
0
281
0
  0
CLASS
  1
SCALE
  2
AcDbScale
  3
ObjectDBX Classes
 90
1153
 91
0
280
0
281
0
  0
CLASS
  1
TABLESTYLE
  2
AcDbTableStyle
  3
ObjectDBX Classes
 90
4095
 91
0
280
0
281
0
  0
CLASS
  1
MLEADERSTYLE
  2
AcDbMLeaderStyle
  3
ACDB_MLEADERSTYLE_CLASS
 90
4095
 91
0
280
0
281
0
  0
CLASS
  1
DICTIONARYVAR
  2
AcDbDictionaryVar
  3
ObjectDBX Classes
 90
0
 91
0
280
0
281
0
  0
CLASS
  1
CELLSTYLEMAP
  2
AcDbCellStyleMap
  3
ObjectDBX Classes
 90
1152
 91
0
280
0
281
0
  0
CLASS
  1
MENTALRAYRENDERSETTINGS
  2
AcDbMentalRayRenderSettings
  3
SCENEOE
 90
1024
 91
0
280
0
281
0
  0
CLASS
  1
ACDBDETAILVIEWSTYLE
  2
AcDbDetailViewStyle
  3
ObjectDBX Classes
 90
1025
 91
0
280
0
281
0
  0
CLASS
  1
ACDBSECTIONVIEWSTYLE
  2
AcDbSectionViewStyle
  3
ObjectDBX Classes
 90
1025
 91
0
280
0
281
0
  0
CLASS
  1
RASTERVARIABLES
  2
AcDbRasterVariables
  3
ISM
 90
0
 91
0
280
0
281
0
  0
CLASS
  1
ACDBPLACEHOLDER
  2
AcDbPlaceHolder
  3
ObjectDBX Classes
 90
0
 91
0
280
0
281
0
  0
CLASS
  1
LAYOUT
  2
AcDbLayout
  3
ObjectDBX Classes
 90
0
 91
0
280
0
281
0
  0
ENDSEC
  0
SECTION
  2
TABLES
  0
TABLE
  2
VPORT
  5
8
330
0
100
AcDbSymbolTable
 70
1
  0
VPORT
  5
23
330
8
100
AcDbSymbolTableRecord
100
AcDbViewportTableRecord
  2
*Active
 70
0
 10
0.0
 20
0.0
 11
1.0
 21
1.0
 12
0.0
 22
0.0
 13
0.0
 23
0.0
 14
0.5
 24
0.5
 15
0.5
 25
0.5
 16
0.0
 26
0.0
 36
1.0
 17
0.0
 27
0.0
 37
0.0
 40
1000.0
 41
1.34
 42
50.0
 43
0.0
 44
0.0
 50
0.0
 51
0.0
 71
0
 72
1000
 73
1
 74
3
 75
0
 76
0
 77
0
 78
0
281
0
 65
0
146
0.0
  0
ENDTAB
  0
TABLE
  2
LTYPE
  5
2
330
0
100
AcDbSymbolTable
 70
4
  0
LTYPE
  5
24
330
2
100
AcDbSymbolTableRecord
100
AcDbLinetypeTableRecord
  2
ByBlock
 70
0
  3

 72
65
 73
0
 40
0.0
  0
LTYPE
  5
25
330
2
100
AcDbSymbolTableRecord
100
AcDbLinetypeTableRecord
  2
ByLayer
 70
0
  3

 72
65
 73
0
 40
0.0
  0
LTYPE
  5
26
330
2
100
AcDbSymbolTableRecord
100
AcDbLinetypeTableRecord
  2
Continuous
 70
0
  3

 72
65
 73
0
 40
0.0
  0
LTYPE
  5
1C1
330
2
100
AcDbSymbolTableRecord
100
AcDbLinetypeTableRecord
  2
DASHED
 70
0
  3
Tireté -- joints de dilatation
 72
65
 73
2
 40
0.0
 49
0.5
 74
0
 49
-0.25
 74
0
  0
ENDTAB
  0
TABLE
  2
LAYER
  5
1
330
0
100
AcDbSymbolTable
 70
11
  0
LAYER
  5
27
330
1
100
AcDbSymbolTableRecord
100
AcDbLayerTableRecord
  2
0
 70
0
 62
7
  6
Continuous
370
-3
390
13
347
21
  0
LAYER
  5
28
330
1
100
AcDbSymbolTableRecord
100
AcDbLayerTableRecord
  2
Defpoints
 70
0
 62
7
  6
Continuous
290
0
370
-3
390
13
347
21
  0
LAYER
  5
2F
330
1
100
AcDbSymbolTableRecord
100
AcDbLayerTableRecord
  2
SEMELLES
 70
0
 62
5
  6
Continuous
370
-3
390
13
347
21
  0
LAYER
  5
30
330
1
100
AcDbSymbolTableRecord
100
AcDbLayerTableRecord
  2
POTEAUX
 70
0
 62
1
  6
Continuous
370
-3
390
13
347
21
  0
LAYER
  5
31
330
1
100
AcDbSymbolTableRecord
100
AcDbLayerTableRecord
  2
CHAINAGE
 70
0
 62
3
  6
Continuous
370
-3
390
13
347
21
  0
LAYER
  5
32
330
1
100
AcDbSymbolTableRecord
100
AcDbLayerTableRecord
  2
ANNOTATIONS
 70
0
 62
7
  6
Continuous
370
-3
390
13
347
21
  0
LAYER
  5
33
330
1
100
AcDbSymbolTableRecord
100
AcDbLayerTableRecord
  2
DALLAGE
 70
0
 62
8
  6
Continuous
370
-3
390
13
347
21
  0
LAYER
  5
35
330
1
100
AcDbSymbolTableRecord
100
AcDbLayerTableRecord
  2
AXES_REPERES
 70
0
 62
9
  6
Continuous
370
-3
390
13
347
21
  0
LAYER
  5
147
330
1
100
AcDbSymbolTableRecord
100
AcDbLayerTableRecord
  2
POUTRES
 70
0
 62
4
  6
Continuous
370
-3
390
13
347
21
  0
LAYER
  5
1C2
330
1
100
AcDbSymbolTableRecord
100
AcDbLayerTableRecord
  2
JOINTS_DILATATION
 70
0
 62
30
  6
DASHED
370
-3
390
13
347
21
  0
LAYER
  5
1C7
330
1
100
AcDbSymbolTableRecord
100
AcDbLayerTableRecord
  2
COTATIONS
 70
0
 62
7
  6
Continuous
370
-3
390
13
347
21
  0
ENDTAB
  0
TABLE
  2
STYLE
  5
5
330
0
100
AcDbSymbolTable
 70
1
  0
STYLE
  5
29
330
5
100
AcDbSymbolTableRecord
100
AcDbTextStyleTableRecord
  2
Standard
 70
0
 40
0.0
 41
1.0
 50
0.0
 71
0
 42
2.5
  3
txt
  4

  0
ENDTAB
  0
TABLE
  2
VIEW
  5
7
330
0
100
AcDbSymbolTable
 70
0
  0
ENDTAB
  0
TABLE
  2
UCS
  5
6
330
0
100
AcDbSymbolTable
 70
0
  0
ENDTAB
  0
TABLE
  2
APPID
  5
3
330
0
100
AcDbSymbolTable
 70
3
  0
APPID
  5
2A
330
3
100
AcDbSymbolTableRecord
100
AcDbRegAppTableRecord
  2
ACAD
 70
0
  0
APPID
  5
58C
330
3
100
AcDbSymbolTableRecord
100
AcDbRegAppTableRecord
  2
HATCHBACKGROUNDCOLOR
 70
0
  0
APPID
  5
58D
330
3
100
AcDbSymbolTableRecord
100
AcDbRegAppTableRecord
  2
EZDXF
 70
0
  0
ENDTAB
  0
TABLE
  2
DIMSTYLE
  5
4
330
0
100
AcDbSymbolTable
 70
1
100
AcDbDimStyleTable
  0
DIMSTYLE
105
2B
330
4
100
AcDbSymbolTableRecord
100
AcDbDimStyleTableRecord
  2
Standard
 70
0
 40
1.0
 41
2.5
 42
0.625
 43
3.75
 44
1.25
 45
0.0
 46
0.0
 47
0.0
 48
0.0
 49
2.5
140
2.5
141
2.5
142
0.0
143
0.03937007874
144
1.0
145
0.0
146
1.0
147
0.625
148
0.0
 69
0
 70
0
 71
0
 72
0
 73
0
 74
0
 75
0
 76
0
 77
1
 78
8
 79
3
170
0
171
3
172
1
173
0
174
0
175
0
176
0
177
0
178
0
179
2
271
2
272
2
273
2
274
3
275
0
276
0
277
2
278
44
279
0
280
0
281
0
282
0
283
0
284
8
285
0
286
0
288
0
289
3
290
0
371
-2
372
-2
  0
ENDTAB
  0
TABLE
  2
BLOCK_RECORD
  5
9
330
0
100
AcDbSymbolTable
 70
63
  0
BLOCK_RECORD
  5
17
330
9
100
AcDbSymbolTableRecord
100
AcDbBlockTableRecord
  2
*Model_Space
340
1A
 70
0
280
1
281
0
  0
BLOCK_RECORD
  5
1B
330
9
100
AcDbSymbolTableRecord
100
AcDbBlockTableRecord
  2
*Paper_Space
340
1E
 70
0
280
1
281
0
  0
BLOCK_RECORD
  5
1C9
330
9
100
AcDbSymbolTableRecord
100
AcDbBlockTableRecord
  2
*D1
340
0
 70
0
280
1
281
0
  0
BLOCK_RECORD
  5
1CE
330
9
100
AcDbSymbolTableRecord
100
AcDbBlockTableRecord
  2
_CLOSEDFILLED
340
0
 70
0
280
1
281
0
  0
BLOCK_RECORD
  5
1DD
330
9
100
AcDbSymbolTableRecord
100
AcDbBlockTableRecord
  2
*D2
340
0
 70
0
280
1
281
0
  0
BLOCK_RECORD
  5
1ED
330
9
100
AcDbSymbolTableRecord
100
AcDbBlockTableRecord
  2
*D3
340
0
 70
0
280
1
281
0
  0
BLOCK_RECORD
  5
1FD
330
9
100
AcDbSymbolTableRecord
100
AcDbBlockTableRecord
  2
*D4
340
0
 70
0
280
1
281
0
  0
BLOCK_RECORD
  5
20D
330
9
100
AcDbSymbolTableRecord
100
AcDbBlockTableRecord
  2
*D5
340
0
 70
0
280
1
281
0
  0
BLOCK_RECORD
  5
21D
330
9
100
AcDbSymbolTableRecord
100
AcDbBlockTableRecord
  2
*D6
340
0
 70
0
280
1
281
0
  0
BLOCK_RECORD
  5
22D
330
9
100
AcDbSymbolTableRecord
100
AcDbBlockTableRecord
  2
*D7
340
0
 70
0
280
1
281
0
  0
BLOCK_RECORD
  5
23D
330
9
100
AcDbSymbolTableRecord
100
AcDbBlockTableRecord
  2
*D8
340
0
 70
0
280
1
281
0
  0
BLOCK_RECORD
  5
24D
330
9
100
AcDbSymbolTableRecord
100
AcDbBlockTableRecord
  2
*D9
340
0
 70
0
280
1
281
0
  0
BLOCK_RECORD
  5
25D
330
9
100
AcDbSymbolTableRecord
100
AcDbBlockTableRecord
  2
*D10
340
0
 70
0
280
1
281
0
  0
BLOCK_RECORD
  5
26D
330
9
100
AcDbSymbolTableRecord
100
AcDbBlockTableRecord
  2
*D11
340
0
 70
0
280
1
281
0
  0
BLOCK_RECORD
  5
27D
330
9
100
AcDbSymbolTableRecord
100
AcDbBlockTableRecord
  2
*D12
340
0
 70
0
280
1
281
0
  0
BLOCK_RECORD
  5
28D
330
9
100
AcDbSymbolTableRecord
100
AcDbBlockTableRecord
  2
*D13
340
0
 70
0
280
1
281
0
  0
BLOCK_RECORD
  5
29D
330
9
100
AcDbSymbolTableRecord
100
AcDbBlockTableRecord
  2
*D14
340
0
 70
0
280
1
281
0
  0
BLOCK_RECORD
  5
2AD
330
9
100
AcDbSymbolTableRecord
100
AcDbBlockTableRecord
  2
*D15
340
0
 70
0
280
1
281
0
  0
BLOCK_RECORD
  5
2BD
330
9
100
AcDbSymbolTableRecord
100
AcDbBlockTableRecord
  2
*D16
340
0
 70
0
280
1
281
0
  0
BLOCK_RECORD
  5
2CD
330
9
100
AcDbSymbolTableRecord
100
AcDbBlockTableRecord
  2
*D17
340
0
 70
0
280
1
281
0
  0
BLOCK_RECORD
  5
2DD
330
9
100
AcDbSymbolTableRecord
100
AcDbBlockTableRecord
  2
*D18
340
0
 70
0
280
1
281
0
  0
BLOCK_RECORD
  5
2ED
330
9
100
AcDbSymbolTableRecord
100
AcDbBlockTableRecord
  2
*D19
340
0
 70
0
280
1
281
0
  0
BLOCK_RECORD
  5
2FD
330
9
100
AcDbSymbolTableRecord
100
AcDbBlockTableRecord
  2
*D20
340
0
 70
0
280
1
281
0
  0
BLOCK_RECORD
  5
30D
330
9
100
AcDbSymbolTableRecord
100
AcDbBlockTableRecord
  2
*D21
340
0
 70
0
280
1
281
0
  0
BLOCK_RECORD
  5
31D
330
9
100
AcDbSymbolTableRecord
100
AcDbBlockTableRecord
  2
*D22
340
0
 70
0
280
1
281
0
  0
BLOCK_RECORD
  5
32D
330
9
100
AcDbSymbolTableRecord
100
AcDbBlockTableRecord
  2
*D23
340
0
 70
0
280
1
281
0
  0
BLOCK_RECORD
  5
33D
330
9
100
AcDbSymbolTableRecord
100
AcDbBlockTableRecord
  2
*D24
340
0
 70
0
280
1
281
0
  0
BLOCK_RECORD
  5
34D
330
9
100
AcDbSymbolTableRecord
100
AcDbBlockTableRecord
  2
*D25
340
0
 70
0
280
1
281
0
  0
BLOCK_RECORD
  5
35D
330
9
100
AcDbSymbolTableRecord
100
AcDbBlockTableRecord
  2
*D26
340
0
 70
0
280
1
281
0
  0
BLOCK_RECORD
  5
36D
330
9
100
AcDbSymbolTableRecord
100
AcDbBlockTableRecord
  2
*D27
340
0
 70
0
280
1
281
0
  0
BLOCK_RECORD
  5
37D
330
9
100
AcDbSymbolTableRecord
100
AcDbBlockTableRecord
  2
*D28
340
0
 70
0
280
1
281
0
  0
BLOCK_RECORD
  5
38D
330
9
100
AcDbSymbolTableRecord
100
AcDbBlockTableRecord
  2
*D29
340
0
 70
0
280
1
281
0
  0
BLOCK_RECORD
  5
39D
330
9
100
AcDbSymbolTableRecord
100
AcDbBlockTableRecord
  2
*D30
340
0
 70
0
280
1
281
0
  0
BLOCK_RECORD
  5
3AD
330
9
100
AcDbSymbolTableRecord
100
AcDbBlockTableRecord
  2
*D31
340
0
 70
0
280
1
281
0
  0
BLOCK_RECORD
  5
3BD
330
9
100
AcDbSymbolTableRecord
100
AcDbBlockTableRecord
  2
*D32
340
0
 70
0
280
1
281
0
  0
BLOCK_RECORD
  5
3CD
330
9
100
AcDbSymbolTableRecord
100
AcDbBlockTableRecord
  2
*D33
340
0
 70
0
280
1
281
0
  0
BLOCK_RECORD
  5
3DD
330
9
100
AcDbSymbolTableRecord
100
AcDbBlockTableRecord
  2
*D34
340
0
 70
0
280
1
281
0
  0
BLOCK_RECORD
  5
3ED
330
9
100
AcDbSymbolTableRecord
100
AcDbBlockTableRecord
  2
*D35
340
0
 70
0
280
1
281
0
  0
BLOCK_RECORD
  5
3FD
330
9
100
AcDbSymbolTableRecord
100
AcDbBlockTableRecord
  2
*D36
340
0
 70
0
280
1
281
0
  0
BLOCK_RECORD
  5
40D
330
9
100
AcDbSymbolTableRecord
100
AcDbBlockTableRecord
  2
*D37
340
0
 70
0
280
1
281
0
  0
BLOCK_RECORD
  5
41D
330
9
100
AcDbSymbolTableRecord
100
AcDbBlockTableRecord
  2
*D38
340
0
 70
0
280
1
281
0
  0
BLOCK_RECORD
  5
42D
330
9
100
AcDbSymbolTableRecord
100
AcDbBlockTableRecord
  2
*D39
340
0
 70
0
280
1
281
0
  0
BLOCK_RECORD
  5
43D
330
9
100
AcDbSymbolTableRecord
100
AcDbBlockTableRecord
  2
*D40
340
0
 70
0
280
1
281
0
  0
BLOCK_RECORD
  5
44D
330
9
100
AcDbSymbolTableRecord
100
AcDbBlockTableRecord
  2
*D41
340
0
 70
0
280
1
281
0
  0
BLOCK_RECORD
  5
45D
330
9
100
AcDbSymbolTableRecord
100
AcDbBlockTableRecord
  2
*D42
340
0
 70
0
280
1
281
0
  0
BLOCK_RECORD
  5
46D
330
9
100
AcDbSymbolTableRecord
100
AcDbBlockTableRecord
  2
*D43
340
0
 70
0
280
1
281
0
  0
BLOCK_RECORD
  5
47D
330
9
100
AcDbSymbolTableRecord
100
AcDbBlockTableRecord
  2
*D44
340
0
 70
0
280
1
281
0
  0
BLOCK_RECORD
  5
48D
330
9
100
AcDbSymbolTableRecord
100
AcDbBlockTableRecord
  2
*D45
340
0
 70
0
280
1
281
0
  0
BLOCK_RECORD
  5
49D
330
9
100
AcDbSymbolTableRecord
100
AcDbBlockTableRecord
  2
*D46
340
0
 70
0
280
1
281
0
  0
BLOCK_RECORD
  5
4AD
330
9
100
AcDbSymbolTableRecord
100
AcDbBlockTableRecord
  2
*D47
340
0
 70
0
280
1
281
0
  0
BLOCK_RECORD
  5
4BD
330
9
100
AcDbSymbolTableRecord
100
AcDbBlockTableRecord
  2
*D48
340
0
 70
0
280
1
281
0
  0
BLOCK_RECORD
  5
4CD
330
9
100
AcDbSymbolTableRecord
100
AcDbBlockTableRecord
  2
*D49
340
0
 70
0
280
1
281
0
  0
BLOCK_RECORD
  5
4DD
330
9
100
AcDbSymbolTableRecord
100
AcDbBlockTableRecord
  2
*D50
340
0
 70
0
280
1
281
0
  0
BLOCK_RECORD
  5
4ED
330
9
100
AcDbSymbolTableRecord
100
AcDbBlockTableRecord
  2
*D51
340
0
 70
0
280
1
281
0
  0
BLOCK_RECORD
  5
4FD
330
9
100
AcDbSymbolTableRecord
100
AcDbBlockTableRecord
  2
*D52
340
0
 70
0
280
1
281
0
  0
BLOCK_RECORD
  5
50D
330
9
100
AcDbSymbolTableRecord
100
AcDbBlockTableRecord
  2
*D53
340
0
 70
0
280
1
281
0
  0
BLOCK_RECORD
  5
51D
330
9
100
AcDbSymbolTableRecord
100
AcDbBlockTableRecord
  2
*D54
340
0
 70
0
280
1
281
0
  0
BLOCK_RECORD
  5
52D
330
9
100
AcDbSymbolTableRecord
100
AcDbBlockTableRecord
  2
*D55
340
0
 70
0
280
1
281
0
  0
BLOCK_RECORD
  5
53D
330
9
100
AcDbSymbolTableRecord
100
AcDbBlockTableRecord
  2
*D56
340
0
 70
0
280
1
281
0
  0
BLOCK_RECORD
  5
54D
330
9
100
AcDbSymbolTableRecord
100
AcDbBlockTableRecord
  2
*D57
340
0
 70
0
280
1
281
0
  0
BLOCK_RECORD
  5
55D
330
9
100
AcDbSymbolTableRecord
100
AcDbBlockTableRecord
  2
*D58
340
0
 70
0
280
1
281
0
  0
BLOCK_RECORD
  5
56D
330
9
100
AcDbSymbolTableRecord
100
AcDbBlockTableRecord
  2
*D59
340
0
 70
0
280
1
281
0
  0
BLOCK_RECORD
  5
57D
330
9
100
AcDbSymbolTableRecord
100
AcDbBlockTableRecord
  2
*D60
340
0
 70
0
280
1
281
0
  0
ENDTAB
  0
ENDSEC
  0
SECTION
  2
BLOCKS
  0
BLOCK
  5
18
330
17
100
AcDbEntity
  8
0
100
AcDbBlockBegin
  2
*Model_Space
 70
0
 10
0.0
 20
0.0
 30
0.0
  3
*Model_Space
  1

  0
ENDBLK
  5
19
330
17
100
AcDbEntity
  8
0
100
AcDbBlockEnd
  0
BLOCK
  5
1C
330
1B
100
AcDbEntity
  8
0
100
AcDbBlockBegin
  2
*Paper_Space
 70
0
 10
0.0
 20
0.0
 30
0.0
  3
*Paper_Space
  1

  0
ENDBLK
  5
1D
330
1B
100
AcDbEntity
  8
0
100
AcDbBlockEnd
  0
BLOCK
  5
1CA
330
1C9
100
AcDbEntity
  8
0
100
AcDbBlockBegin
  2
*D1
 70
1
 10
0.0
 20
0.0
 30
0.0
  3
*D1
  1

  0
LINE
  5
1CC
330
1C9
100
AcDbEntity
  8
0
100
AcDbLine
 10
0.0
 20
0.0
 30
0.0
 11
0.0
 21
0.8
 31
0.0
  0
LINE
  5
1CD
330
1C9
100
AcDbEntity
  8
0
100
AcDbLine
 10
7.5
 20
0.0
 30
0.0
 11
7.5
 21
0.8
 31
0.0
  0
INSERT
  5
1D2
330
1C9
100
AcDbEntity
  8
COTATIONS
100
AcDbBlockReference
  2
_CLOSEDFILLED
 10
0.0
 20
0.8
 30
0.0
 41
0.25
 42
0.25
 50
180.0
  0
INSERT
  5
1D4
330
1C9
100
AcDbEntity
  8
COTATIONS
100
AcDbBlockReference
  2
_CLOSEDFILLED
 10
7.5
 20
0.8
 30
0.0
 41
0.25
 42
0.25
  0
LINE
  5
1D6
330
1C9
100
AcDbEntity
  8
0
100
AcDbLine
 10
0.25
 20
0.8
 30
0.0
 11
2.25
 21
0.8
 31
0.0
  0
LINE
  5
1D7
330
1C9
100
AcDbEntity
  8
0
100
AcDbLine
 10
5.25
 20
0.8
 30
0.0
 11
7.25
 21
0.8
 31
0.0
  0
MTEXT
  5
1D8
330
1C9
100
AcDbEntity
  8
COTATIONS
100
AcDbMText
 10
3.75
 20
0.8
 30
0.0
 40
1.0
 71
5
  1
7,5
  0
POINT
  5
1D9
330
1C9
100
AcDbEntity
  8
Defpoints
100
AcDbPoint
 10
0.0
 20
0.8
 30
0.0
  0
POINT
  5
1DA
330
1C9
100
AcDbEntity
  8
Defpoints
100
AcDbPoint
 10
0.0
 20
0.0
 30
0.0
  0
POINT
  5
1DB
330
1C9
100
AcDbEntity
  8
Defpoints
100
AcDbPoint
 10
7.5
 20
0.0
 30
0.0
  0
ENDBLK
  5
1CB
330
1C9
100
AcDbEntity
  8
0
100
AcDbBlockEnd
  0
BLOCK
  5
1CF
330
1CE
100
AcDbEntity
  8
0
100
AcDbBlockBegin
  2
_CLOSEDFILLED
 70
0
 10
0.0
 20
0.0
 30
0.0
  3
_CLOSEDFILLED
  1

  0
SOLID
  5
1D1
330
1CE
100
AcDbEntity
  8
0
  6
BYBLOCK
 62
0
100
AcDbTrace
 10
-1.0
 20
0.16439898372402537
 30
0.0
 11
0.0
 21
0.0
 31
0.0
 12
-1.0
 22
-0.16439898372402537
 32
0.0
 13
-1.0
 23
-0.16439898372402537
 33
0.0
  0
ENDBLK
  5
1D0
330
1CE
100
AcDbEntity
  8
0
100
AcDbBlockEnd
  0
BLOCK
  5
1DE
330
1DD
100
AcDbEntity
  8
0
100
AcDbBlockBegin
  2
*D2
 70
1
 10
0.0
 20
0.0
 30
0.0
  3
*D2
  1

  0
LINE
  5
1E0
330
1DD
100
AcDbEntity
  8
0
100
AcDbLine
 10
0.0
 20
0.0
 30
0.0
 11
-0.8
 21
0.0
 31
0.0
  0
LINE
  5
1E1
330
1DD
100
AcDbEntity
  8
0
100
AcDbLine
 10
0.0
 20
8.5
 30
0.0
 11
-0.8
 21
8.5
 31
0.0
  0
INSERT
  5
1E2
330
1DD
100
AcDbEntity
  8
COTATIONS
100
AcDbBlockReference
  2
_CLOSEDFILLED
 10
-0.8
 20
0.0
 30
0.0
 41
0.25
 42
0.25
 50
270.0
  0
INSERT
  5
1E4
330
1DD
100
AcDbEntity
  8
COTATIONS
100
AcDbBlockReference
  2
_CLOSEDFILLED
 10
-0.8
 20
8.5
 30
0.0
 41
0.25
 42
0.25
 50
90.0
  0
LINE
  5
1E6
330
1DD
100
AcDbEntity
  8
0
100
AcDbLine
 10
-0.8
 20
0.25
 30
0.0
 11
-0.8
 21
2.75
 31
0.0
  0
LINE
  5
1E7
330
1DD
100
AcDbEntity
  8
0
100
AcDbLine
 10
-0.8
 20
5.75
 30
0.0
 11
-0.8
 21
8.25
 31
0.0
  0
MTEXT
  5
1E8
330
1DD
100
AcDbEntity
  8
COTATIONS
100
AcDbMText
 10
-0.8
 20
4.25
 30
0.0
 40
1.0
 71
5
  1
8,5
 50
90.0
  0
POINT
  5
1E9
330
1DD
100
AcDbEntity
  8
Defpoints
100
AcDbPoint
 10
-0.8
 20
0.0
 30
0.0
  0
POINT
  5
1EA
330
1DD
100
AcDbEntity
  8
Defpoints
100
AcDbPoint
 10
0.0
 20
0.0
 30
0.0
  0
POINT
  5
1EB
330
1DD
100
AcDbEntity
  8
Defpoints
100
AcDbPoint
 10
0.0
 20
8.5
 30
0.0
  0
ENDBLK
  5
1DF
330
1DD
100
AcDbEntity
  8
0
100
AcDbBlockEnd
  0
BLOCK
  5
1EE
330
1ED
100
AcDbEntity
  8
0
100
AcDbBlockBegin
  2
*D3
 70
1
 10
0.0
 20
0.0
 30
0.0
  3
*D3
  1

  0
LINE
  5
1F0
330
1ED
100
AcDbEntity
  8
0
100
AcDbLine
 10
0.0
 20
8.5
 30
0.0
 11
0.0
 21
9.3
 31
0.0
  0
LINE
  5
1F1
330
1ED
100
AcDbEntity
  8
0
100
AcDbLine
 10
7.5
 20
8.5
 30
0.0
 11
7.5
 21
9.3
 31
0.0
  0
INSERT
  5
1F2
330
1ED
100
AcDbEntity
  8
COTATIONS
100
AcDbBlockReference
  2
_CLOSEDFILLED
 10
0.0
 20
9.3
 30
0.0
 41
0.25
 42
0.25
 50
180.0
  0
INSERT
  5
1F4
330
1ED
100
AcDbEntity
  8
COTATIONS
100
AcDbBlockReference
  2
_CLOSEDFILLED
 10
7.5
 20
9.3
 30
0.0
 41
0.25
 42
0.25
  0
LINE
  5
1F6
330
1ED
100
AcDbEntity
  8
0
100
AcDbLine
 10
0.25
 20
9.3
 30
0.0
 11
2.25
 21
9.3
 31
0.0
  0
LINE
  5
1F7
330
1ED
100
AcDbEntity
  8
0
100
AcDbLine
 10
5.25
 20
9.3
 30
0.0
 11
7.25
 21
9.3
 31
0.0
  0
MTEXT
  5
1F8
330
1ED
100
AcDbEntity
  8
COTATIONS
100
AcDbMText
 10
3.75
 20
9.3
 30
0.0
 40
1.0
 71
5
  1
7,5
  0
POINT
  5
1F9
330
1ED
100
AcDbEntity
  8
Defpoints
100
AcDbPoint
 10
0.0
 20
9.3
 30
0.0
  0
POINT
  5
1FA
330
1ED
100
AcDbEntity
  8
Defpoints
100
AcDbPoint
 10
0.0
 20
8.5
 30
0.0
  0
POINT
  5
1FB
330
1ED
100
AcDbEntity
  8
Defpoints
100
AcDbPoint
 10
7.5
 20
8.5
 30
0.0
  0
ENDBLK
  5
1EF
330
1ED
100
AcDbEntity
  8
0
100
AcDbBlockEnd
  0
BLOCK
  5
1FE
330
1FD
100
AcDbEntity
  8
0
100
AcDbBlockBegin
  2
*D4
 70
1
 10
0.0
 20
0.0
 30
0.0
  3
*D4
  1

  0
LINE
  5
200
330
1FD
100
AcDbEntity
  8
0
100
AcDbLine
 10
0.0
 20
8.5
 30
0.0
 11
-0.8
 21
8.5
 31
0.0
  0
LINE
  5
201
330
1FD
100
AcDbEntity
  8
0
100
AcDbLine
 10
0.0
 20
17.0
 30
0.0
 11
-0.8
 21
17.0
 31
0.0
  0
INSERT
  5
202
330
1FD
100
AcDbEntity
  8
COTATIONS
100
AcDbBlockReference
  2
_CLOSEDFILLED
 10
-0.8
 20
8.5
 30
0.0
 41
0.25
 42
0.25
 50
270.0
  0
INSERT
  5
204
330
1FD
100
AcDbEntity
  8
COTATIONS
100
AcDbBlockReference
  2
_CLOSEDFILLED
 10
-0.8
 20
17.0
 30
0.0
 41
0.25
 42
0.25
 50
90.0
  0
LINE
  5
206
330
1FD
100
AcDbEntity
  8
0
100
AcDbLine
 10
-0.8
 20
8.75
 30
0.0
 11
-0.8
 21
11.25
 31
0.0
  0
LINE
  5
207
330
1FD
100
AcDbEntity
  8
0
100
AcDbLine
 10
-0.8
 20
14.25
 30
0.0
 11
-0.8
 21
16.75
 31
0.0
  0
MTEXT
  5
208
330
1FD
100
AcDbEntity
  8
COTATIONS
100
AcDbMText
 10
-0.8
 20
12.75
 30
0.0
 40
1.0
 71
5
  1
8,5
 50
90.0
  0
POINT
  5
209
330
1FD
100
AcDbEntity
  8
Defpoints
100
AcDbPoint
 10
-0.8
 20
8.5
 30
0.0
  0
POINT
  5
20A
330
1FD
100
AcDbEntity
  8
Defpoints
100
AcDbPoint
 10
0.0
 20
8.5
 30
0.0
  0
POINT
  5
20B
330
1FD
100
AcDbEntity
  8
Defpoints
100
AcDbPoint
 10
0.0
 20
17.0
 30
0.0
  0
ENDBLK
  5
1FF
330
1FD
100
AcDbEntity
  8
0
100
AcDbBlockEnd
  0
BLOCK
  5
20E
330
20D
100
AcDbEntity
  8
0
100
AcDbBlockBegin
  2
*D5
 70
1
 10
0.0
 20
0.0
 30
0.0
  3
*D5
  1

  0
LINE
  5
210
330
20D
100
AcDbEntity
  8
0
100
AcDbLine
 10
0.0
 20
17.0
 30
0.0
 11
0.0
 21
17.8
 31
0.0
  0
LINE
  5
211
330
20D
100
AcDbEntity
  8
0
100
AcDbLine
 10
7.5
 20
17.0
 30
0.0
 11
7.5
 21
17.8
 31
0.0
  0
INSERT
  5
212
330
20D
100
AcDbEntity
  8
COTATIONS
100
AcDbBlockReference
  2
_CLOSEDFILLED
 10
0.0
 20
17.8
 30
0.0
 41
0.25
 42
0.25
 50
180.0
  0
INSERT
  5
214
330
20D
100
AcDbEntity
  8
COTATIONS
100
AcDbBlockReference
  2
_CLOSEDFILLED
 10
7.5
 20
17.8
 30
0.0
 41
0.25
 42
0.25
  0
LINE
  5
216
330
20D
100
AcDbEntity
  8
0
100
AcDbLine
 10
0.25
 20
17.8
 30
0.0
 11
2.25
 21
17.8
 31
0.0
  0
LINE
  5
217
330
20D
100
AcDbEntity
  8
0
100
AcDbLine
 10
5.25
 20
17.8
 30
0.0
 11
7.25
 21
17.8
 31
0.0
  0
MTEXT
  5
218
330
20D
100
AcDbEntity
  8
COTATIONS
100
AcDbMText
 10
3.75
 20
17.8
 30
0.0
 40
1.0
 71
5
  1
7,5
  0
POINT
  5
219
330
20D
100
AcDbEntity
  8
Defpoints
100
AcDbPoint
 10
0.0
 20
17.8
 30
0.0
  0
POINT
  5
21A
330
20D
100
AcDbEntity
  8
Defpoints
100
AcDbPoint
 10
0.0
 20
17.0
 30
0.0
  0
POINT
  5
21B
330
20D
100
AcDbEntity
  8
Defpoints
100
AcDbPoint
 10
7.5
 20
17.0
 30
0.0
  0
ENDBLK
  5
20F
330
20D
100
AcDbEntity
  8
0
100
AcDbBlockEnd
  0
BLOCK
  5
21E
330
21D
100
AcDbEntity
  8
0
100
AcDbBlockBegin
  2
*D6
 70
1
 10
0.0
 20
0.0
 30
0.0
  3
*D6
  1

  0
LINE
  5
220
330
21D
100
AcDbEntity
  8
0
100
AcDbLine
 10
0.0
 20
17.0
 30
0.0
 11
-0.8
 21
17.0
 31
0.0
  0
LINE
  5
221
330
21D
100
AcDbEntity
  8
0
100
AcDbLine
 10
0.0
 20
25.5
 30
0.0
 11
-0.8
 21
25.5
 31
0.0
  0
INSERT
  5
222
330
21D
100
AcDbEntity
  8
COTATIONS
100
AcDbBlockReference
  2
_CLOSEDFILLED
 10
-0.8
 20
17.0
 30
0.0
 41
0.25
 42
0.25
 50
270.0
  0
INSERT
  5
224
330
21D
100
AcDbEntity
  8
COTATIONS
100
AcDbBlockReference
  2
_CLOSEDFILLED
 10
-0.8
 20
25.5
 30
0.0
 41
0.25
 42
0.25
 50
90.0
  0
LINE
  5
226
330
21D
100
AcDbEntity
  8
0
100
AcDbLine
 10
-0.8
 20
17.25
 30
0.0
 11
-0.8
 21
19.75
 31
0.0
  0
LINE
  5
227
330
21D
100
AcDbEntity
  8
0
100
AcDbLine
 10
-0.8
 20
22.75
 30
0.0
 11
-0.8
 21
25.25
 31
0.0
  0
MTEXT
  5
228
330
21D
100
AcDbEntity
  8
COTATIONS
100
AcDbMText
 10
-0.8
 20
21.25
 30
0.0
 40
1.0
 71
5
  1
8,5
 50
90.0
  0
POINT
  5
229
330
21D
100
AcDbEntity
  8
Defpoints
100
AcDbPoint
 10
-0.8
 20
17.0
 30
0.0
  0
POINT
  5
22A
330
21D
100
AcDbEntity
  8
Defpoints
100
AcDbPoint
 10
0.0
 20
17.0
 30
0.0
  0
POINT
  5
22B
330
21D
100
AcDbEntity
  8
Defpoints
100
AcDbPoint
 10
0.0
 20
25.5
 30
0.0
  0
ENDBLK
  5
21F
330
21D
100
AcDbEntity
  8
0
100
AcDbBlockEnd
  0
BLOCK
  5
22E
330
22D
100
AcDbEntity
  8
0
100
AcDbBlockBegin
  2
*D7
 70
1
 10
0.0
 20
0.0
 30
0.0
  3
*D7
  1

  0
LINE
  5
230
330
22D
100
AcDbEntity
  8
0
100
AcDbLine
 10
0.0
 20
25.5
 30
0.0
 11
0.0
 21
26.3
 31
0.0
  0
LINE
  5
231
330
22D
100
AcDbEntity
  8
0
100
AcDbLine
 10
7.5
 20
25.5
 30
0.0
 11
7.5
 21
26.3
 31
0.0
  0
INSERT
  5
232
330
22D
100
AcDbEntity
  8
COTATIONS
100
AcDbBlockReference
  2
_CLOSEDFILLED
 10
0.0
 20
26.3
 30
0.0
 41
0.25
 42
0.25
 50
180.0
  0
INSERT
  5
234
330
22D
100
AcDbEntity
  8
COTATIONS
100
AcDbBlockReference
  2
_CLOSEDFILLED
 10
7.5
 20
26.3
 30
0.0
 41
0.25
 42
0.25
  0
LINE
  5
236
330
22D
100
AcDbEntity
  8
0
100
AcDbLine
 10
0.25
 20
26.3
 30
0.0
 11
2.25
 21
26.3
 31
0.0
  0
LINE
  5
237
330
22D
100
AcDbEntity
  8
0
100
AcDbLine
 10
5.25
 20
26.3
 30
0.0
 11
7.25
 21
26.3
 31
0.0
  0
MTEXT
  5
238
330
22D
100
AcDbEntity
  8
COTATIONS
100
AcDbMText
 10
3.75
 20
26.3
 30
0.0
 40
1.0
 71
5
  1
7,5
  0
POINT
  5
239
330
22D
100
AcDbEntity
  8
Defpoints
100
AcDbPoint
 10
0.0
 20
26.3
 30
0.0
  0
POINT
  5
23A
330
22D
100
AcDbEntity
  8
Defpoints
100
AcDbPoint
 10
0.0
 20
25.5
 30
0.0
  0
POINT
  5
23B
330
22D
100
AcDbEntity
  8
Defpoints
100
AcDbPoint
 10
7.5
 20
25.5
 30
0.0
  0
ENDBLK
  5
22F
330
22D
100
AcDbEntity
  8
0
100
AcDbBlockEnd
  0
BLOCK
  5
23E
330
23D
100
AcDbEntity
  8
0
100
AcDbBlockBegin
  2
*D8
 70
1
 10
0.0
 20
0.0
 30
0.0
  3
*D8
  1

  0
LINE
  5
240
330
23D
100
AcDbEntity
  8
0
100
AcDbLine
 10
0.0
 20
25.5
 30
0.0
 11
-0.8
 21
25.5
 31
0.0
  0
LINE
  5
241
330
23D
100
AcDbEntity
  8
0
100
AcDbLine
 10
0.0
 20
34.0
 30
0.0
 11
-0.8
 21
34.0
 31
0.0
  0
INSERT
  5
242
330
23D
100
AcDbEntity
  8
COTATIONS
100
AcDbBlockReference
  2
_CLOSEDFILLED
 10
-0.8
 20
25.5
 30
0.0
 41
0.25
 42
0.25
 50
270.0
  0
INSERT
  5
244
330
23D
100
AcDbEntity
  8
COTATIONS
100
AcDbBlockReference
  2
_CLOSEDFILLED
 10
-0.8
 20
34.0
 30
0.0
 41
0.25
 42
0.25
 50
90.0
  0
LINE
  5
246
330
23D
100
AcDbEntity
  8
0
100
AcDbLine
 10
-0.8
 20
25.75
 30
0.0
 11
-0.8
 21
28.25
 31
0.0
  0
LINE
  5
247
330
23D
100
AcDbEntity
  8
0
100
AcDbLine
 10
-0.8
 20
31.25
 30
0.0
 11
-0.8
 21
33.75
 31
0.0
  0
MTEXT
  5
248
330
23D
100
AcDbEntity
  8
COTATIONS
100
AcDbMText
 10
-0.8
 20
29.75
 30
0.0
 40
1.0
 71
5
  1
8,5
 50
90.0
  0
POINT
  5
249
330
23D
100
AcDbEntity
  8
Defpoints
100
AcDbPoint
 10
-0.8
 20
25.5
 30
0.0
  0
POINT
  5
24A
330
23D
100
AcDbEntity
  8
Defpoints
100
AcDbPoint
 10
0.0
 20
25.5
 30
0.0
  0
POINT
  5
24B
330
23D
100
AcDbEntity
  8
Defpoints
100
AcDbPoint
 10
0.0
 20
34.0
 30
0.0
  0
ENDBLK
  5
23F
330
23D
100
AcDbEntity
  8
0
100
AcDbBlockEnd
  0
BLOCK
  5
24E
330
24D
100
AcDbEntity
  8
0
100
AcDbBlockBegin
  2
*D9
 70
1
 10
0.0
 20
0.0
 30
0.0
  3
*D9
  1

  0
LINE
  5
250
330
24D
100
AcDbEntity
  8
0
100
AcDbLine
 10
0.0
 20
34.0
 30
0.0
 11
0.0
 21
34.8
 31
0.0
  0
LINE
  5
251
330
24D
100
AcDbEntity
  8
0
100
AcDbLine
 10
7.5
 20
34.0
 30
0.0
 11
7.5
 21
34.8
 31
0.0
  0
INSERT
  5
252
330
24D
100
AcDbEntity
  8
COTATIONS
100
AcDbBlockReference
  2
_CLOSEDFILLED
 10
0.0
 20
34.8
 30
0.0
 41
0.25
 42
0.25
 50
180.0
  0
INSERT
  5
254
330
24D
100
AcDbEntity
  8
COTATIONS
100
AcDbBlockReference
  2
_CLOSEDFILLED
 10
7.5
 20
34.8
 30
0.0
 41
0.25
 42
0.25
  0
LINE
  5
256
330
24D
100
AcDbEntity
  8
0
100
AcDbLine
 10
0.25
 20
34.8
 30
0.0
 11
2.25
 21
34.8
 31
0.0
  0
LINE
  5
257
330
24D
100
AcDbEntity
  8
0
100
AcDbLine
 10
5.25
 20
34.8
 30
0.0
 11
7.25
 21
34.8
 31
0.0
  0
MTEXT
  5
258
330
24D
100
AcDbEntity
  8
COTATIONS
100
AcDbMText
 10
3.75
 20
34.8
 30
0.0
 40
1.0
 71
5
  1
7,5
  0
POINT
  5
259
330
24D
100
AcDbEntity
  8
Defpoints
100
AcDbPoint
 10
0.0
 20
34.8
 30
0.0
  0
POINT
  5
25A
330
24D
100
AcDbEntity
  8
Defpoints
100
AcDbPoint
 10
0.0
 20
34.0
 30
0.0
  0
POINT
  5
25B
330
24D
100
AcDbEntity
  8
Defpoints
100
AcDbPoint
 10
7.5
 20
34.0
 30
0.0
  0
ENDBLK
  5
24F
330
24D
100
AcDbEntity
  8
0
100
AcDbBlockEnd
  0
BLOCK
  5
25E
330
25D
100
AcDbEntity
  8
0
100
AcDbBlockBegin
  2
*D10
 70
1
 10
0.0
 20
0.0
 30
0.0
  3
*D10
  1

  0
LINE
  5
260
330
25D
100
AcDbEntity
  8
0
100
AcDbLine
 10
0.0
 20
34.0
 30
0.0
 11
-0.8
 21
34.0
 31
0.0
  0
LINE
  5
261
330
25D
100
AcDbEntity
  8
0
100
AcDbLine
 10
0.0
 20
42.5
 30
0.0
 11
-0.8
 21
42.5
 31
0.0
  0
INSERT
  5
262
330
25D
100
AcDbEntity
  8
COTATIONS
100
AcDbBlockReference
  2
_CLOSEDFILLED
 10
-0.8
 20
34.0
 30
0.0
 41
0.25
 42
0.25
 50
270.0
  0
INSERT
  5
264
330
25D
100
AcDbEntity
  8
COTATIONS
100
AcDbBlockReference
  2
_CLOSEDFILLED
 10
-0.8
 20
42.5
 30
0.0
 41
0.25
 42
0.25
 50
90.0
  0
LINE
  5
266
330
25D
100
AcDbEntity
  8
0
100
AcDbLine
 10
-0.8
 20
34.25
 30
0.0
 11
-0.8
 21
36.75
 31
0.0
  0
LINE
  5
267
330
25D
100
AcDbEntity
  8
0
100
AcDbLine
 10
-0.8
 20
39.75
 30
0.0
 11
-0.8
 21
42.25
 31
0.0
  0
MTEXT
  5
268
330
25D
100
AcDbEntity
  8
COTATIONS
100
AcDbMText
 10
-0.8
 20
38.25
 30
0.0
 40
1.0
 71
5
  1
8,5
 50
90.0
  0
POINT
  5
269
330
25D
100
AcDbEntity
  8
Defpoints
100
AcDbPoint
 10
-0.8
 20
34.0
 30
0.0
  0
POINT
  5
26A
330
25D
100
AcDbEntity
  8
Defpoints
100
AcDbPoint
 10
0.0
 20
34.0
 30
0.0
  0
POINT
  5
26B
330
25D
100
AcDbEntity
  8
Defpoints
100
AcDbPoint
 10
0.0
 20
42.5
 30
0.0
  0
ENDBLK
  5
25F
330
25D
100
AcDbEntity
  8
0
100
AcDbBlockEnd
  0
BLOCK
  5
26E
330
26D
100
AcDbEntity
  8
0
100
AcDbBlockBegin
  2
*D11
 70
1
 10
0.0
 20
0.0
 30
0.0
  3
*D11
  1

  0
LINE
  5
270
330
26D
100
AcDbEntity
  8
0
100
AcDbLine
 10
0.0
 20
42.5
 30
0.0
 11
0.0
 21
43.3
 31
0.0
  0
LINE
  5
271
330
26D
100
AcDbEntity
  8
0
100
AcDbLine
 10
7.5
 20
42.5
 30
0.0
 11
7.5
 21
43.3
 31
0.0
  0
INSERT
  5
272
330
26D
100
AcDbEntity
  8
COTATIONS
100
AcDbBlockReference
  2
_CLOSEDFILLED
 10
0.0
 20
43.3
 30
0.0
 41
0.25
 42
0.25
 50
180.0
  0
INSERT
  5
274
330
26D
100
AcDbEntity
  8
COTATIONS
100
AcDbBlockReference
  2
_CLOSEDFILLED
 10
7.5
 20
43.3
 30
0.0
 41
0.25
 42
0.25
  0
LINE
  5
276
330
26D
100
AcDbEntity
  8
0
100
AcDbLine
 10
0.25
 20
43.3
 30
0.0
 11
2.25
 21
43.3
 31
0.0
  0
LINE
  5
277
330
26D
100
AcDbEntity
  8
0
100
AcDbLine
 10
5.25
 20
43.3
 30
0.0
 11
7.25
 21
43.3
 31
0.0
  0
MTEXT
  5
278
330
26D
100
AcDbEntity
  8
COTATIONS
100
AcDbMText
 10
3.75
 20
43.3
 30
0.0
 40
1.0
 71
5
  1
7,5
  0
POINT
  5
279
330
26D
100
AcDbEntity
  8
Defpoints
100
AcDbPoint
 10
0.0
 20
43.3
 30
0.0
  0
POINT
  5
27A
330
26D
100
AcDbEntity
  8
Defpoints
100
AcDbPoint
 10
0.0
 20
42.5
 30
0.0
  0
POINT
  5
27B
330
26D
100
AcDbEntity
  8
Defpoints
100
AcDbPoint
 10
7.5
 20
42.5
 30
0.0
  0
ENDBLK
  5
26F
330
26D
100
AcDbEntity
  8
0
100
AcDbBlockEnd
  0
BLOCK
  5
27E
330
27D
100
AcDbEntity
  8
0
100
AcDbBlockBegin
  2
*D12
 70
1
 10
0.0
 20
0.0
 30
0.0
  3
*D12
  1

  0
LINE
  5
280
330
27D
100
AcDbEntity
  8
0
100
AcDbLine
 10
7.5
 20
0.0
 30
0.0
 11
7.5
 21
0.8
 31
0.0
  0
LINE
  5
281
330
27D
100
AcDbEntity
  8
0
100
AcDbLine
 10
15.0
 20
0.0
 30
0.0
 11
15.0
 21
0.8
 31
0.0
  0
INSERT
  5
282
330
27D
100
AcDbEntity
  8
COTATIONS
100
AcDbBlockReference
  2
_CLOSEDFILLED
 10
7.5
 20
0.8
 30
0.0
 41
0.25
 42
0.25
 50
180.0
  0
INSERT
  5
284
330
27D
100
AcDbEntity
  8
COTATIONS
100
AcDbBlockReference
  2
_CLOSEDFILLED
 10
15.0
 20
0.8
 30
0.0
 41
0.25
 42
0.25
  0
LINE
  5
286
330
27D
100
AcDbEntity
  8
0
100
AcDbLine
 10
7.75
 20
0.8
 30
0.0
 11
9.75
 21
0.8
 31
0.0
  0
LINE
  5
287
330
27D
100
AcDbEntity
  8
0
100
AcDbLine
 10
12.75
 20
0.8
 30
0.0
 11
14.75
 21
0.8
 31
0.0
  0
MTEXT
  5
288
330
27D
100
AcDbEntity
  8
COTATIONS
100
AcDbMText
 10
11.25
 20
0.8
 30
0.0
 40
1.0
 71
5
  1
7,5
  0
POINT
  5
289
330
27D
100
AcDbEntity
  8
Defpoints
100
AcDbPoint
 10
7.5
 20
0.8
 30
0.0
  0
POINT
  5
28A
330
27D
100
AcDbEntity
  8
Defpoints
100
AcDbPoint
 10
7.5
 20
0.0
 30
0.0
  0
POINT
  5
28B
330
27D
100
AcDbEntity
  8
Defpoints
100
AcDbPoint
 10
15.0
 20
0.0
 30
0.0
  0
ENDBLK
  5
27F
330
27D
100
AcDbEntity
  8
0
100
AcDbBlockEnd
  0
BLOCK
  5
28E
330
28D
100
AcDbEntity
  8
0
100
AcDbBlockBegin
  2
*D13
 70
1
 10
0.0
 20
0.0
 30
0.0
  3
*D13
  1

  0
LINE
  5
290
330
28D
100
AcDbEntity
  8
0
100
AcDbLine
 10
7.5
 20
0.0
 30
0.0
 11
6.7
 21
0.0
 31
0.0
  0
LINE
  5
291
330
28D
100
AcDbEntity
  8
0
100
AcDbLine
 10
7.5
 20
8.5
 30
0.0
 11
6.7
 21
8.5
 31
0.0
  0
INSERT
  5
292
330
28D
100
AcDbEntity
  8
COTATIONS
100
AcDbBlockReference
  2
_CLOSEDFILLED
 10
6.7
 20
0.0
 30
0.0
 41
0.25
 42
0.25
 50
270.0
  0
INSERT
  5
294
330
28D
100
AcDbEntity
  8
COTATIONS
100
AcDbBlockReference
  2
_CLOSEDFILLED
 10
6.7
 20
8.5
 30
0.0
 41
0.25
 42
0.25
 50
90.0
  0
LINE
  5
296
330
28D
100
AcDbEntity
  8
0
100
AcDbLine
 10
6.7
 20
0.25
 30
0.0
 11
6.7
 21
2.75
 31
0.0
  0
LINE
  5
297
330
28D
100
AcDbEntity
  8
0
100
AcDbLine
 10
6.7
 20
5.75
 30
0.0
 11
6.7
 21
8.25
 31
0.0
  0
MTEXT
  5
298
330
28D
100
AcDbEntity
  8
COTATIONS
100
AcDbMText
 10
6.7
 20
4.25
 30
0.0
 40
1.0
 71
5
  1
8,5
 50
90.0
  0
POINT
  5
299
330
28D
100
AcDbEntity
  8
Defpoints
100
AcDbPoint
 10
6.7
 20
0.0
 30
0.0
  0
POINT
  5
29A
330
28D
100
AcDbEntity
  8
Defpoints
100
AcDbPoint
 10
7.5
 20
0.0
 30
0.0
  0
POINT
  5
29B
330
28D
100
AcDbEntity
  8
Defpoints
100
AcDbPoint
 10
7.5
 20
8.5
 30
0.0
  0
ENDBLK
  5
28F
330
28D
100
AcDbEntity
  8
0
100
AcDbBlockEnd
  0
BLOCK
  5
29E
330
29D
100
AcDbEntity
  8
0
100
AcDbBlockBegin
  2
*D14
 70
1
 10
0.0
 20
0.0
 30
0.0
  3
*D14
  1

  0
LINE
  5
2A0
330
29D
100
AcDbEntity
  8
0
100
AcDbLine
 10
7.5
 20
8.5
 30
0.0
 11
7.5
 21
9.3
 31
0.0
  0
LINE
  5
2A1
330
29D
100
AcDbEntity
  8
0
100
AcDbLine
 10
15.0
 20
8.5
 30
0.0
 11
15.0
 21
9.3
 31
0.0
  0
INSERT
  5
2A2
330
29D
100
AcDbEntity
  8
COTATIONS
100
AcDbBlockReference
  2
_CLOSEDFILLED
 10
7.5
 20
9.3
 30
0.0
 41
0.25
 42
0.25
 50
180.0
  0
INSERT
  5
2A4
330
29D
100
AcDbEntity
  8
COTATIONS
100
AcDbBlockReference
  2
_CLOSEDFILLED
 10
15.0
 20
9.3
 30
0.0
 41
0.25
 42
0.25
  0
LINE
  5
2A6
330
29D
100
AcDbEntity
  8
0
100
AcDbLine
 10
7.75
 20
9.3
 30
0.0
 11
9.75
 21
9.3
 31
0.0
  0
LINE
  5
2A7
330
29D
100
AcDbEntity
  8
0
100
AcDbLine
 10
12.75
 20
9.3
 30
0.0
 11
14.75
 21
9.3
 31
0.0
  0
MTEXT
  5
2A8
330
29D
100
AcDbEntity
  8
COTATIONS
100
AcDbMText
 10
11.25
 20
9.3
 30
0.0
 40
1.0
 71
5
  1
7,5
  0
POINT
  5
2A9
330
29D
100
AcDbEntity
  8
Defpoints
100
AcDbPoint
 10
7.5
 20
9.3
 30
0.0
  0
POINT
  5
2AA
330
29D
100
AcDbEntity
  8
Defpoints
100
AcDbPoint
 10
7.5
 20
8.5
 30
0.0
  0
POINT
  5
2AB
330
29D
100
AcDbEntity
  8
Defpoints
100
AcDbPoint
 10
15.0
 20
8.5
 30
0.0
  0
ENDBLK
  5
29F
330
29D
100
AcDbEntity
  8
0
100
AcDbBlockEnd
  0
BLOCK
  5
2AE
330
2AD
100
AcDbEntity
  8
0
100
AcDbBlockBegin
  2
*D15
 70
1
 10
0.0
 20
0.0
 30
0.0
  3
*D15
  1

  0
LINE
  5
2B0
330
2AD
100
AcDbEntity
  8
0
100
AcDbLine
 10
7.5
 20
8.5
 30
0.0
 11
6.7
 21
8.5
 31
0.0
  0
LINE
  5
2B1
330
2AD
100
AcDbEntity
  8
0
100
AcDbLine
 10
7.5
 20
17.0
 30
0.0
 11
6.7
 21
17.0
 31
0.0
  0
INSERT
  5
2B2
330
2AD
100
AcDbEntity
  8
COTATIONS
100
AcDbBlockReference
  2
_CLOSEDFILLED
 10
6.7
 20
8.5
 30
0.0
 41
0.25
 42
0.25
 50
270.0
  0
INSERT
  5
2B4
330
2AD
100
AcDbEntity
  8
COTATIONS
100
AcDbBlockReference
  2
_CLOSEDFILLED
 10
6.7
 20
17.0
 30
0.0
 41
0.25
 42
0.25
 50
90.0
  0
LINE
  5
2B6
330
2AD
100
AcDbEntity
  8
0
100
AcDbLine
 10
6.7
 20
8.75
 30
0.0
 11
6.7
 21
11.25
 31
0.0
  0
LINE
  5
2B7
330
2AD
100
AcDbEntity
  8
0
100
AcDbLine
 10
6.7
 20
14.25
 30
0.0
 11
6.7
 21
16.75
 31
0.0
  0
MTEXT
  5
2B8
330
2AD
100
AcDbEntity
  8
COTATIONS
100
AcDbMText
 10
6.7
 20
12.75
 30
0.0
 40
1.0
 71
5
  1
8,5
 50
90.0
  0
POINT
  5
2B9
330
2AD
100
AcDbEntity
  8
Defpoints
100
AcDbPoint
 10
6.7
 20
8.5
 30
0.0
  0
POINT
  5
2BA
330
2AD
100
AcDbEntity
  8
Defpoints
100
AcDbPoint
 10
7.5
 20
8.5
 30
0.0
  0
POINT
  5
2BB
330
2AD
100
AcDbEntity
  8
Defpoints
100
AcDbPoint
 10
7.5
 20
17.0
 30
0.0
  0
ENDBLK
  5
2AF
330
2AD
100
AcDbEntity
  8
0
100
AcDbBlockEnd
  0
BLOCK
  5
2BE
330
2BD
100
AcDbEntity
  8
0
100
AcDbBlockBegin
  2
*D16
 70
1
 10
0.0
 20
0.0
 30
0.0
  3
*D16
  1

  0
LINE
  5
2C0
330
2BD
100
AcDbEntity
  8
0
100
AcDbLine
 10
7.5
 20
17.0
 30
0.0
 11
7.5
 21
17.8
 31
0.0
  0
LINE
  5
2C1
330
2BD
100
AcDbEntity
  8
0
100
AcDbLine
 10
15.0
 20
17.0
 30
0.0
 11
15.0
 21
17.8
 31
0.0
  0
INSERT
  5
2C2
330
2BD
100
AcDbEntity
  8
COTATIONS
100
AcDbBlockReference
  2
_CLOSEDFILLED
 10
7.5
 20
17.8
 30
0.0
 41
0.25
 42
0.25
 50
180.0
  0
INSERT
  5
2C4
330
2BD
100
AcDbEntity
  8
COTATIONS
100
AcDbBlockReference
  2
_CLOSEDFILLED
 10
15.0
 20
17.8
 30
0.0
 41
0.25
 42
0.25
  0
LINE
  5
2C6
330
2BD
100
AcDbEntity
  8
0
100
AcDbLine
 10
7.75
 20
17.8
 30
0.0
 11
9.75
 21
17.8
 31
0.0
  0
LINE
  5
2C7
330
2BD
100
AcDbEntity
  8
0
100
AcDbLine
 10
12.75
 20
17.8
 30
0.0
 11
14.75
 21
17.8
 31
0.0
  0
MTEXT
  5
2C8
330
2BD
100
AcDbEntity
  8
COTATIONS
100
AcDbMText
 10
11.25
 20
17.8
 30
0.0
 40
1.0
 71
5
  1
7,5
  0
POINT
  5
2C9
330
2BD
100
AcDbEntity
  8
Defpoints
100
AcDbPoint
 10
7.5
 20
17.8
 30
0.0
  0
POINT
  5
2CA
330
2BD
100
AcDbEntity
  8
Defpoints
100
AcDbPoint
 10
7.5
 20
17.0
 30
0.0
  0
POINT
  5
2CB
330
2BD
100
AcDbEntity
  8
Defpoints
100
AcDbPoint
 10
15.0
 20
17.0
 30
0.0
  0
ENDBLK
  5
2BF
330
2BD
100
AcDbEntity
  8
0
100
AcDbBlockEnd
  0
BLOCK
  5
2CE
330
2CD
100
AcDbEntity
  8
0
100
AcDbBlockBegin
  2
*D17
 70
1
 10
0.0
 20
0.0
 30
0.0
  3
*D17
  1

  0
LINE
  5
2D0
330
2CD
100
AcDbEntity
  8
0
100
AcDbLine
 10
7.5
 20
17.0
 30
0.0
 11
6.7
 21
17.0
 31
0.0
  0
LINE
  5
2D1
330
2CD
100
AcDbEntity
  8
0
100
AcDbLine
 10
7.5
 20
25.5
 30
0.0
 11
6.7
 21
25.5
 31
0.0
  0
INSERT
  5
2D2
330
2CD
100
AcDbEntity
  8
COTATIONS
100
AcDbBlockReference
  2
_CLOSEDFILLED
 10
6.7
 20
17.0
 30
0.0
 41
0.25
 42
0.25
 50
270.0
  0
INSERT
  5
2D4
330
2CD
100
AcDbEntity
  8
COTATIONS
100
AcDbBlockReference
  2
_CLOSEDFILLED
 10
6.7
 20
25.5
 30
0.0
 41
0.25
 42
0.25
 50
90.0
  0
LINE
  5
2D6
330
2CD
100
AcDbEntity
  8
0
100
AcDbLine
 10
6.7
 20
17.25
 30
0.0
 11
6.7
 21
19.75
 31
0.0
  0
LINE
  5
2D7
330
2CD
100
AcDbEntity
  8
0
100
AcDbLine
 10
6.7
 20
22.75
 30
0.0
 11
6.7
 21
25.25
 31
0.0
  0
MTEXT
  5
2D8
330
2CD
100
AcDbEntity
  8
COTATIONS
100
AcDbMText
 10
6.7
 20
21.25
 30
0.0
 40
1.0
 71
5
  1
8,5
 50
90.0
  0
POINT
  5
2D9
330
2CD
100
AcDbEntity
  8
Defpoints
100
AcDbPoint
 10
6.7
 20
17.0
 30
0.0
  0
POINT
  5
2DA
330
2CD
100
AcDbEntity
  8
Defpoints
100
AcDbPoint
 10
7.5
 20
17.0
 30
0.0
  0
POINT
  5
2DB
330
2CD
100
AcDbEntity
  8
Defpoints
100
AcDbPoint
 10
7.5
 20
25.5
 30
0.0
  0
ENDBLK
  5
2CF
330
2CD
100
AcDbEntity
  8
0
100
AcDbBlockEnd
  0
BLOCK
  5
2DE
330
2DD
100
AcDbEntity
  8
0
100
AcDbBlockBegin
  2
*D18
 70
1
 10
0.0
 20
0.0
 30
0.0
  3
*D18
  1

  0
LINE
  5
2E0
330
2DD
100
AcDbEntity
  8
0
100
AcDbLine
 10
7.5
 20
25.5
 30
0.0
 11
7.5
 21
26.3
 31
0.0
  0
LINE
  5
2E1
330
2DD
100
AcDbEntity
  8
0
100
AcDbLine
 10
15.0
 20
25.5
 30
0.0
 11
15.0
 21
26.3
 31
0.0
  0
INSERT
  5
2E2
330
2DD
100
AcDbEntity
  8
COTATIONS
100
AcDbBlockReference
  2
_CLOSEDFILLED
 10
7.5
 20
26.3
 30
0.0
 41
0.25
 42
0.25
 50
180.0
  0
INSERT
  5
2E4
330
2DD
100
AcDbEntity
  8
COTATIONS
100
AcDbBlockReference
  2
_CLOSEDFILLED
 10
15.0
 20
26.3
 30
0.0
 41
0.25
 42
0.25
  0
LINE
  5
2E6
330
2DD
100
AcDbEntity
  8
0
100
AcDbLine
 10
7.75
 20
26.3
 30
0.0
 11
9.75
 21
26.3
 31
0.0
  0
LINE
  5
2E7
330
2DD
100
AcDbEntity
  8
0
100
AcDbLine
 10
12.75
 20
26.3
 30
0.0
 11
14.75
 21
26.3
 31
0.0
  0
MTEXT
  5
2E8
330
2DD
100
AcDbEntity
  8
COTATIONS
100
AcDbMText
 10
11.25
 20
26.3
 30
0.0
 40
1.0
 71
5
  1
7,5
  0
POINT
  5
2E9
330
2DD
100
AcDbEntity
  8
Defpoints
100
AcDbPoint
 10
7.5
 20
26.3
 30
0.0
  0
POINT
  5
2EA
330
2DD
100
AcDbEntity
  8
Defpoints
100
AcDbPoint
 10
7.5
 20
25.5
 30
0.0
  0
POINT
  5
2EB
330
2DD
100
AcDbEntity
  8
Defpoints
100
AcDbPoint
 10
15.0
 20
25.5
 30
0.0
  0
ENDBLK
  5
2DF
330
2DD
100
AcDbEntity
  8
0
100
AcDbBlockEnd
  0
BLOCK
  5
2EE
330
2ED
100
AcDbEntity
  8
0
100
AcDbBlockBegin
  2
*D19
 70
1
 10
0.0
 20
0.0
 30
0.0
  3
*D19
  1

  0
LINE
  5
2F0
330
2ED
100
AcDbEntity
  8
0
100
AcDbLine
 10
7.5
 20
25.5
 30
0.0
 11
6.7
 21
25.5
 31
0.0
  0
LINE
  5
2F1
330
2ED
100
AcDbEntity
  8
0
100
AcDbLine
 10
7.5
 20
34.0
 30
0.0
 11
6.7
 21
34.0
 31
0.0
  0
INSERT
  5
2F2
330
2ED
100
AcDbEntity
  8
COTATIONS
100
AcDbBlockReference
  2
_CLOSEDFILLED
 10
6.7
 20
25.5
 30
0.0
 41
0.25
 42
0.25
 50
270.0
  0
INSERT
  5
2F4
330
2ED
100
AcDbEntity
  8
COTATIONS
100
AcDbBlockReference
  2
_CLOSEDFILLED
 10
6.7
 20
34.0
 30
0.0
 41
0.25
 42
0.25
 50
90.0
  0
LINE
  5
2F6
330
2ED
100
AcDbEntity
  8
0
100
AcDbLine
 10
6.7
 20
25.75
 30
0.0
 11
6.7
 21
28.25
 31
0.0
  0
LINE
  5
2F7
330
2ED
100
AcDbEntity
  8
0
100
AcDbLine
 10
6.7
 20
31.25
 30
0.0
 11
6.7
 21
33.75
 31
0.0
  0
MTEXT
  5
2F8
330
2ED
100
AcDbEntity
  8
COTATIONS
100
AcDbMText
 10
6.7
 20
29.75
 30
0.0
 40
1.0
 71
5
  1
8,5
 50
90.0
  0
POINT
  5
2F9
330
2ED
100
AcDbEntity
  8
Defpoints
100
AcDbPoint
 10
6.7
 20
25.5
 30
0.0
  0
POINT
  5
2FA
330
2ED
100
AcDbEntity
  8
Defpoints
100
AcDbPoint
 10
7.5
 20
25.5
 30
0.0
  0
POINT
  5
2FB
330
2ED
100
AcDbEntity
  8
Defpoints
100
AcDbPoint
 10
7.5
 20
34.0
 30
0.0
  0
ENDBLK
  5
2EF
330
2ED
100
AcDbEntity
  8
0
100
AcDbBlockEnd
  0
BLOCK
  5
2FE
330
2FD
100
AcDbEntity
  8
0
100
AcDbBlockBegin
  2
*D20
 70
1
 10
0.0
 20
0.0
 30
0.0
  3
*D20
  1

  0
LINE
  5
300
330
2FD
100
AcDbEntity
  8
0
100
AcDbLine
 10
7.5
 20
34.0
 30
0.0
 11
7.5
 21
34.8
 31
0.0
  0
LINE
  5
301
330
2FD
100
AcDbEntity
  8
0
100
AcDbLine
 10
15.0
 20
34.0
 30
0.0
 11
15.0
 21
34.8
 31
0.0
  0
INSERT
  5
302
330
2FD
100
AcDbEntity
  8
COTATIONS
100
AcDbBlockReference
  2
_CLOSEDFILLED
 10
7.5
 20
34.8
 30
0.0
 41
0.25
 42
0.25
 50
180.0
  0
INSERT
  5
304
330
2FD
100
AcDbEntity
  8
COTATIONS
100
AcDbBlockReference
  2
_CLOSEDFILLED
 10
15.0
 20
34.8
 30
0.0
 41
0.25
 42
0.25
  0
LINE
  5
306
330
2FD
100
AcDbEntity
  8
0
100
AcDbLine
 10
7.75
 20
34.8
 30
0.0
 11
9.75
 21
34.8
 31
0.0
  0
LINE
  5
307
330
2FD
100
AcDbEntity
  8
0
100
AcDbLine
 10
12.75
 20
34.8
 30
0.0
 11
14.75
 21
34.8
 31
0.0
  0
MTEXT
  5
308
330
2FD
100
AcDbEntity
  8
COTATIONS
100
AcDbMText
 10
11.25
 20
34.8
 30
0.0
 40
1.0
 71
5
  1
7,5
  0
POINT
  5
309
330
2FD
100
AcDbEntity
  8
Defpoints
100
AcDbPoint
 10
7.5
 20
34.8
 30
0.0
  0
POINT
  5
30A
330
2FD
100
AcDbEntity
  8
Defpoints
100
AcDbPoint
 10
7.5
 20
34.0
 30
0.0
  0
POINT
  5
30B
330
2FD
100
AcDbEntity
  8
Defpoints
100
AcDbPoint
 10
15.0
 20
34.0
 30
0.0
  0
ENDBLK
  5
2FF
330
2FD
100
AcDbEntity
  8
0
100
AcDbBlockEnd
  0
BLOCK
  5
30E
330
30D
100
AcDbEntity
  8
0
100
AcDbBlockBegin
  2
*D21
 70
1
 10
0.0
 20
0.0
 30
0.0
  3
*D21
  1

  0
LINE
  5
310
330
30D
100
AcDbEntity
  8
0
100
AcDbLine
 10
7.5
 20
34.0
 30
0.0
 11
6.7
 21
34.0
 31
0.0
  0
LINE
  5
311
330
30D
100
AcDbEntity
  8
0
100
AcDbLine
 10
7.5
 20
42.5
 30
0.0
 11
6.7
 21
42.5
 31
0.0
  0
INSERT
  5
312
330
30D
100
AcDbEntity
  8
COTATIONS
100
AcDbBlockReference
  2
_CLOSEDFILLED
 10
6.7
 20
34.0
 30
0.0
 41
0.25
 42
0.25
 50
270.0
  0
INSERT
  5
314
330
30D
100
AcDbEntity
  8
COTATIONS
100
AcDbBlockReference
  2
_CLOSEDFILLED
 10
6.7
 20
42.5
 30
0.0
 41
0.25
 42
0.25
 50
90.0
  0
LINE
  5
316
330
30D
100
AcDbEntity
  8
0
100
AcDbLine
 10
6.7
 20
34.25
 30
0.0
 11
6.7
 21
36.75
 31
0.0
  0
LINE
  5
317
330
30D
100
AcDbEntity
  8
0
100
AcDbLine
 10
6.7
 20
39.75
 30
0.0
 11
6.7
 21
42.25
 31
0.0
  0
MTEXT
  5
318
330
30D
100
AcDbEntity
  8
COTATIONS
100
AcDbMText
 10
6.7
 20
38.25
 30
0.0
 40
1.0
 71
5
  1
8,5
 50
90.0
  0
POINT
  5
319
330
30D
100
AcDbEntity
  8
Defpoints
100
AcDbPoint
 10
6.7
 20
34.0
 30
0.0
  0
POINT
  5
31A
330
30D
100
AcDbEntity
  8
Defpoints
100
AcDbPoint
 10
7.5
 20
34.0
 30
0.0
  0
POINT
  5
31B
330
30D
100
AcDbEntity
  8
Defpoints
100
AcDbPoint
 10
7.5
 20
42.5
 30
0.0
  0
ENDBLK
  5
30F
330
30D
100
AcDbEntity
  8
0
100
AcDbBlockEnd
  0
BLOCK
  5
31E
330
31D
100
AcDbEntity
  8
0
100
AcDbBlockBegin
  2
*D22
 70
1
 10
0.0
 20
0.0
 30
0.0
  3
*D22
  1

  0
LINE
  5
320
330
31D
100
AcDbEntity
  8
0
100
AcDbLine
 10
7.5
 20
42.5
 30
0.0
 11
7.5
 21
43.3
 31
0.0
  0
LINE
  5
321
330
31D
100
AcDbEntity
  8
0
100
AcDbLine
 10
15.0
 20
42.5
 30
0.0
 11
15.0
 21
43.3
 31
0.0
  0
INSERT
  5
322
330
31D
100
AcDbEntity
  8
COTATIONS
100
AcDbBlockReference
  2
_CLOSEDFILLED
 10
7.5
 20
43.3
 30
0.0
 41
0.25
 42
0.25
 50
180.0
  0
INSERT
  5
324
330
31D
100
AcDbEntity
  8
COTATIONS
100
AcDbBlockReference
  2
_CLOSEDFILLED
 10
15.0
 20
43.3
 30
0.0
 41
0.25
 42
0.25
  0
LINE
  5
326
330
31D
100
AcDbEntity
  8
0
100
AcDbLine
 10
7.75
 20
43.3
 30
0.0
 11
9.75
 21
43.3
 31
0.0
  0
LINE
  5
327
330
31D
100
AcDbEntity
  8
0
100
AcDbLine
 10
12.75
 20
43.3
 30
0.0
 11
14.75
 21
43.3
 31
0.0
  0
MTEXT
  5
328
330
31D
100
AcDbEntity
  8
COTATIONS
100
AcDbMText
 10
11.25
 20
43.3
 30
0.0
 40
1.0
 71
5
  1
7,5
  0
POINT
  5
329
330
31D
100
AcDbEntity
  8
Defpoints
100
AcDbPoint
 10
7.5
 20
43.3
 30
0.0
  0
POINT
  5
32A
330
31D
100
AcDbEntity
  8
Defpoints
100
AcDbPoint
 10
7.5
 20
42.5
 30
0.0
  0
POINT
  5
32B
330
31D
100
AcDbEntity
  8
Defpoints
100
AcDbPoint
 10
15.0
 20
42.5
 30
0.0
  0
ENDBLK
  5
31F
330
31D
100
AcDbEntity
  8
0
100
AcDbBlockEnd
  0
BLOCK
  5
32E
330
32D
100
AcDbEntity
  8
0
100
AcDbBlockBegin
  2
*D23
 70
1
 10
0.0
 20
0.0
 30
0.0
  3
*D23
  1

  0
LINE
  5
330
330
32D
100
AcDbEntity
  8
0
100
AcDbLine
 10
15.0
 20
0.0
 30
0.0
 11
15.0
 21
0.8
 31
0.0
  0
LINE
  5
331
330
32D
100
AcDbEntity
  8
0
100
AcDbLine
 10
22.5
 20
0.0
 30
0.0
 11
22.5
 21
0.8
 31
0.0
  0
INSERT
  5
332
330
32D
100
AcDbEntity
  8
COTATIONS
100
AcDbBlockReference
  2
_CLOSEDFILLED
 10
15.0
 20
0.8
 30
0.0
 41
0.25
 42
0.25
 50
180.0
  0
INSERT
  5
334
330
32D
100
AcDbEntity
  8
COTATIONS
100
AcDbBlockReference
  2
_CLOSEDFILLED
 10
22.5
 20
0.8
 30
0.0
 41
0.25
 42
0.25
  0
LINE
  5
336
330
32D
100
AcDbEntity
  8
0
100
AcDbLine
 10
15.25
 20
0.8
 30
0.0
 11
17.25
 21
0.8
 31
0.0
  0
LINE
  5
337
330
32D
100
AcDbEntity
  8
0
100
AcDbLine
 10
20.25
 20
0.8
 30
0.0
 11
22.25
 21
0.8
 31
0.0
  0
MTEXT
  5
338
330
32D
100
AcDbEntity
  8
COTATIONS
100
AcDbMText
 10
18.75
 20
0.8
 30
0.0
 40
1.0
 71
5
  1
7,5
  0
POINT
  5
339
330
32D
100
AcDbEntity
  8
Defpoints
100
AcDbPoint
 10
15.0
 20
0.8
 30
0.0
  0
POINT
  5
33A
330
32D
100
AcDbEntity
  8
Defpoints
100
AcDbPoint
 10
15.0
 20
0.0
 30
0.0
  0
POINT
  5
33B
330
32D
100
AcDbEntity
  8
Defpoints
100
AcDbPoint
 10
22.5
 20
0.0
 30
0.0
  0
ENDBLK
  5
32F
330
32D
100
AcDbEntity
  8
0
100
AcDbBlockEnd
  0
BLOCK
  5
33E
330
33D
100
AcDbEntity
  8
0
100
AcDbBlockBegin
  2
*D24
 70
1
 10
0.0
 20
0.0
 30
0.0
  3
*D24
  1

  0
LINE
  5
340
330
33D
100
AcDbEntity
  8
0
100
AcDbLine
 10
15.0
 20
0.0
 30
0.0
 11
14.2
 21
0.0
 31
0.0
  0
LINE
  5
341
330
33D
100
AcDbEntity
  8
0
100
AcDbLine
 10
15.0
 20
8.5
 30
0.0
 11
14.2
 21
8.5
 31
0.0
  0
INSERT
  5
342
330
33D
100
AcDbEntity
  8
COTATIONS
100
AcDbBlockReference
  2
_CLOSEDFILLED
 10
14.2
 20
0.0
 30
0.0
 41
0.25
 42
0.25
 50
270.0
  0
INSERT
  5
344
330
33D
100
AcDbEntity
  8
COTATIONS
100
AcDbBlockReference
  2
_CLOSEDFILLED
 10
14.2
 20
8.5
 30
0.0
 41
0.25
 42
0.25
 50
90.0
  0
LINE
  5
346
330
33D
100
AcDbEntity
  8
0
100
AcDbLine
 10
14.2
 20
0.25
 30
0.0
 11
14.2
 21
2.75
 31
0.0
  0
LINE
  5
347
330
33D
100
AcDbEntity
  8
0
100
AcDbLine
 10
14.2
 20
5.75
 30
0.0
 11
14.2
 21
8.25
 31
0.0
  0
MTEXT
  5
348
330
33D
100
AcDbEntity
  8
COTATIONS
100
AcDbMText
 10
14.2
 20
4.25
 30
0.0
 40
1.0
 71
5
  1
8,5
 50
90.0
  0
POINT
  5
349
330
33D
100
AcDbEntity
  8
Defpoints
100
AcDbPoint
 10
14.2
 20
0.0
 30
0.0
  0
POINT
  5
34A
330
33D
100
AcDbEntity
  8
Defpoints
100
AcDbPoint
 10
15.0
 20
0.0
 30
0.0
  0
POINT
  5
34B
330
33D
100
AcDbEntity
  8
Defpoints
100
AcDbPoint
 10
15.0
 20
8.5
 30
0.0
  0
ENDBLK
  5
33F
330
33D
100
AcDbEntity
  8
0
100
AcDbBlockEnd
  0
BLOCK
  5
34E
330
34D
100
AcDbEntity
  8
0
100
AcDbBlockBegin
  2
*D25
 70
1
 10
0.0
 20
0.0
 30
0.0
  3
*D25
  1

  0
LINE
  5
350
330
34D
100
AcDbEntity
  8
0
100
AcDbLine
 10
15.0
 20
8.5
 30
0.0
 11
15.0
 21
9.3
 31
0.0
  0
LINE
  5
351
330
34D
100
AcDbEntity
  8
0
100
AcDbLine
 10
22.5
 20
8.5
 30
0.0
 11
22.5
 21
9.3
 31
0.0
  0
INSERT
  5
352
330
34D
100
AcDbEntity
  8
COTATIONS
100
AcDbBlockReference
  2
_CLOSEDFILLED
 10
15.0
 20
9.3
 30
0.0
 41
0.25
 42
0.25
 50
180.0
  0
INSERT
  5
354
330
34D
100
AcDbEntity
  8
COTATIONS
100
AcDbBlockReference
  2
_CLOSEDFILLED
 10
22.5
 20
9.3
 30
0.0
 41
0.25
 42
0.25
  0
LINE
  5
356
330
34D
100
AcDbEntity
  8
0
100
AcDbLine
 10
15.25
 20
9.3
 30
0.0
 11
17.25
 21
9.3
 31
0.0
  0
LINE
  5
357
330
34D
100
AcDbEntity
  8
0
100
AcDbLine
 10
20.25
 20
9.3
 30
0.0
 11
22.25
 21
9.3
 31
0.0
  0
MTEXT
  5
358
330
34D
100
AcDbEntity
  8
COTATIONS
100
AcDbMText
 10
18.75
 20
9.3
 30
0.0
 40
1.0
 71
5
  1
7,5
  0
POINT
  5
359
330
34D
100
AcDbEntity
  8
Defpoints
100
AcDbPoint
 10
15.0
 20
9.3
 30
0.0
  0
POINT
  5
35A
330
34D
100
AcDbEntity
  8
Defpoints
100
AcDbPoint
 10
15.0
 20
8.5
 30
0.0
  0
POINT
  5
35B
330
34D
100
AcDbEntity
  8
Defpoints
100
AcDbPoint
 10
22.5
 20
8.5
 30
0.0
  0
ENDBLK
  5
34F
330
34D
100
AcDbEntity
  8
0
100
AcDbBlockEnd
  0
BLOCK
  5
35E
330
35D
100
AcDbEntity
  8
0
100
AcDbBlockBegin
  2
*D26
 70
1
 10
0.0
 20
0.0
 30
0.0
  3
*D26
  1

  0
LINE
  5
360
330
35D
100
AcDbEntity
  8
0
100
AcDbLine
 10
15.0
 20
8.5
 30
0.0
 11
14.2
 21
8.5
 31
0.0
  0
LINE
  5
361
330
35D
100
AcDbEntity
  8
0
100
AcDbLine
 10
15.0
 20
17.0
 30
0.0
 11
14.2
 21
17.0
 31
0.0
  0
INSERT
  5
362
330
35D
100
AcDbEntity
  8
COTATIONS
100
AcDbBlockReference
  2
_CLOSEDFILLED
 10
14.2
 20
8.5
 30
0.0
 41
0.25
 42
0.25
 50
270.0
  0
INSERT
  5
364
330
35D
100
AcDbEntity
  8
COTATIONS
100
AcDbBlockReference
  2
_CLOSEDFILLED
 10
14.2
 20
17.0
 30
0.0
 41
0.25
 42
0.25
 50
90.0
  0
LINE
  5
366
330
35D
100
AcDbEntity
  8
0
100
AcDbLine
 10
14.2
 20
8.75
 30
0.0
 11
14.2
 21
11.25
 31
0.0
  0
LINE
  5
367
330
35D
100
AcDbEntity
  8
0
100
AcDbLine
 10
14.2
 20
14.25
 30
0.0
 11
14.2
 21
16.75
 31
0.0
  0
MTEXT
  5
368
330
35D
100
AcDbEntity
  8
COTATIONS
100
AcDbMText
 10
14.2
 20
12.75
 30
0.0
 40
1.0
 71
5
  1
8,5
 50
90.0
  0
POINT
  5
369
330
35D
100
AcDbEntity
  8
Defpoints
100
AcDbPoint
 10
14.2
 20
8.5
 30
0.0
  0
POINT
  5
36A
330
35D
100
AcDbEntity
  8
Defpoints
100
AcDbPoint
 10
15.0
 20
8.5
 30
0.0
  0
POINT
  5
36B
330
35D
100
AcDbEntity
  8
Defpoints
100
AcDbPoint
 10
15.0
 20
17.0
 30
0.0
  0
ENDBLK
  5
35F
330
35D
100
AcDbEntity
  8
0
100
AcDbBlockEnd
  0
BLOCK
  5
36E
330
36D
100
AcDbEntity
  8
0
100
AcDbBlockBegin
  2
*D27
 70
1
 10
0.0
 20
0.0
 30
0.0
  3
*D27
  1

  0
LINE
  5
370
330
36D
100
AcDbEntity
  8
0
100
AcDbLine
 10
15.0
 20
17.0
 30
0.0
 11
15.0
 21
17.8
 31
0.0
  0
LINE
  5
371
330
36D
100
AcDbEntity
  8
0
100
AcDbLine
 10
22.5
 20
17.0
 30
0.0
 11
22.5
 21
17.8
 31
0.0
  0
INSERT
  5
372
330
36D
100
AcDbEntity
  8
COTATIONS
100
AcDbBlockReference
  2
_CLOSEDFILLED
 10
15.0
 20
17.8
 30
0.0
 41
0.25
 42
0.25
 50
180.0
  0
INSERT
  5
374
330
36D
100
AcDbEntity
  8
COTATIONS
100
AcDbBlockReference
  2
_CLOSEDFILLED
 10
22.5
 20
17.8
 30
0.0
 41
0.25
 42
0.25
  0
LINE
  5
376
330
36D
100
AcDbEntity
  8
0
100
AcDbLine
 10
15.25
 20
17.8
 30
0.0
 11
17.25
 21
17.8
 31
0.0
  0
LINE
  5
377
330
36D
100
AcDbEntity
  8
0
100
AcDbLine
 10
20.25
 20
17.8
 30
0.0
 11
22.25
 21
17.8
 31
0.0
  0
MTEXT
  5
378
330
36D
100
AcDbEntity
  8
COTATIONS
100
AcDbMText
 10
18.75
 20
17.8
 30
0.0
 40
1.0
 71
5
  1
7,5
  0
POINT
  5
379
330
36D
100
AcDbEntity
  8
Defpoints
100
AcDbPoint
 10
15.0
 20
17.8
 30
0.0
  0
POINT
  5
37A
330
36D
100
AcDbEntity
  8
Defpoints
100
AcDbPoint
 10
15.0
 20
17.0
 30
0.0
  0
POINT
  5
37B
330
36D
100
AcDbEntity
  8
Defpoints
100
AcDbPoint
 10
22.5
 20
17.0
 30
0.0
  0
ENDBLK
  5
36F
330
36D
100
AcDbEntity
  8
0
100
AcDbBlockEnd
  0
BLOCK
  5
37E
330
37D
100
AcDbEntity
  8
0
100
AcDbBlockBegin
  2
*D28
 70
1
 10
0.0
 20
0.0
 30
0.0
  3
*D28
  1

  0
LINE
  5
380
330
37D
100
AcDbEntity
  8
0
100
AcDbLine
 10
15.0
 20
17.0
 30
0.0
 11
14.2
 21
17.0
 31
0.0
  0
LINE
  5
381
330
37D
100
AcDbEntity
  8
0
100
AcDbLine
 10
15.0
 20
25.5
 30
0.0
 11
14.2
 21
25.5
 31
0.0
  0
INSERT
  5
382
330
37D
100
AcDbEntity
  8
COTATIONS
100
AcDbBlockReference
  2
_CLOSEDFILLED
 10
14.2
 20
17.0
 30
0.0
 41
0.25
 42
0.25
 50
270.0
  0
INSERT
  5
384
330
37D
100
AcDbEntity
  8
COTATIONS
100
AcDbBlockReference
  2
_CLOSEDFILLED
 10
14.2
 20
25.5
 30
0.0
 41
0.25
 42
0.25
 50
90.0
  0
LINE
  5
386
330
37D
100
AcDbEntity
  8
0
100
AcDbLine
 10
14.2
 20
17.25
 30
0.0
 11
14.2
 21
19.75
 31
0.0
  0
LINE
  5
387
330
37D
100
AcDbEntity
  8
0
100
AcDbLine
 10
14.2
 20
22.75
 30
0.0
 11
14.2
 21
25.25
 31
0.0
  0
MTEXT
  5
388
330
37D
100
AcDbEntity
  8
COTATIONS
100
AcDbMText
 10
14.2
 20
21.25
 30
0.0
 40
1.0
 71
5
  1
8,5
 50
90.0
  0
POINT
  5
389
330
37D
100
AcDbEntity
  8
Defpoints
100
AcDbPoint
 10
14.2
 20
17.0
 30
0.0
  0
POINT
  5
38A
330
37D
100
AcDbEntity
  8
Defpoints
100
AcDbPoint
 10
15.0
 20
17.0
 30
0.0
  0
POINT
  5
38B
330
37D
100
AcDbEntity
  8
Defpoints
100
AcDbPoint
 10
15.0
 20
25.5
 30
0.0
  0
ENDBLK
  5
37F
330
37D
100
AcDbEntity
  8
0
100
AcDbBlockEnd
  0
BLOCK
  5
38E
330
38D
100
AcDbEntity
  8
0
100
AcDbBlockBegin
  2
*D29
 70
1
 10
0.0
 20
0.0
 30
0.0
  3
*D29
  1

  0
LINE
  5
390
330
38D
100
AcDbEntity
  8
0
100
AcDbLine
 10
15.0
 20
25.5
 30
0.0
 11
15.0
 21
26.3
 31
0.0
  0
LINE
  5
391
330
38D
100
AcDbEntity
  8
0
100
AcDbLine
 10
22.5
 20
25.5
 30
0.0
 11
22.5
 21
26.3
 31
0.0
  0
INSERT
  5
392
330
38D
100
AcDbEntity
  8
COTATIONS
100
AcDbBlockReference
  2
_CLOSEDFILLED
 10
15.0
 20
26.3
 30
0.0
 41
0.25
 42
0.25
 50
180.0
  0
INSERT
  5
394
330
38D
100
AcDbEntity
  8
COTATIONS
100
AcDbBlockReference
  2
_CLOSEDFILLED
 10
22.5
 20
26.3
 30
0.0
 41
0.25
 42
0.25
  0
LINE
  5
396
330
38D
100
AcDbEntity
  8
0
100
AcDbLine
 10
15.25
 20
26.3
 30
0.0
 11
17.25
 21
26.3
 31
0.0
  0
LINE
  5
397
330
38D
100
AcDbEntity
  8
0
100
AcDbLine
 10
20.25
 20
26.3
 30
0.0
 11
22.25
 21
26.3
 31
0.0
  0
MTEXT
  5
398
330
38D
100
AcDbEntity
  8
COTATIONS
100
AcDbMText
 10
18.75
 20
26.3
 30
0.0
 40
1.0
 71
5
  1
7,5
  0
POINT
  5
399
330
38D
100
AcDbEntity
  8
Defpoints
100
AcDbPoint
 10
15.0
 20
26.3
 30
0.0
  0
POINT
  5
39A
330
38D
100
AcDbEntity
  8
Defpoints
100
AcDbPoint
 10
15.0
 20
25.5
 30
0.0
  0
POINT
  5
39B
330
38D
100
AcDbEntity
  8
Defpoints
100
AcDbPoint
 10
22.5
 20
25.5
 30
0.0
  0
ENDBLK
  5
38F
330
38D
100
AcDbEntity
  8
0
100
AcDbBlockEnd
  0
BLOCK
  5
39E
330
39D
100
AcDbEntity
  8
0
100
AcDbBlockBegin
  2
*D30
 70
1
 10
0.0
 20
0.0
 30
0.0
  3
*D30
  1

  0
LINE
  5
3A0
330
39D
100
AcDbEntity
  8
0
100
AcDbLine
 10
15.0
 20
25.5
 30
0.0
 11
14.2
 21
25.5
 31
0.0
  0
LINE
  5
3A1
330
39D
100
AcDbEntity
  8
0
100
AcDbLine
 10
15.0
 20
34.0
 30
0.0
 11
14.2
 21
34.0
 31
0.0
  0
INSERT
  5
3A2
330
39D
100
AcDbEntity
  8
COTATIONS
100
AcDbBlockReference
  2
_CLOSEDFILLED
 10
14.2
 20
25.5
 30
0.0
 41
0.25
 42
0.25
 50
270.0
  0
INSERT
  5
3A4
330
39D
100
AcDbEntity
  8
COTATIONS
100
AcDbBlockReference
  2
_CLOSEDFILLED
 10
14.2
 20
34.0
 30
0.0
 41
0.25
 42
0.25
 50
90.0
  0
LINE
  5
3A6
330
39D
100
AcDbEntity
  8
0
100
AcDbLine
 10
14.2
 20
25.75
 30
0.0
 11
14.2
 21
28.25
 31
0.0
  0
LINE
  5
3A7
330
39D
100
AcDbEntity
  8
0
100
AcDbLine
 10
14.2
 20
31.25
 30
0.0
 11
14.2
 21
33.75
 31
0.0
  0
MTEXT
  5
3A8
330
39D
100
AcDbEntity
  8
COTATIONS
100
AcDbMText
 10
14.2
 20
29.75
 30
0.0
 40
1.0
 71
5
  1
8,5
 50
90.0
  0
POINT
  5
3A9
330
39D
100
AcDbEntity
  8
Defpoints
100
AcDbPoint
 10
14.2
 20
25.5
 30
0.0
  0
POINT
  5
3AA
330
39D
100
AcDbEntity
  8
Defpoints
100
AcDbPoint
 10
15.0
 20
25.5
 30
0.0
  0
POINT
  5
3AB
330
39D
100
AcDbEntity
  8
Defpoints
100
AcDbPoint
 10
15.0
 20
34.0
 30
0.0
  0
ENDBLK
  5
39F
330
39D
100
AcDbEntity
  8
0
100
AcDbBlockEnd
  0
BLOCK
  5
3AE
330
3AD
100
AcDbEntity
  8
0
100
AcDbBlockBegin
  2
*D31
 70
1
 10
0.0
 20
0.0
 30
0.0
  3
*D31
  1

  0
LINE
  5
3B0
330
3AD
100
AcDbEntity
  8
0
100
AcDbLine
 10
15.0
 20
34.0
 30
0.0
 11
15.0
 21
34.8
 31
0.0
  0
LINE
  5
3B1
330
3AD
100
AcDbEntity
  8
0
100
AcDbLine
 10
22.5
 20
34.0
 30
0.0
 11
22.5
 21
34.8
 31
0.0
  0
INSERT
  5
3B2
330
3AD
100
AcDbEntity
  8
COTATIONS
100
AcDbBlockReference
  2
_CLOSEDFILLED
 10
15.0
 20
34.8
 30
0.0
 41
0.25
 42
0.25
 50
180.0
  0
INSERT
  5
3B4
330
3AD
100
AcDbEntity
  8
COTATIONS
100
AcDbBlockReference
  2
_CLOSEDFILLED
 10
22.5
 20
34.8
 30
0.0
 41
0.25
 42
0.25
  0
LINE
  5
3B6
330
3AD
100
AcDbEntity
  8
0
100
AcDbLine
 10
15.25
 20
34.8
 30
0.0
 11
17.25
 21
34.8
 31
0.0
  0
LINE
  5
3B7
330
3AD
100
AcDbEntity
  8
0
100
AcDbLine
 10
20.25
 20
34.8
 30
0.0
 11
22.25
 21
34.8
 31
0.0
  0
MTEXT
  5
3B8
330
3AD
100
AcDbEntity
  8
COTATIONS
100
AcDbMText
 10
18.75
 20
34.8
 30
0.0
 40
1.0
 71
5
  1
7,5
  0
POINT
  5
3B9
330
3AD
100
AcDbEntity
  8
Defpoints
100
AcDbPoint
 10
15.0
 20
34.8
 30
0.0
  0
POINT
  5
3BA
330
3AD
100
AcDbEntity
  8
Defpoints
100
AcDbPoint
 10
15.0
 20
34.0
 30
0.0
  0
POINT
  5
3BB
330
3AD
100
AcDbEntity
  8
Defpoints
100
AcDbPoint
 10
22.5
 20
34.0
 30
0.0
  0
ENDBLK
  5
3AF
330
3AD
100
AcDbEntity
  8
0
100
AcDbBlockEnd
  0
BLOCK
  5
3BE
330
3BD
100
AcDbEntity
  8
0
100
AcDbBlockBegin
  2
*D32
 70
1
 10
0.0
 20
0.0
 30
0.0
  3
*D32
  1

  0
LINE
  5
3C0
330
3BD
100
AcDbEntity
  8
0
100
AcDbLine
 10
15.0
 20
34.0
 30
0.0
 11
14.2
 21
34.0
 31
0.0
  0
LINE
  5
3C1
330
3BD
100
AcDbEntity
  8
0
100
AcDbLine
 10
15.0
 20
42.5
 30
0.0
 11
14.2
 21
42.5
 31
0.0
  0
INSERT
  5
3C2
330
3BD
100
AcDbEntity
  8
COTATIONS
100
AcDbBlockReference
  2
_CLOSEDFILLED
 10
14.2
 20
34.0
 30
0.0
 41
0.25
 42
0.25
 50
270.0
  0
INSERT
  5
3C4
330
3BD
100
AcDbEntity
  8
COTATIONS
100
AcDbBlockReference
  2
_CLOSEDFILLED
 10
14.2
 20
42.5
 30
0.0
 41
0.25
 42
0.25
 50
90.0
  0
LINE
  5
3C6
330
3BD
100
AcDbEntity
  8
0
100
AcDbLine
 10
14.2
 20
34.25
 30
0.0
 11
14.2
 21
36.75
 31
0.0
  0
LINE
  5
3C7
330
3BD
100
AcDbEntity
  8
0
100
AcDbLine
 10
14.2
 20
39.75
 30
0.0
 11
14.2
 21
42.25
 31
0.0
  0
MTEXT
  5
3C8
330
3BD
100
AcDbEntity
  8
COTATIONS
100
AcDbMText
 10
14.2
 20
38.25
 30
0.0
 40
1.0
 71
5
  1
8,5
 50
90.0
  0
POINT
  5
3C9
330
3BD
100
AcDbEntity
  8
Defpoints
100
AcDbPoint
 10
14.2
 20
34.0
 30
0.0
  0
POINT
  5
3CA
330
3BD
100
AcDbEntity
  8
Defpoints
100
AcDbPoint
 10
15.0
 20
34.0
 30
0.0
  0
POINT
  5
3CB
330
3BD
100
AcDbEntity
  8
Defpoints
100
AcDbPoint
 10
15.0
 20
42.5
 30
0.0
  0
ENDBLK
  5
3BF
330
3BD
100
AcDbEntity
  8
0
100
AcDbBlockEnd
  0
BLOCK
  5
3CE
330
3CD
100
AcDbEntity
  8
0
100
AcDbBlockBegin
  2
*D33
 70
1
 10
0.0
 20
0.0
 30
0.0
  3
*D33
  1

  0
LINE
  5
3D0
330
3CD
100
AcDbEntity
  8
0
100
AcDbLine
 10
15.0
 20
42.5
 30
0.0
 11
15.0
 21
43.3
 31
0.0
  0
LINE
  5
3D1
330
3CD
100
AcDbEntity
  8
0
100
AcDbLine
 10
22.5
 20
42.5
 30
0.0
 11
22.5
 21
43.3
 31
0.0
  0
INSERT
  5
3D2
330
3CD
100
AcDbEntity
  8
COTATIONS
100
AcDbBlockReference
  2
_CLOSEDFILLED
 10
15.0
 20
43.3
 30
0.0
 41
0.25
 42
0.25
 50
180.0
  0
INSERT
  5
3D4
330
3CD
100
AcDbEntity
  8
COTATIONS
100
AcDbBlockReference
  2
_CLOSEDFILLED
 10
22.5
 20
43.3
 30
0.0
 41
0.25
 42
0.25
  0
LINE
  5
3D6
330
3CD
100
AcDbEntity
  8
0
100
AcDbLine
 10
15.25
 20
43.3
 30
0.0
 11
17.25
 21
43.3
 31
0.0
  0
LINE
  5
3D7
330
3CD
100
AcDbEntity
  8
0
100
AcDbLine
 10
20.25
 20
43.3
 30
0.0
 11
22.25
 21
43.3
 31
0.0
  0
MTEXT
  5
3D8
330
3CD
100
AcDbEntity
  8
COTATIONS
100
AcDbMText
 10
18.75
 20
43.3
 30
0.0
 40
1.0
 71
5
  1
7,5
  0
POINT
  5
3D9
330
3CD
100
AcDbEntity
  8
Defpoints
100
AcDbPoint
 10
15.0
 20
43.3
 30
0.0
  0
POINT
  5
3DA
330
3CD
100
AcDbEntity
  8
Defpoints
100
AcDbPoint
 10
15.0
 20
42.5
 30
0.0
  0
POINT
  5
3DB
330
3CD
100
AcDbEntity
  8
Defpoints
100
AcDbPoint
 10
22.5
 20
42.5
 30
0.0
  0
ENDBLK
  5
3CF
330
3CD
100
AcDbEntity
  8
0
100
AcDbBlockEnd
  0
BLOCK
  5
3DE
330
3DD
100
AcDbEntity
  8
0
100
AcDbBlockBegin
  2
*D34
 70
1
 10
0.0
 20
0.0
 30
0.0
  3
*D34
  1

  0
LINE
  5
3E0
330
3DD
100
AcDbEntity
  8
0
100
AcDbLine
 10
22.5
 20
0.0
 30
0.0
 11
22.5
 21
0.8
 31
0.0
  0
LINE
  5
3E1
330
3DD
100
AcDbEntity
  8
0
100
AcDbLine
 10
30.0
 20
0.0
 30
0.0
 11
30.0
 21
0.8
 31
0.0
  0
INSERT
  5
3E2
330
3DD
100
AcDbEntity
  8
COTATIONS
100
AcDbBlockReference
  2
_CLOSEDFILLED
 10
22.5
 20
0.8
 30
0.0
 41
0.25
 42
0.25
 50
180.0
  0
INSERT
  5
3E4
330
3DD
100
AcDbEntity
  8
COTATIONS
100
AcDbBlockReference
  2
_CLOSEDFILLED
 10
30.0
 20
0.8
 30
0.0
 41
0.25
 42
0.25
  0
LINE
  5
3E6
330
3DD
100
AcDbEntity
  8
0
100
AcDbLine
 10
22.75
 20
0.8
 30
0.0
 11
24.75
 21
0.8
 31
0.0
  0
LINE
  5
3E7
330
3DD
100
AcDbEntity
  8
0
100
AcDbLine
 10
27.75
 20
0.8
 30
0.0
 11
29.75
 21
0.8
 31
0.0
  0
MTEXT
  5
3E8
330
3DD
100
AcDbEntity
  8
COTATIONS
100
AcDbMText
 10
26.25
 20
0.8
 30
0.0
 40
1.0
 71
5
  1
7,5
  0
POINT
  5
3E9
330
3DD
100
AcDbEntity
  8
Defpoints
100
AcDbPoint
 10
22.5
 20
0.8
 30
0.0
  0
POINT
  5
3EA
330
3DD
100
AcDbEntity
  8
Defpoints
100
AcDbPoint
 10
22.5
 20
0.0
 30
0.0
  0
POINT
  5
3EB
330
3DD
100
AcDbEntity
  8
Defpoints
100
AcDbPoint
 10
30.0
 20
0.0
 30
0.0
  0
ENDBLK
  5
3DF
330
3DD
100
AcDbEntity
  8
0
100
AcDbBlockEnd
  0
BLOCK
  5
3EE
330
3ED
100
AcDbEntity
  8
0
100
AcDbBlockBegin
  2
*D35
 70
1
 10
0.0
 20
0.0
 30
0.0
  3
*D35
  1

  0
LINE
  5
3F0
330
3ED
100
AcDbEntity
  8
0
100
AcDbLine
 10
22.5
 20
0.0
 30
0.0
 11
21.7
 21
0.0
 31
0.0
  0
LINE
  5
3F1
330
3ED
100
AcDbEntity
  8
0
100
AcDbLine
 10
22.5
 20
8.5
 30
0.0
 11
21.7
 21
8.5
 31
0.0
  0
INSERT
  5
3F2
330
3ED
100
AcDbEntity
  8
COTATIONS
100
AcDbBlockReference
  2
_CLOSEDFILLED
 10
21.7
 20
0.0
 30
0.0
 41
0.25
 42
0.25
 50
270.0
  0
INSERT
  5
3F4
330
3ED
100
AcDbEntity
  8
COTATIONS
100
AcDbBlockReference
  2
_CLOSEDFILLED
 10
21.7
 20
8.5
 30
0.0
 41
0.25
 42
0.25
 50
90.0
  0
LINE
  5
3F6
330
3ED
100
AcDbEntity
  8
0
100
AcDbLine
 10
21.7
 20
0.25
 30
0.0
 11
21.7
 21
2.75
 31
0.0
  0
LINE
  5
3F7
330
3ED
100
AcDbEntity
  8
0
100
AcDbLine
 10
21.7
 20
5.75
 30
0.0
 11
21.7
 21
8.25
 31
0.0
  0
MTEXT
  5
3F8
330
3ED
100
AcDbEntity
  8
COTATIONS
100
AcDbMText
 10
21.7
 20
4.25
 30
0.0
 40
1.0
 71
5
  1
8,5
 50
90.0
  0
POINT
  5
3F9
330
3ED
100
AcDbEntity
  8
Defpoints
100
AcDbPoint
 10
21.7
 20
0.0
 30
0.0
  0
POINT
  5
3FA
330
3ED
100
AcDbEntity
  8
Defpoints
100
AcDbPoint
 10
22.5
 20
0.0
 30
0.0
  0
POINT
  5
3FB
330
3ED
100
AcDbEntity
  8
Defpoints
100
AcDbPoint
 10
22.5
 20
8.5
 30
0.0
  0
ENDBLK
  5
3EF
330
3ED
100
AcDbEntity
  8
0
100
AcDbBlockEnd
  0
BLOCK
  5
3FE
330
3FD
100
AcDbEntity
  8
0
100
AcDbBlockBegin
  2
*D36
 70
1
 10
0.0
 20
0.0
 30
0.0
  3
*D36
  1

  0
LINE
  5
400
330
3FD
100
AcDbEntity
  8
0
100
AcDbLine
 10
22.5
 20
8.5
 30
0.0
 11
22.5
 21
9.3
 31
0.0
  0
LINE
  5
401
330
3FD
100
AcDbEntity
  8
0
100
AcDbLine
 10
30.0
 20
8.5
 30
0.0
 11
30.0
 21
9.3
 31
0.0
  0
INSERT
  5
402
330
3FD
100
AcDbEntity
  8
COTATIONS
100
AcDbBlockReference
  2
_CLOSEDFILLED
 10
22.5
 20
9.3
 30
0.0
 41
0.25
 42
0.25
 50
180.0
  0
INSERT
  5
404
330
3FD
100
AcDbEntity
  8
COTATIONS
100
AcDbBlockReference
  2
_CLOSEDFILLED
 10
30.0
 20
9.3
 30
0.0
 41
0.25
 42
0.25
  0
LINE
  5
406
330
3FD
100
AcDbEntity
  8
0
100
AcDbLine
 10
22.75
 20
9.3
 30
0.0
 11
24.75
 21
9.3
 31
0.0
  0
LINE
  5
407
330
3FD
100
AcDbEntity
  8
0
100
AcDbLine
 10
27.75
 20
9.3
 30
0.0
 11
29.75
 21
9.3
 31
0.0
  0
MTEXT
  5
408
330
3FD
100
AcDbEntity
  8
COTATIONS
100
AcDbMText
 10
26.25
 20
9.3
 30
0.0
 40
1.0
 71
5
  1
7,5
  0
POINT
  5
409
330
3FD
100
AcDbEntity
  8
Defpoints
100
AcDbPoint
 10
22.5
 20
9.3
 30
0.0
  0
POINT
  5
40A
330
3FD
100
AcDbEntity
  8
Defpoints
100
AcDbPoint
 10
22.5
 20
8.5
 30
0.0
  0
POINT
  5
40B
330
3FD
100
AcDbEntity
  8
Defpoints
100
AcDbPoint
 10
30.0
 20
8.5
 30
0.0
  0
ENDBLK
  5
3FF
330
3FD
100
AcDbEntity
  8
0
100
AcDbBlockEnd
  0
BLOCK
  5
40E
330
40D
100
AcDbEntity
  8
0
100
AcDbBlockBegin
  2
*D37
 70
1
 10
0.0
 20
0.0
 30
0.0
  3
*D37
  1

  0
LINE
  5
410
330
40D
100
AcDbEntity
  8
0
100
AcDbLine
 10
22.5
 20
8.5
 30
0.0
 11
21.7
 21
8.5
 31
0.0
  0
LINE
  5
411
330
40D
100
AcDbEntity
  8
0
100
AcDbLine
 10
22.5
 20
17.0
 30
0.0
 11
21.7
 21
17.0
 31
0.0
  0
INSERT
  5
412
330
40D
100
AcDbEntity
  8
COTATIONS
100
AcDbBlockReference
  2
_CLOSEDFILLED
 10
21.7
 20
8.5
 30
0.0
 41
0.25
 42
0.25
 50
270.0
  0
INSERT
  5
414
330
40D
100
AcDbEntity
  8
COTATIONS
100
AcDbBlockReference
  2
_CLOSEDFILLED
 10
21.7
 20
17.0
 30
0.0
 41
0.25
 42
0.25
 50
90.0
  0
LINE
  5
416
330
40D
100
AcDbEntity
  8
0
100
AcDbLine
 10
21.7
 20
8.75
 30
0.0
 11
21.7
 21
11.25
 31
0.0
  0
LINE
  5
417
330
40D
100
AcDbEntity
  8
0
100
AcDbLine
 10
21.7
 20
14.25
 30
0.0
 11
21.7
 21
16.75
 31
0.0
  0
MTEXT
  5
418
330
40D
100
AcDbEntity
  8
COTATIONS
100
AcDbMText
 10
21.7
 20
12.75
 30
0.0
 40
1.0
 71
5
  1
8,5
 50
90.0
  0
POINT
  5
419
330
40D
100
AcDbEntity
  8
Defpoints
100
AcDbPoint
 10
21.7
 20
8.5
 30
0.0
  0
POINT
  5
41A
330
40D
100
AcDbEntity
  8
Defpoints
100
AcDbPoint
 10
22.5
 20
8.5
 30
0.0
  0
POINT
  5
41B
330
40D
100
AcDbEntity
  8
Defpoints
100
AcDbPoint
 10
22.5
 20
17.0
 30
0.0
  0
ENDBLK
  5
40F
330
40D
100
AcDbEntity
  8
0
100
AcDbBlockEnd
  0
BLOCK
  5
41E
330
41D
100
AcDbEntity
  8
0
100
AcDbBlockBegin
  2
*D38
 70
1
 10
0.0
 20
0.0
 30
0.0
  3
*D38
  1

  0
LINE
  5
420
330
41D
100
AcDbEntity
  8
0
100
AcDbLine
 10
22.5
 20
17.0
 30
0.0
 11
22.5
 21
17.8
 31
0.0
  0
LINE
  5
421
330
41D
100
AcDbEntity
  8
0
100
AcDbLine
 10
30.0
 20
17.0
 30
0.0
 11
30.0
 21
17.8
 31
0.0
  0
INSERT
  5
422
330
41D
100
AcDbEntity
  8
COTATIONS
100
AcDbBlockReference
  2
_CLOSEDFILLED
 10
22.5
 20
17.8
 30
0.0
 41
0.25
 42
0.25
 50
180.0
  0
INSERT
  5
424
330
41D
100
AcDbEntity
  8
COTATIONS
100
AcDbBlockReference
  2
_CLOSEDFILLED
 10
30.0
 20
17.8
 30
0.0
 41
0.25
 42
0.25
  0
LINE
  5
426
330
41D
100
AcDbEntity
  8
0
100
AcDbLine
 10
22.75
 20
17.8
 30
0.0
 11
24.75
 21
17.8
 31
0.0
  0
LINE
  5
427
330
41D
100
AcDbEntity
  8
0
100
AcDbLine
 10
27.75
 20
17.8
 30
0.0
 11
29.75
 21
17.8
 31
0.0
  0
MTEXT
  5
428
330
41D
100
AcDbEntity
  8
COTATIONS
100
AcDbMText
 10
26.25
 20
17.8
 30
0.0
 40
1.0
 71
5
  1
7,5
  0
POINT
  5
429
330
41D
100
AcDbEntity
  8
Defpoints
100
AcDbPoint
 10
22.5
 20
17.8
 30
0.0
  0
POINT
  5
42A
330
41D
100
AcDbEntity
  8
Defpoints
100
AcDbPoint
 10
22.5
 20
17.0
 30
0.0
  0
POINT
  5
42B
330
41D
100
AcDbEntity
  8
Defpoints
100
AcDbPoint
 10
30.0
 20
17.0
 30
0.0
  0
ENDBLK
  5
41F
330
41D
100
AcDbEntity
  8
0
100
AcDbBlockEnd
  0
BLOCK
  5
42E
330
42D
100
AcDbEntity
  8
0
100
AcDbBlockBegin
  2
*D39
 70
1
 10
0.0
 20
0.0
 30
0.0
  3
*D39
  1

  0
LINE
  5
430
330
42D
100
AcDbEntity
  8
0
100
AcDbLine
 10
22.5
 20
17.0
 30
0.0
 11
21.7
 21
17.0
 31
0.0
  0
LINE
  5
431
330
42D
100
AcDbEntity
  8
0
100
AcDbLine
 10
22.5
 20
25.5
 30
0.0
 11
21.7
 21
25.5
 31
0.0
  0
INSERT
  5
432
330
42D
100
AcDbEntity
  8
COTATIONS
100
AcDbBlockReference
  2
_CLOSEDFILLED
 10
21.7
 20
17.0
 30
0.0
 41
0.25
 42
0.25
 50
270.0
  0
INSERT
  5
434
330
42D
100
AcDbEntity
  8
COTATIONS
100
AcDbBlockReference
  2
_CLOSEDFILLED
 10
21.7
 20
25.5
 30
0.0
 41
0.25
 42
0.25
 50
90.0
  0
LINE
  5
436
330
42D
100
AcDbEntity
  8
0
100
AcDbLine
 10
21.7
 20
17.25
 30
0.0
 11
21.7
 21
19.75
 31
0.0
  0
LINE
  5
437
330
42D
100
AcDbEntity
  8
0
100
AcDbLine
 10
21.7
 20
22.75
 30
0.0
 11
21.7
 21
25.25
 31
0.0
  0
MTEXT
  5
438
330
42D
100
AcDbEntity
  8
COTATIONS
100
AcDbMText
 10
21.7
 20
21.25
 30
0.0
 40
1.0
 71
5
  1
8,5
 50
90.0
  0
POINT
  5
439
330
42D
100
AcDbEntity
  8
Defpoints
100
AcDbPoint
 10
21.7
 20
17.0
 30
0.0
  0
POINT
  5
43A
330
42D
100
AcDbEntity
  8
Defpoints
100
AcDbPoint
 10
22.5
 20
17.0
 30
0.0
  0
POINT
  5
43B
330
42D
100
AcDbEntity
  8
Defpoints
100
AcDbPoint
 10
22.5
 20
25.5
 30
0.0
  0
ENDBLK
  5
42F
330
42D
100
AcDbEntity
  8
0
100
AcDbBlockEnd
  0
BLOCK
  5
43E
330
43D
100
AcDbEntity
  8
0
100
AcDbBlockBegin
  2
*D40
 70
1
 10
0.0
 20
0.0
 30
0.0
  3
*D40
  1

  0
LINE
  5
440
330
43D
100
AcDbEntity
  8
0
100
AcDbLine
 10
22.5
 20
25.5
 30
0.0
 11
22.5
 21
26.3
 31
0.0
  0
LINE
  5
441
330
43D
100
AcDbEntity
  8
0
100
AcDbLine
 10
30.0
 20
25.5
 30
0.0
 11
30.0
 21
26.3
 31
0.0
  0
INSERT
  5
442
330
43D
100
AcDbEntity
  8
COTATIONS
100
AcDbBlockReference
  2
_CLOSEDFILLED
 10
22.5
 20
26.3
 30
0.0
 41
0.25
 42
0.25
 50
180.0
  0
INSERT
  5
444
330
43D
100
AcDbEntity
  8
COTATIONS
100
AcDbBlockReference
  2
_CLOSEDFILLED
 10
30.0
 20
26.3
 30
0.0
 41
0.25
 42
0.25
  0
LINE
  5
446
330
43D
100
AcDbEntity
  8
0
100
AcDbLine
 10
22.75
 20
26.3
 30
0.0
 11
24.75
 21
26.3
 31
0.0
  0
LINE
  5
447
330
43D
100
AcDbEntity
  8
0
100
AcDbLine
 10
27.75
 20
26.3
 30
0.0
 11
29.75
 21
26.3
 31
0.0
  0
MTEXT
  5
448
330
43D
100
AcDbEntity
  8
COTATIONS
100
AcDbMText
 10
26.25
 20
26.3
 30
0.0
 40
1.0
 71
5
  1
7,5
  0
POINT
  5
449
330
43D
100
AcDbEntity
  8
Defpoints
100
AcDbPoint
 10
22.5
 20
26.3
 30
0.0
  0
POINT
  5
44A
330
43D
100
AcDbEntity
  8
Defpoints
100
AcDbPoint
 10
22.5
 20
25.5
 30
0.0
  0
POINT
  5
44B
330
43D
100
AcDbEntity
  8
Defpoints
100
AcDbPoint
 10
30.0
 20
25.5
 30
0.0
  0
ENDBLK
  5
43F
330
43D
100
AcDbEntity
  8
0
100
AcDbBlockEnd
  0
BLOCK
  5
44E
330
44D
100
AcDbEntity
  8
0
100
AcDbBlockBegin
  2
*D41
 70
1
 10
0.0
 20
0.0
 30
0.0
  3
*D41
  1

  0
LINE
  5
450
330
44D
100
AcDbEntity
  8
0
100
AcDbLine
 10
22.5
 20
25.5
 30
0.0
 11
21.7
 21
25.5
 31
0.0
  0
LINE
  5
451
330
44D
100
AcDbEntity
  8
0
100
AcDbLine
 10
22.5
 20
34.0
 30
0.0
 11
21.7
 21
34.0
 31
0.0
  0
INSERT
  5
452
330
44D
100
AcDbEntity
  8
COTATIONS
100
AcDbBlockReference
  2
_CLOSEDFILLED
 10
21.7
 20
25.5
 30
0.0
 41
0.25
 42
0.25
 50
270.0
  0
INSERT
  5
454
330
44D
100
AcDbEntity
  8
COTATIONS
100
AcDbBlockReference
  2
_CLOSEDFILLED
 10
21.7
 20
34.0
 30
0.0
 41
0.25
 42
0.25
 50
90.0
  0
LINE
  5
456
330
44D
100
AcDbEntity
  8
0
100
AcDbLine
 10
21.7
 20
25.75
 30
0.0
 11
21.7
 21
28.25
 31
0.0
  0
LINE
  5
457
330
44D
100
AcDbEntity
  8
0
100
AcDbLine
 10
21.7
 20
31.25
 30
0.0
 11
21.7
 21
33.75
 31
0.0
  0
MTEXT
  5
458
330
44D
100
AcDbEntity
  8
COTATIONS
100
AcDbMText
 10
21.7
 20
29.75
 30
0.0
 40
1.0
 71
5
  1
8,5
 50
90.0
  0
POINT
  5
459
330
44D
100
AcDbEntity
  8
Defpoints
100
AcDbPoint
 10
21.7
 20
25.5
 30
0.0
  0
POINT
  5
45A
330
44D
100
AcDbEntity
  8
Defpoints
100
AcDbPoint
 10
22.5
 20
25.5
 30
0.0
  0
POINT
  5
45B
330
44D
100
AcDbEntity
  8
Defpoints
100
AcDbPoint
 10
22.5
 20
34.0
 30
0.0
  0
ENDBLK
  5
44F
330
44D
100
AcDbEntity
  8
0
100
AcDbBlockEnd
  0
BLOCK
  5
45E
330
45D
100
AcDbEntity
  8
0
100
AcDbBlockBegin
  2
*D42
 70
1
 10
0.0
 20
0.0
 30
0.0
  3
*D42
  1

  0
LINE
  5
460
330
45D
100
AcDbEntity
  8
0
100
AcDbLine
 10
22.5
 20
34.0
 30
0.0
 11
22.5
 21
34.8
 31
0.0
  0
LINE
  5
461
330
45D
100
AcDbEntity
  8
0
100
AcDbLine
 10
30.0
 20
34.0
 30
0.0
 11
30.0
 21
34.8
 31
0.0
  0
INSERT
  5
462
330
45D
100
AcDbEntity
  8
COTATIONS
100
AcDbBlockReference
  2
_CLOSEDFILLED
 10
22.5
 20
34.8
 30
0.0
 41
0.25
 42
0.25
 50
180.0
  0
INSERT
  5
464
330
45D
100
AcDbEntity
  8
COTATIONS
100
AcDbBlockReference
  2
_CLOSEDFILLED
 10
30.0
 20
34.8
 30
0.0
 41
0.25
 42
0.25
  0
LINE
  5
466
330
45D
100
AcDbEntity
  8
0
100
AcDbLine
 10
22.75
 20
34.8
 30
0.0
 11
24.75
 21
34.8
 31
0.0
  0
LINE
  5
467
330
45D
100
AcDbEntity
  8
0
100
AcDbLine
 10
27.75
 20
34.8
 30
0.0
 11
29.75
 21
34.8
 31
0.0
  0
MTEXT
  5
468
330
45D
100
AcDbEntity
  8
COTATIONS
100
AcDbMText
 10
26.25
 20
34.8
 30
0.0
 40
1.0
 71
5
  1
7,5
  0
POINT
  5
469
330
45D
100
AcDbEntity
  8
Defpoints
100
AcDbPoint
 10
22.5
 20
34.8
 30
0.0
  0
POINT
  5
46A
330
45D
100
AcDbEntity
  8
Defpoints
100
AcDbPoint
 10
22.5
 20
34.0
 30
0.0
  0
POINT
  5
46B
330
45D
100
AcDbEntity
  8
Defpoints
100
AcDbPoint
 10
30.0
 20
34.0
 30
0.0
  0
ENDBLK
  5
45F
330
45D
100
AcDbEntity
  8
0
100
AcDbBlockEnd
  0
BLOCK
  5
46E
330
46D
100
AcDbEntity
  8
0
100
AcDbBlockBegin
  2
*D43
 70
1
 10
0.0
 20
0.0
 30
0.0
  3
*D43
  1

  0
LINE
  5
470
330
46D
100
AcDbEntity
  8
0
100
AcDbLine
 10
22.5
 20
34.0
 30
0.0
 11
21.7
 21
34.0
 31
0.0
  0
LINE
  5
471
330
46D
100
AcDbEntity
  8
0
100
AcDbLine
 10
22.5
 20
42.5
 30
0.0
 11
21.7
 21
42.5
 31
0.0
  0
INSERT
  5
472
330
46D
100
AcDbEntity
  8
COTATIONS
100
AcDbBlockReference
  2
_CLOSEDFILLED
 10
21.7
 20
34.0
 30
0.0
 41
0.25
 42
0.25
 50
270.0
  0
INSERT
  5
474
330
46D
100
AcDbEntity
  8
COTATIONS
100
AcDbBlockReference
  2
_CLOSEDFILLED
 10
21.7
 20
42.5
 30
0.0
 41
0.25
 42
0.25
 50
90.0
  0
LINE
  5
476
330
46D
100
AcDbEntity
  8
0
100
AcDbLine
 10
21.7
 20
34.25
 30
0.0
 11
21.7
 21
36.75
 31
0.0
  0
LINE
  5
477
330
46D
100
AcDbEntity
  8
0
100
AcDbLine
 10
21.7
 20
39.75
 30
0.0
 11
21.7
 21
42.25
 31
0.0
  0
MTEXT
  5
478
330
46D
100
AcDbEntity
  8
COTATIONS
100
AcDbMText
 10
21.7
 20
38.25
 30
0.0
 40
1.0
 71
5
  1
8,5
 50
90.0
  0
POINT
  5
479
330
46D
100
AcDbEntity
  8
Defpoints
100
AcDbPoint
 10
21.7
 20
34.0
 30
0.0
  0
POINT
  5
47A
330
46D
100
AcDbEntity
  8
Defpoints
100
AcDbPoint
 10
22.5
 20
34.0
 30
0.0
  0
POINT
  5
47B
330
46D
100
AcDbEntity
  8
Defpoints
100
AcDbPoint
 10
22.5
 20
42.5
 30
0.0
  0
ENDBLK
  5
46F
330
46D
100
AcDbEntity
  8
0
100
AcDbBlockEnd
  0
BLOCK
  5
47E
330
47D
100
AcDbEntity
  8
0
100
AcDbBlockBegin
  2
*D44
 70
1
 10
0.0
 20
0.0
 30
0.0
  3
*D44
  1

  0
LINE
  5
480
330
47D
100
AcDbEntity
  8
0
100
AcDbLine
 10
22.5
 20
42.5
 30
0.0
 11
22.5
 21
43.3
 31
0.0
  0
LINE
  5
481
330
47D
100
AcDbEntity
  8
0
100
AcDbLine
 10
30.0
 20
42.5
 30
0.0
 11
30.0
 21
43.3
 31
0.0
  0
INSERT
  5
482
330
47D
100
AcDbEntity
  8
COTATIONS
100
AcDbBlockReference
  2
_CLOSEDFILLED
 10
22.5
 20
43.3
 30
0.0
 41
0.25
 42
0.25
 50
180.0
  0
INSERT
  5
484
330
47D
100
AcDbEntity
  8
COTATIONS
100
AcDbBlockReference
  2
_CLOSEDFILLED
 10
30.0
 20
43.3
 30
0.0
 41
0.25
 42
0.25
  0
LINE
  5
486
330
47D
100
AcDbEntity
  8
0
100
AcDbLine
 10
22.75
 20
43.3
 30
0.0
 11
24.75
 21
43.3
 31
0.0
  0
LINE
  5
487
330
47D
100
AcDbEntity
  8
0
100
AcDbLine
 10
27.75
 20
43.3
 30
0.0
 11
29.75
 21
43.3
 31
0.0
  0
MTEXT
  5
488
330
47D
100
AcDbEntity
  8
COTATIONS
100
AcDbMText
 10
26.25
 20
43.3
 30
0.0
 40
1.0
 71
5
  1
7,5
  0
POINT
  5
489
330
47D
100
AcDbEntity
  8
Defpoints
100
AcDbPoint
 10
22.5
 20
43.3
 30
0.0
  0
POINT
  5
48A
330
47D
100
AcDbEntity
  8
Defpoints
100
AcDbPoint
 10
22.5
 20
42.5
 30
0.0
  0
POINT
  5
48B
330
47D
100
AcDbEntity
  8
Defpoints
100
AcDbPoint
 10
30.0
 20
42.5
 30
0.0
  0
ENDBLK
  5
47F
330
47D
100
AcDbEntity
  8
0
100
AcDbBlockEnd
  0
BLOCK
  5
48E
330
48D
100
AcDbEntity
  8
0
100
AcDbBlockBegin
  2
*D45
 70
1
 10
0.0
 20
0.0
 30
0.0
  3
*D45
  1

  0
LINE
  5
490
330
48D
100
AcDbEntity
  8
0
100
AcDbLine
 10
30.0
 20
0.0
 30
0.0
 11
30.0
 21
0.8
 31
0.0
  0
LINE
  5
491
330
48D
100
AcDbEntity
  8
0
100
AcDbLine
 10
37.5
 20
0.0
 30
0.0
 11
37.5
 21
0.8
 31
0.0
  0
INSERT
  5
492
330
48D
100
AcDbEntity
  8
COTATIONS
100
AcDbBlockReference
  2
_CLOSEDFILLED
 10
30.0
 20
0.8
 30
0.0
 41
0.25
 42
0.25
 50
180.0
  0
INSERT
  5
494
330
48D
100
AcDbEntity
  8
COTATIONS
100
AcDbBlockReference
  2
_CLOSEDFILLED
 10
37.5
 20
0.8
 30
0.0
 41
0.25
 42
0.25
  0
LINE
  5
496
330
48D
100
AcDbEntity
  8
0
100
AcDbLine
 10
30.25
 20
0.8
 30
0.0
 11
32.25
 21
0.8
 31
0.0
  0
LINE
  5
497
330
48D
100
AcDbEntity
  8
0
100
AcDbLine
 10
35.25
 20
0.8
 30
0.0
 11
37.25
 21
0.8
 31
0.0
  0
MTEXT
  5
498
330
48D
100
AcDbEntity
  8
COTATIONS
100
AcDbMText
 10
33.75
 20
0.8
 30
0.0
 40
1.0
 71
5
  1
7,5
  0
POINT
  5
499
330
48D
100
AcDbEntity
  8
Defpoints
100
AcDbPoint
 10
30.0
 20
0.8
 30
0.0
  0
POINT
  5
49A
330
48D
100
AcDbEntity
  8
Defpoints
100
AcDbPoint
 10
30.0
 20
0.0
 30
0.0
  0
POINT
  5
49B
330
48D
100
AcDbEntity
  8
Defpoints
100
AcDbPoint
 10
37.5
 20
0.0
 30
0.0
  0
ENDBLK
  5
48F
330
48D
100
AcDbEntity
  8
0
100
AcDbBlockEnd
  0
BLOCK
  5
49E
330
49D
100
AcDbEntity
  8
0
100
AcDbBlockBegin
  2
*D46
 70
1
 10
0.0
 20
0.0
 30
0.0
  3
*D46
  1

  0
LINE
  5
4A0
330
49D
100
AcDbEntity
  8
0
100
AcDbLine
 10
30.0
 20
0.0
 30
0.0
 11
29.2
 21
0.0
 31
0.0
  0
LINE
  5
4A1
330
49D
100
AcDbEntity
  8
0
100
AcDbLine
 10
30.0
 20
8.5
 30
0.0
 11
29.2
 21
8.5
 31
0.0
  0
INSERT
  5
4A2
330
49D
100
AcDbEntity
  8
COTATIONS
100
AcDbBlockReference
  2
_CLOSEDFILLED
 10
29.2
 20
0.0
 30
0.0
 41
0.25
 42
0.25
 50
270.0
  0
INSERT
  5
4A4
330
49D
100
AcDbEntity
  8
COTATIONS
100
AcDbBlockReference
  2
_CLOSEDFILLED
 10
29.2
 20
8.5
 30
0.0
 41
0.25
 42
0.25
 50
90.0
  0
LINE
  5
4A6
330
49D
100
AcDbEntity
  8
0
100
AcDbLine
 10
29.2
 20
0.25
 30
0.0
 11
29.2
 21
2.75
 31
0.0
  0
LINE
  5
4A7
330
49D
100
AcDbEntity
  8
0
100
AcDbLine
 10
29.2
 20
5.75
 30
0.0
 11
29.2
 21
8.25
 31
0.0
  0
MTEXT
  5
4A8
330
49D
100
AcDbEntity
  8
COTATIONS
100
AcDbMText
 10
29.2
 20
4.25
 30
0.0
 40
1.0
 71
5
  1
8,5
 50
90.0
  0
POINT
  5
4A9
330
49D
100
AcDbEntity
  8
Defpoints
100
AcDbPoint
 10
29.2
 20
0.0
 30
0.0
  0
POINT
  5
4AA
330
49D
100
AcDbEntity
  8
Defpoints
100
AcDbPoint
 10
30.0
 20
0.0
 30
0.0
  0
POINT
  5
4AB
330
49D
100
AcDbEntity
  8
Defpoints
100
AcDbPoint
 10
30.0
 20
8.5
 30
0.0
  0
ENDBLK
  5
49F
330
49D
100
AcDbEntity
  8
0
100
AcDbBlockEnd
  0
BLOCK
  5
4AE
330
4AD
100
AcDbEntity
  8
0
100
AcDbBlockBegin
  2
*D47
 70
1
 10
0.0
 20
0.0
 30
0.0
  3
*D47
  1

  0
LINE
  5
4B0
330
4AD
100
AcDbEntity
  8
0
100
AcDbLine
 10
30.0
 20
8.5
 30
0.0
 11
30.0
 21
9.3
 31
0.0
  0
LINE
  5
4B1
330
4AD
100
AcDbEntity
  8
0
100
AcDbLine
 10
37.5
 20
8.5
 30
0.0
 11
37.5
 21
9.3
 31
0.0
  0
INSERT
  5
4B2
330
4AD
100
AcDbEntity
  8
COTATIONS
100
AcDbBlockReference
  2
_CLOSEDFILLED
 10
30.0
 20
9.3
 30
0.0
 41
0.25
 42
0.25
 50
180.0
  0
INSERT
  5
4B4
330
4AD
100
AcDbEntity
  8
COTATIONS
100
AcDbBlockReference
  2
_CLOSEDFILLED
 10
37.5
 20
9.3
 30
0.0
 41
0.25
 42
0.25
  0
LINE
  5
4B6
330
4AD
100
AcDbEntity
  8
0
100
AcDbLine
 10
30.25
 20
9.3
 30
0.0
 11
32.25
 21
9.3
 31
0.0
  0
LINE
  5
4B7
330
4AD
100
AcDbEntity
  8
0
100
AcDbLine
 10
35.25
 20
9.3
 30
0.0
 11
37.25
 21
9.3
 31
0.0
  0
MTEXT
  5
4B8
330
4AD
100
AcDbEntity
  8
COTATIONS
100
AcDbMText
 10
33.75
 20
9.3
 30
0.0
 40
1.0
 71
5
  1
7,5
  0
POINT
  5
4B9
330
4AD
100
AcDbEntity
  8
Defpoints
100
AcDbPoint
 10
30.0
 20
9.3
 30
0.0
  0
POINT
  5
4BA
330
4AD
100
AcDbEntity
  8
Defpoints
100
AcDbPoint
 10
30.0
 20
8.5
 30
0.0
  0
POINT
  5
4BB
330
4AD
100
AcDbEntity
  8
Defpoints
100
AcDbPoint
 10
37.5
 20
8.5
 30
0.0
  0
ENDBLK
  5
4AF
330
4AD
100
AcDbEntity
  8
0
100
AcDbBlockEnd
  0
BLOCK
  5
4BE
330
4BD
100
AcDbEntity
  8
0
100
AcDbBlockBegin
  2
*D48
 70
1
 10
0.0
 20
0.0
 30
0.0
  3
*D48
  1

  0
LINE
  5
4C0
330
4BD
100
AcDbEntity
  8
0
100
AcDbLine
 10
30.0
 20
8.5
 30
0.0
 11
29.2
 21
8.5
 31
0.0
  0
LINE
  5
4C1
330
4BD
100
AcDbEntity
  8
0
100
AcDbLine
 10
30.0
 20
17.0
 30
0.0
 11
29.2
 21
17.0
 31
0.0
  0
INSERT
  5
4C2
330
4BD
100
AcDbEntity
  8
COTATIONS
100
AcDbBlockReference
  2
_CLOSEDFILLED
 10
29.2
 20
8.5
 30
0.0
 41
0.25
 42
0.25
 50
270.0
  0
INSERT
  5
4C4
330
4BD
100
AcDbEntity
  8
COTATIONS
100
AcDbBlockReference
  2
_CLOSEDFILLED
 10
29.2
 20
17.0
 30
0.0
 41
0.25
 42
0.25
 50
90.0
  0
LINE
  5
4C6
330
4BD
100
AcDbEntity
  8
0
100
AcDbLine
 10
29.2
 20
8.75
 30
0.0
 11
29.2
 21
11.25
 31
0.0
  0
LINE
  5
4C7
330
4BD
100
AcDbEntity
  8
0
100
AcDbLine
 10
29.2
 20
14.25
 30
0.0
 11
29.2
 21
16.75
 31
0.0
  0
MTEXT
  5
4C8
330
4BD
100
AcDbEntity
  8
COTATIONS
100
AcDbMText
 10
29.2
 20
12.75
 30
0.0
 40
1.0
 71
5
  1
8,5
 50
90.0
  0
POINT
  5
4C9
330
4BD
100
AcDbEntity
  8
Defpoints
100
AcDbPoint
 10
29.2
 20
8.5
 30
0.0
  0
POINT
  5
4CA
330
4BD
100
AcDbEntity
  8
Defpoints
100
AcDbPoint
 10
30.0
 20
8.5
 30
0.0
  0
POINT
  5
4CB
330
4BD
100
AcDbEntity
  8
Defpoints
100
AcDbPoint
 10
30.0
 20
17.0
 30
0.0
  0
ENDBLK
  5
4BF
330
4BD
100
AcDbEntity
  8
0
100
AcDbBlockEnd
  0
BLOCK
  5
4CE
330
4CD
100
AcDbEntity
  8
0
100
AcDbBlockBegin
  2
*D49
 70
1
 10
0.0
 20
0.0
 30
0.0
  3
*D49
  1

  0
LINE
  5
4D0
330
4CD
100
AcDbEntity
  8
0
100
AcDbLine
 10
30.0
 20
17.0
 30
0.0
 11
30.0
 21
17.8
 31
0.0
  0
LINE
  5
4D1
330
4CD
100
AcDbEntity
  8
0
100
AcDbLine
 10
37.5
 20
17.0
 30
0.0
 11
37.5
 21
17.8
 31
0.0
  0
INSERT
  5
4D2
330
4CD
100
AcDbEntity
  8
COTATIONS
100
AcDbBlockReference
  2
_CLOSEDFILLED
 10
30.0
 20
17.8
 30
0.0
 41
0.25
 42
0.25
 50
180.0
  0
INSERT
  5
4D4
330
4CD
100
AcDbEntity
  8
COTATIONS
100
AcDbBlockReference
  2
_CLOSEDFILLED
 10
37.5
 20
17.8
 30
0.0
 41
0.25
 42
0.25
  0
LINE
  5
4D6
330
4CD
100
AcDbEntity
  8
0
100
AcDbLine
 10
30.25
 20
17.8
 30
0.0
 11
32.25
 21
17.8
 31
0.0
  0
LINE
  5
4D7
330
4CD
100
AcDbEntity
  8
0
100
AcDbLine
 10
35.25
 20
17.8
 30
0.0
 11
37.25
 21
17.8
 31
0.0
  0
MTEXT
  5
4D8
330
4CD
100
AcDbEntity
  8
COTATIONS
100
AcDbMText
 10
33.75
 20
17.8
 30
0.0
 40
1.0
 71
5
  1
7,5
  0
POINT
  5
4D9
330
4CD
100
AcDbEntity
  8
Defpoints
100
AcDbPoint
 10
30.0
 20
17.8
 30
0.0
  0
POINT
  5
4DA
330
4CD
100
AcDbEntity
  8
Defpoints
100
AcDbPoint
 10
30.0
 20
17.0
 30
0.0
  0
POINT
  5
4DB
330
4CD
100
AcDbEntity
  8
Defpoints
100
AcDbPoint
 10
37.5
 20
17.0
 30
0.0
  0
ENDBLK
  5
4CF
330
4CD
100
AcDbEntity
  8
0
100
AcDbBlockEnd
  0
BLOCK
  5
4DE
330
4DD
100
AcDbEntity
  8
0
100
AcDbBlockBegin
  2
*D50
 70
1
 10
0.0
 20
0.0
 30
0.0
  3
*D50
  1

  0
LINE
  5
4E0
330
4DD
100
AcDbEntity
  8
0
100
AcDbLine
 10
30.0
 20
17.0
 30
0.0
 11
29.2
 21
17.0
 31
0.0
  0
LINE
  5
4E1
330
4DD
100
AcDbEntity
  8
0
100
AcDbLine
 10
30.0
 20
25.5
 30
0.0
 11
29.2
 21
25.5
 31
0.0
  0
INSERT
  5
4E2
330
4DD
100
AcDbEntity
  8
COTATIONS
100
AcDbBlockReference
  2
_CLOSEDFILLED
 10
29.2
 20
17.0
 30
0.0
 41
0.25
 42
0.25
 50
270.0
  0
INSERT
  5
4E4
330
4DD
100
AcDbEntity
  8
COTATIONS
100
AcDbBlockReference
  2
_CLOSEDFILLED
 10
29.2
 20
25.5
 30
0.0
 41
0.25
 42
0.25
 50
90.0
  0
LINE
  5
4E6
330
4DD
100
AcDbEntity
  8
0
100
AcDbLine
 10
29.2
 20
17.25
 30
0.0
 11
29.2
 21
19.75
 31
0.0
  0
LINE
  5
4E7
330
4DD
100
AcDbEntity
  8
0
100
AcDbLine
 10
29.2
 20
22.75
 30
0.0
 11
29.2
 21
25.25
 31
0.0
  0
MTEXT
  5
4E8
330
4DD
100
AcDbEntity
  8
COTATIONS
100
AcDbMText
 10
29.2
 20
21.25
 30
0.0
 40
1.0
 71
5
  1
8,5
 50
90.0
  0
POINT
  5
4E9
330
4DD
100
AcDbEntity
  8
Defpoints
100
AcDbPoint
 10
29.2
 20
17.0
 30
0.0
  0
POINT
  5
4EA
330
4DD
100
AcDbEntity
  8
Defpoints
100
AcDbPoint
 10
30.0
 20
17.0
 30
0.0
  0
POINT
  5
4EB
330
4DD
100
AcDbEntity
  8
Defpoints
100
AcDbPoint
 10
30.0
 20
25.5
 30
0.0
  0
ENDBLK
  5
4DF
330
4DD
100
AcDbEntity
  8
0
100
AcDbBlockEnd
  0
BLOCK
  5
4EE
330
4ED
100
AcDbEntity
  8
0
100
AcDbBlockBegin
  2
*D51
 70
1
 10
0.0
 20
0.0
 30
0.0
  3
*D51
  1

  0
LINE
  5
4F0
330
4ED
100
AcDbEntity
  8
0
100
AcDbLine
 10
30.0
 20
25.5
 30
0.0
 11
30.0
 21
26.3
 31
0.0
  0
LINE
  5
4F1
330
4ED
100
AcDbEntity
  8
0
100
AcDbLine
 10
37.5
 20
25.5
 30
0.0
 11
37.5
 21
26.3
 31
0.0
  0
INSERT
  5
4F2
330
4ED
100
AcDbEntity
  8
COTATIONS
100
AcDbBlockReference
  2
_CLOSEDFILLED
 10
30.0
 20
26.3
 30
0.0
 41
0.25
 42
0.25
 50
180.0
  0
INSERT
  5
4F4
330
4ED
100
AcDbEntity
  8
COTATIONS
100
AcDbBlockReference
  2
_CLOSEDFILLED
 10
37.5
 20
26.3
 30
0.0
 41
0.25
 42
0.25
  0
LINE
  5
4F6
330
4ED
100
AcDbEntity
  8
0
100
AcDbLine
 10
30.25
 20
26.3
 30
0.0
 11
32.25
 21
26.3
 31
0.0
  0
LINE
  5
4F7
330
4ED
100
AcDbEntity
  8
0
100
AcDbLine
 10
35.25
 20
26.3
 30
0.0
 11
37.25
 21
26.3
 31
0.0
  0
MTEXT
  5
4F8
330
4ED
100
AcDbEntity
  8
COTATIONS
100
AcDbMText
 10
33.75
 20
26.3
 30
0.0
 40
1.0
 71
5
  1
7,5
  0
POINT
  5
4F9
330
4ED
100
AcDbEntity
  8
Defpoints
100
AcDbPoint
 10
30.0
 20
26.3
 30
0.0
  0
POINT
  5
4FA
330
4ED
100
AcDbEntity
  8
Defpoints
100
AcDbPoint
 10
30.0
 20
25.5
 30
0.0
  0
POINT
  5
4FB
330
4ED
100
AcDbEntity
  8
Defpoints
100
AcDbPoint
 10
37.5
 20
25.5
 30
0.0
  0
ENDBLK
  5
4EF
330
4ED
100
AcDbEntity
  8
0
100
AcDbBlockEnd
  0
BLOCK
  5
4FE
330
4FD
100
AcDbEntity
  8
0
100
AcDbBlockBegin
  2
*D52
 70
1
 10
0.0
 20
0.0
 30
0.0
  3
*D52
  1

  0
LINE
  5
500
330
4FD
100
AcDbEntity
  8
0
100
AcDbLine
 10
30.0
 20
25.5
 30
0.0
 11
29.2
 21
25.5
 31
0.0
  0
LINE
  5
501
330
4FD
100
AcDbEntity
  8
0
100
AcDbLine
 10
30.0
 20
34.0
 30
0.0
 11
29.2
 21
34.0
 31
0.0
  0
INSERT
  5
502
330
4FD
100
AcDbEntity
  8
COTATIONS
100
AcDbBlockReference
  2
_CLOSEDFILLED
 10
29.2
 20
25.5
 30
0.0
 41
0.25
 42
0.25
 50
270.0
  0
INSERT
  5
504
330
4FD
100
AcDbEntity
  8
COTATIONS
100
AcDbBlockReference
  2
_CLOSEDFILLED
 10
29.2
 20
34.0
 30
0.0
 41
0.25
 42
0.25
 50
90.0
  0
LINE
  5
506
330
4FD
100
AcDbEntity
  8
0
100
AcDbLine
 10
29.2
 20
25.75
 30
0.0
 11
29.2
 21
28.25
 31
0.0
  0
LINE
  5
507
330
4FD
100
AcDbEntity
  8
0
100
AcDbLine
 10
29.2
 20
31.25
 30
0.0
 11
29.2
 21
33.75
 31
0.0
  0
MTEXT
  5
508
330
4FD
100
AcDbEntity
  8
COTATIONS
100
AcDbMText
 10
29.2
 20
29.75
 30
0.0
 40
1.0
 71
5
  1
8,5
 50
90.0
  0
POINT
  5
509
330
4FD
100
AcDbEntity
  8
Defpoints
100
AcDbPoint
 10
29.2
 20
25.5
 30
0.0
  0
POINT
  5
50A
330
4FD
100
AcDbEntity
  8
Defpoints
100
AcDbPoint
 10
30.0
 20
25.5
 30
0.0
  0
POINT
  5
50B
330
4FD
100
AcDbEntity
  8
Defpoints
100
AcDbPoint
 10
30.0
 20
34.0
 30
0.0
  0
ENDBLK
  5
4FF
330
4FD
100
AcDbEntity
  8
0
100
AcDbBlockEnd
  0
BLOCK
  5
50E
330
50D
100
AcDbEntity
  8
0
100
AcDbBlockBegin
  2
*D53
 70
1
 10
0.0
 20
0.0
 30
0.0
  3
*D53
  1

  0
LINE
  5
510
330
50D
100
AcDbEntity
  8
0
100
AcDbLine
 10
30.0
 20
34.0
 30
0.0
 11
30.0
 21
34.8
 31
0.0
  0
LINE
  5
511
330
50D
100
AcDbEntity
  8
0
100
AcDbLine
 10
37.5
 20
34.0
 30
0.0
 11
37.5
 21
34.8
 31
0.0
  0
INSERT
  5
512
330
50D
100
AcDbEntity
  8
COTATIONS
100
AcDbBlockReference
  2
_CLOSEDFILLED
 10
30.0
 20
34.8
 30
0.0
 41
0.25
 42
0.25
 50
180.0
  0
INSERT
  5
514
330
50D
100
AcDbEntity
  8
COTATIONS
100
AcDbBlockReference
  2
_CLOSEDFILLED
 10
37.5
 20
34.8
 30
0.0
 41
0.25
 42
0.25
  0
LINE
  5
516
330
50D
100
AcDbEntity
  8
0
100
AcDbLine
 10
30.25
 20
34.8
 30
0.0
 11
32.25
 21
34.8
 31
0.0
  0
LINE
  5
517
330
50D
100
AcDbEntity
  8
0
100
AcDbLine
 10
35.25
 20
34.8
 30
0.0
 11
37.25
 21
34.8
 31
0.0
  0
MTEXT
  5
518
330
50D
100
AcDbEntity
  8
COTATIONS
100
AcDbMText
 10
33.75
 20
34.8
 30
0.0
 40
1.0
 71
5
  1
7,5
  0
POINT
  5
519
330
50D
100
AcDbEntity
  8
Defpoints
100
AcDbPoint
 10
30.0
 20
34.8
 30
0.0
  0
POINT
  5
51A
330
50D
100
AcDbEntity
  8
Defpoints
100
AcDbPoint
 10
30.0
 20
34.0
 30
0.0
  0
POINT
  5
51B
330
50D
100
AcDbEntity
  8
Defpoints
100
AcDbPoint
 10
37.5
 20
34.0
 30
0.0
  0
ENDBLK
  5
50F
330
50D
100
AcDbEntity
  8
0
100
AcDbBlockEnd
  0
BLOCK
  5
51E
330
51D
100
AcDbEntity
  8
0
100
AcDbBlockBegin
  2
*D54
 70
1
 10
0.0
 20
0.0
 30
0.0
  3
*D54
  1

  0
LINE
  5
520
330
51D
100
AcDbEntity
  8
0
100
AcDbLine
 10
30.0
 20
34.0
 30
0.0
 11
29.2
 21
34.0
 31
0.0
  0
LINE
  5
521
330
51D
100
AcDbEntity
  8
0
100
AcDbLine
 10
30.0
 20
42.5
 30
0.0
 11
29.2
 21
42.5
 31
0.0
  0
INSERT
  5
522
330
51D
100
AcDbEntity
  8
COTATIONS
100
AcDbBlockReference
  2
_CLOSEDFILLED
 10
29.2
 20
34.0
 30
0.0
 41
0.25
 42
0.25
 50
270.0
  0
INSERT
  5
524
330
51D
100
AcDbEntity
  8
COTATIONS
100
AcDbBlockReference
  2
_CLOSEDFILLED
 10
29.2
 20
42.5
 30
0.0
 41
0.25
 42
0.25
 50
90.0
  0
LINE
  5
526
330
51D
100
AcDbEntity
  8
0
100
AcDbLine
 10
29.2
 20
34.25
 30
0.0
 11
29.2
 21
36.75
 31
0.0
  0
LINE
  5
527
330
51D
100
AcDbEntity
  8
0
100
AcDbLine
 10
29.2
 20
39.75
 30
0.0
 11
29.2
 21
42.25
 31
0.0
  0
MTEXT
  5
528
330
51D
100
AcDbEntity
  8
COTATIONS
100
AcDbMText
 10
29.2
 20
38.25
 30
0.0
 40
1.0
 71
5
  1
8,5
 50
90.0
  0
POINT
  5
529
330
51D
100
AcDbEntity
  8
Defpoints
100
AcDbPoint
 10
29.2
 20
34.0
 30
0.0
  0
POINT
  5
52A
330
51D
100
AcDbEntity
  8
Defpoints
100
AcDbPoint
 10
30.0
 20
34.0
 30
0.0
  0
POINT
  5
52B
330
51D
100
AcDbEntity
  8
Defpoints
100
AcDbPoint
 10
30.0
 20
42.5
 30
0.0
  0
ENDBLK
  5
51F
330
51D
100
AcDbEntity
  8
0
100
AcDbBlockEnd
  0
BLOCK
  5
52E
330
52D
100
AcDbEntity
  8
0
100
AcDbBlockBegin
  2
*D55
 70
1
 10
0.0
 20
0.0
 30
0.0
  3
*D55
  1

  0
LINE
  5
530
330
52D
100
AcDbEntity
  8
0
100
AcDbLine
 10
30.0
 20
42.5
 30
0.0
 11
30.0
 21
43.3
 31
0.0
  0
LINE
  5
531
330
52D
100
AcDbEntity
  8
0
100
AcDbLine
 10
37.5
 20
42.5
 30
0.0
 11
37.5
 21
43.3
 31
0.0
  0
INSERT
  5
532
330
52D
100
AcDbEntity
  8
COTATIONS
100
AcDbBlockReference
  2
_CLOSEDFILLED
 10
30.0
 20
43.3
 30
0.0
 41
0.25
 42
0.25
 50
180.0
  0
INSERT
  5
534
330
52D
100
AcDbEntity
  8
COTATIONS
100
AcDbBlockReference
  2
_CLOSEDFILLED
 10
37.5
 20
43.3
 30
0.0
 41
0.25
 42
0.25
  0
LINE
  5
536
330
52D
100
AcDbEntity
  8
0
100
AcDbLine
 10
30.25
 20
43.3
 30
0.0
 11
32.25
 21
43.3
 31
0.0
  0
LINE
  5
537
330
52D
100
AcDbEntity
  8
0
100
AcDbLine
 10
35.25
 20
43.3
 30
0.0
 11
37.25
 21
43.3
 31
0.0
  0
MTEXT
  5
538
330
52D
100
AcDbEntity
  8
COTATIONS
100
AcDbMText
 10
33.75
 20
43.3
 30
0.0
 40
1.0
 71
5
  1
7,5
  0
POINT
  5
539
330
52D
100
AcDbEntity
  8
Defpoints
100
AcDbPoint
 10
30.0
 20
43.3
 30
0.0
  0
POINT
  5
53A
330
52D
100
AcDbEntity
  8
Defpoints
100
AcDbPoint
 10
30.0
 20
42.5
 30
0.0
  0
POINT
  5
53B
330
52D
100
AcDbEntity
  8
Defpoints
100
AcDbPoint
 10
37.5
 20
42.5
 30
0.0
  0
ENDBLK
  5
52F
330
52D
100
AcDbEntity
  8
0
100
AcDbBlockEnd
  0
BLOCK
  5
53E
330
53D
100
AcDbEntity
  8
0
100
AcDbBlockBegin
  2
*D56
 70
1
 10
0.0
 20
0.0
 30
0.0
  3
*D56
  1

  0
LINE
  5
540
330
53D
100
AcDbEntity
  8
0
100
AcDbLine
 10
37.5
 20
0.0
 30
0.0
 11
36.7
 21
0.0
 31
0.0
  0
LINE
  5
541
330
53D
100
AcDbEntity
  8
0
100
AcDbLine
 10
37.5
 20
8.5
 30
0.0
 11
36.7
 21
8.5
 31
0.0
  0
INSERT
  5
542
330
53D
100
AcDbEntity
  8
COTATIONS
100
AcDbBlockReference
  2
_CLOSEDFILLED
 10
36.7
 20
0.0
 30
0.0
 41
0.25
 42
0.25
 50
270.0
  0
INSERT
  5
544
330
53D
100
AcDbEntity
  8
COTATIONS
100
AcDbBlockReference
  2
_CLOSEDFILLED
 10
36.7
 20
8.5
 30
0.0
 41
0.25
 42
0.25
 50
90.0
  0
LINE
  5
546
330
53D
100
AcDbEntity
  8
0
100
AcDbLine
 10
36.7
 20
0.25
 30
0.0
 11
36.7
 21
2.75
 31
0.0
  0
LINE
  5
547
330
53D
100
AcDbEntity
  8
0
100
AcDbLine
 10
36.7
 20
5.75
 30
0.0
 11
36.7
 21
8.25
 31
0.0
  0
MTEXT
  5
548
330
53D
100
AcDbEntity
  8
COTATIONS
100
AcDbMText
 10
36.7
 20
4.25
 30
0.0
 40
1.0
 71
5
  1
8,5
 50
90.0
  0
POINT
  5
549
330
53D
100
AcDbEntity
  8
Defpoints
100
AcDbPoint
 10
36.7
 20
0.0
 30
0.0
  0
POINT
  5
54A
330
53D
100
AcDbEntity
  8
Defpoints
100
AcDbPoint
 10
37.5
 20
0.0
 30
0.0
  0
POINT
  5
54B
330
53D
100
AcDbEntity
  8
Defpoints
100
AcDbPoint
 10
37.5
 20
8.5
 30
0.0
  0
ENDBLK
  5
53F
330
53D
100
AcDbEntity
  8
0
100
AcDbBlockEnd
  0
BLOCK
  5
54E
330
54D
100
AcDbEntity
  8
0
100
AcDbBlockBegin
  2
*D57
 70
1
 10
0.0
 20
0.0
 30
0.0
  3
*D57
  1

  0
LINE
  5
550
330
54D
100
AcDbEntity
  8
0
100
AcDbLine
 10
37.5
 20
8.5
 30
0.0
 11
36.7
 21
8.5
 31
0.0
  0
LINE
  5
551
330
54D
100
AcDbEntity
  8
0
100
AcDbLine
 10
37.5
 20
17.0
 30
0.0
 11
36.7
 21
17.0
 31
0.0
  0
INSERT
  5
552
330
54D
100
AcDbEntity
  8
COTATIONS
100
AcDbBlockReference
  2
_CLOSEDFILLED
 10
36.7
 20
8.5
 30
0.0
 41
0.25
 42
0.25
 50
270.0
  0
INSERT
  5
554
330
54D
100
AcDbEntity
  8
COTATIONS
100
AcDbBlockReference
  2
_CLOSEDFILLED
 10
36.7
 20
17.0
 30
0.0
 41
0.25
 42
0.25
 50
90.0
  0
LINE
  5
556
330
54D
100
AcDbEntity
  8
0
100
AcDbLine
 10
36.7
 20
8.75
 30
0.0
 11
36.7
 21
11.25
 31
0.0
  0
LINE
  5
557
330
54D
100
AcDbEntity
  8
0
100
AcDbLine
 10
36.7
 20
14.25
 30
0.0
 11
36.7
 21
16.75
 31
0.0
  0
MTEXT
  5
558
330
54D
100
AcDbEntity
  8
COTATIONS
100
AcDbMText
 10
36.7
 20
12.75
 30
0.0
 40
1.0
 71
5
  1
8,5
 50
90.0
  0
POINT
  5
559
330
54D
100
AcDbEntity
  8
Defpoints
100
AcDbPoint
 10
36.7
 20
8.5
 30
0.0
  0
POINT
  5
55A
330
54D
100
AcDbEntity
  8
Defpoints
100
AcDbPoint
 10
37.5
 20
8.5
 30
0.0
  0
POINT
  5
55B
330
54D
100
AcDbEntity
  8
Defpoints
100
AcDbPoint
 10
37.5
 20
17.0
 30
0.0
  0
ENDBLK
  5
54F
330
54D
100
AcDbEntity
  8
0
100
AcDbBlockEnd
  0
BLOCK
  5
55E
330
55D
100
AcDbEntity
  8
0
100
AcDbBlockBegin
  2
*D58
 70
1
 10
0.0
 20
0.0
 30
0.0
  3
*D58
  1

  0
LINE
  5
560
330
55D
100
AcDbEntity
  8
0
100
AcDbLine
 10
37.5
 20
17.0
 30
0.0
 11
36.7
 21
17.0
 31
0.0
  0
LINE
  5
561
330
55D
100
AcDbEntity
  8
0
100
AcDbLine
 10
37.5
 20
25.5
 30
0.0
 11
36.7
 21
25.5
 31
0.0
  0
INSERT
  5
562
330
55D
100
AcDbEntity
  8
COTATIONS
100
AcDbBlockReference
  2
_CLOSEDFILLED
 10
36.7
 20
17.0
 30
0.0
 41
0.25
 42
0.25
 50
270.0
  0
INSERT
  5
564
330
55D
100
AcDbEntity
  8
COTATIONS
100
AcDbBlockReference
  2
_CLOSEDFILLED
 10
36.7
 20
25.5
 30
0.0
 41
0.25
 42
0.25
 50
90.0
  0
LINE
  5
566
330
55D
100
AcDbEntity
  8
0
100
AcDbLine
 10
36.7
 20
17.25
 30
0.0
 11
36.7
 21
19.75
 31
0.0
  0
LINE
  5
567
330
55D
100
AcDbEntity
  8
0
100
AcDbLine
 10
36.7
 20
22.75
 30
0.0
 11
36.7
 21
25.25
 31
0.0
  0
MTEXT
  5
568
330
55D
100
AcDbEntity
  8
COTATIONS
100
AcDbMText
 10
36.7
 20
21.25
 30
0.0
 40
1.0
 71
5
  1
8,5
 50
90.0
  0
POINT
  5
569
330
55D
100
AcDbEntity
  8
Defpoints
100
AcDbPoint
 10
36.7
 20
17.0
 30
0.0
  0
POINT
  5
56A
330
55D
100
AcDbEntity
  8
Defpoints
100
AcDbPoint
 10
37.5
 20
17.0
 30
0.0
  0
POINT
  5
56B
330
55D
100
AcDbEntity
  8
Defpoints
100
AcDbPoint
 10
37.5
 20
25.5
 30
0.0
  0
ENDBLK
  5
55F
330
55D
100
AcDbEntity
  8
0
100
AcDbBlockEnd
  0
BLOCK
  5
56E
330
56D
100
AcDbEntity
  8
0
100
AcDbBlockBegin
  2
*D59
 70
1
 10
0.0
 20
0.0
 30
0.0
  3
*D59
  1

  0
LINE
  5
570
330
56D
100
AcDbEntity
  8
0
100
AcDbLine
 10
37.5
 20
25.5
 30
0.0
 11
36.7
 21
25.5
 31
0.0
  0
LINE
  5
571
330
56D
100
AcDbEntity
  8
0
100
AcDbLine
 10
37.5
 20
34.0
 30
0.0
 11
36.7
 21
34.0
 31
0.0
  0
INSERT
  5
572
330
56D
100
AcDbEntity
  8
COTATIONS
100
AcDbBlockReference
  2
_CLOSEDFILLED
 10
36.7
 20
25.5
 30
0.0
 41
0.25
 42
0.25
 50
270.0
  0
INSERT
  5
574
330
56D
100
AcDbEntity
  8
COTATIONS
100
AcDbBlockReference
  2
_CLOSEDFILLED
 10
36.7
 20
34.0
 30
0.0
 41
0.25
 42
0.25
 50
90.0
  0
LINE
  5
576
330
56D
100
AcDbEntity
  8
0
100
AcDbLine
 10
36.7
 20
25.75
 30
0.0
 11
36.7
 21
28.25
 31
0.0
  0
LINE
  5
577
330
56D
100
AcDbEntity
  8
0
100
AcDbLine
 10
36.7
 20
31.25
 30
0.0
 11
36.7
 21
33.75
 31
0.0
  0
MTEXT
  5
578
330
56D
100
AcDbEntity
  8
COTATIONS
100
AcDbMText
 10
36.7
 20
29.75
 30
0.0
 40
1.0
 71
5
  1
8,5
 50
90.0
  0
POINT
  5
579
330
56D
100
AcDbEntity
  8
Defpoints
100
AcDbPoint
 10
36.7
 20
25.5
 30
0.0
  0
POINT
  5
57A
330
56D
100
AcDbEntity
  8
Defpoints
100
AcDbPoint
 10
37.5
 20
25.5
 30
0.0
  0
POINT
  5
57B
330
56D
100
AcDbEntity
  8
Defpoints
100
AcDbPoint
 10
37.5
 20
34.0
 30
0.0
  0
ENDBLK
  5
56F
330
56D
100
AcDbEntity
  8
0
100
AcDbBlockEnd
  0
BLOCK
  5
57E
330
57D
100
AcDbEntity
  8
0
100
AcDbBlockBegin
  2
*D60
 70
1
 10
0.0
 20
0.0
 30
0.0
  3
*D60
  1

  0
LINE
  5
580
330
57D
100
AcDbEntity
  8
0
100
AcDbLine
 10
37.5
 20
34.0
 30
0.0
 11
36.7
 21
34.0
 31
0.0
  0
LINE
  5
581
330
57D
100
AcDbEntity
  8
0
100
AcDbLine
 10
37.5
 20
42.5
 30
0.0
 11
36.7
 21
42.5
 31
0.0
  0
INSERT
  5
582
330
57D
100
AcDbEntity
  8
COTATIONS
100
AcDbBlockReference
  2
_CLOSEDFILLED
 10
36.7
 20
34.0
 30
0.0
 41
0.25
 42
0.25
 50
270.0
  0
INSERT
  5
584
330
57D
100
AcDbEntity
  8
COTATIONS
100
AcDbBlockReference
  2
_CLOSEDFILLED
 10
36.7
 20
42.5
 30
0.0
 41
0.25
 42
0.25
 50
90.0
  0
LINE
  5
586
330
57D
100
AcDbEntity
  8
0
100
AcDbLine
 10
36.7
 20
34.25
 30
0.0
 11
36.7
 21
36.75
 31
0.0
  0
LINE
  5
587
330
57D
100
AcDbEntity
  8
0
100
AcDbLine
 10
36.7
 20
39.75
 30
0.0
 11
36.7
 21
42.25
 31
0.0
  0
MTEXT
  5
588
330
57D
100
AcDbEntity
  8
COTATIONS
100
AcDbMText
 10
36.7
 20
38.25
 30
0.0
 40
1.0
 71
5
  1
8,5
 50
90.0
  0
POINT
  5
589
330
57D
100
AcDbEntity
  8
Defpoints
100
AcDbPoint
 10
36.7
 20
34.0
 30
0.0
  0
POINT
  5
58A
330
57D
100
AcDbEntity
  8
Defpoints
100
AcDbPoint
 10
37.5
 20
34.0
 30
0.0
  0
POINT
  5
58B
330
57D
100
AcDbEntity
  8
Defpoints
100
AcDbPoint
 10
37.5
 20
42.5
 30
0.0
  0
ENDBLK
  5
57F
330
57D
100
AcDbEntity
  8
0
100
AcDbBlockEnd
  0
ENDSEC
  0
SECTION
  2
ENTITIES
  0
LWPOLYLINE
  5
34
330
17
100
AcDbEntity
  8
DALLAGE
100
AcDbPolyline
 90
5
 70
0
 10
-0.2
 20
-0.2
 10
37.7
 20
-0.2
 10
37.7
 20
42.7
 10
-0.2
 20
42.7
 10
-0.2
 20
-0.2
  0
LINE
  5
36
330
17
100
AcDbEntity
  8
AXES_REPERES
100
AcDbLine
 10
0.0
 20
-1.5
 30
0.0
 11
0.0
 21
44.0
 31
0.0
  0
CIRCLE
  5
37
330
17
100
AcDbEntity
  8
AXES_REPERES
100
AcDbCircle
 10
0.0
 20
-1.9
 30
0.0
 40
0.4
  0
TEXT
  5
38
330
17
100
AcDbEntity
  8
AXES_REPERES
100
AcDbText
 10
0.0
 20
-1.9
 30
0.0
 40
0.4
  1
1
 72
1
 11
0.0
 21
-1.9
 31
0.0
100
AcDbText
 73
2
  0
CIRCLE
  5
39
330
17
100
AcDbEntity
  8
AXES_REPERES
100
AcDbCircle
 10
0.0
 20
44.4
 30
0.0
 40
0.4
  0
TEXT
  5
3A
330
17
100
AcDbEntity
  8
AXES_REPERES
100
AcDbText
 10
0.0
 20
44.4
 30
0.0
 40
0.4
  1
1
 72
1
 11
0.0
 21
44.4
 31
0.0
100
AcDbText
 73
2
  0
LINE
  5
3B
330
17
100
AcDbEntity
  8
AXES_REPERES
100
AcDbLine
 10
7.5
 20
-1.5
 30
0.0
 11
7.5
 21
44.0
 31
0.0
  0
CIRCLE
  5
3C
330
17
100
AcDbEntity
  8
AXES_REPERES
100
AcDbCircle
 10
7.5
 20
-1.9
 30
0.0
 40
0.4
  0
TEXT
  5
3D
330
17
100
AcDbEntity
  8
AXES_REPERES
100
AcDbText
 10
7.5
 20
-1.9
 30
0.0
 40
0.4
  1
2
 72
1
 11
7.5
 21
-1.9
 31
0.0
100
AcDbText
 73
2
  0
CIRCLE
  5
3E
330
17
100
AcDbEntity
  8
AXES_REPERES
100
AcDbCircle
 10
7.5
 20
44.4
 30
0.0
 40
0.4
  0
TEXT
  5
3F
330
17
100
AcDbEntity
  8
AXES_REPERES
100
AcDbText
 10
7.5
 20
44.4
 30
0.0
 40
0.4
  1
2
 72
1
 11
7.5
 21
44.4
 31
0.0
100
AcDbText
 73
2
  0
LINE
  5
40
330
17
100
AcDbEntity
  8
AXES_REPERES
100
AcDbLine
 10
15.0
 20
-1.5
 30
0.0
 11
15.0
 21
44.0
 31
0.0
  0
CIRCLE
  5
41
330
17
100
AcDbEntity
  8
AXES_REPERES
100
AcDbCircle
 10
15.0
 20
-1.9
 30
0.0
 40
0.4
  0
TEXT
  5
42
330
17
100
AcDbEntity
  8
AXES_REPERES
100
AcDbText
 10
15.0
 20
-1.9
 30
0.0
 40
0.4
  1
3
 72
1
 11
15.0
 21
-1.9
 31
0.0
100
AcDbText
 73
2
  0
CIRCLE
  5
43
330
17
100
AcDbEntity
  8
AXES_REPERES
100
AcDbCircle
 10
15.0
 20
44.4
 30
0.0
 40
0.4
  0
TEXT
  5
44
330
17
100
AcDbEntity
  8
AXES_REPERES
100
AcDbText
 10
15.0
 20
44.4
 30
0.0
 40
0.4
  1
3
 72
1
 11
15.0
 21
44.4
 31
0.0
100
AcDbText
 73
2
  0
LINE
  5
45
330
17
100
AcDbEntity
  8
AXES_REPERES
100
AcDbLine
 10
22.5
 20
-1.5
 30
0.0
 11
22.5
 21
44.0
 31
0.0
  0
CIRCLE
  5
46
330
17
100
AcDbEntity
  8
AXES_REPERES
100
AcDbCircle
 10
22.5
 20
-1.9
 30
0.0
 40
0.4
  0
TEXT
  5
47
330
17
100
AcDbEntity
  8
AXES_REPERES
100
AcDbText
 10
22.5
 20
-1.9
 30
0.0
 40
0.4
  1
4
 72
1
 11
22.5
 21
-1.9
 31
0.0
100
AcDbText
 73
2
  0
CIRCLE
  5
48
330
17
100
AcDbEntity
  8
AXES_REPERES
100
AcDbCircle
 10
22.5
 20
44.4
 30
0.0
 40
0.4
  0
TEXT
  5
49
330
17
100
AcDbEntity
  8
AXES_REPERES
100
AcDbText
 10
22.5
 20
44.4
 30
0.0
 40
0.4
  1
4
 72
1
 11
22.5
 21
44.4
 31
0.0
100
AcDbText
 73
2
  0
LINE
  5
4A
330
17
100
AcDbEntity
  8
AXES_REPERES
100
AcDbLine
 10
30.0
 20
-1.5
 30
0.0
 11
30.0
 21
44.0
 31
0.0
  0
CIRCLE
  5
4B
330
17
100
AcDbEntity
  8
AXES_REPERES
100
AcDbCircle
 10
30.0
 20
-1.9
 30
0.0
 40
0.4
  0
TEXT
  5
4C
330
17
100
AcDbEntity
  8
AXES_REPERES
100
AcDbText
 10
30.0
 20
-1.9
 30
0.0
 40
0.4
  1
5
 72
1
 11
30.0
 21
-1.9
 31
0.0
100
AcDbText
 73
2
  0
CIRCLE
  5
4D
330
17
100
AcDbEntity
  8
AXES_REPERES
100
AcDbCircle
 10
30.0
 20
44.4
 30
0.0
 40
0.4
  0
TEXT
  5
4E
330
17
100
AcDbEntity
  8
AXES_REPERES
100
AcDbText
 10
30.0
 20
44.4
 30
0.0
 40
0.4
  1
5
 72
1
 11
30.0
 21
44.4
 31
0.0
100
AcDbText
 73
2
  0
LINE
  5
4F
330
17
100
AcDbEntity
  8
AXES_REPERES
100
AcDbLine
 10
37.5
 20
-1.5
 30
0.0
 11
37.5
 21
44.0
 31
0.0
  0
CIRCLE
  5
50
330
17
100
AcDbEntity
  8
AXES_REPERES
100
AcDbCircle
 10
37.5
 20
-1.9
 30
0.0
 40
0.4
  0
TEXT
  5
51
330
17
100
AcDbEntity
  8
AXES_REPERES
100
AcDbText
 10
37.5
 20
-1.9
 30
0.0
 40
0.4
  1
6
 72
1
 11
37.5
 21
-1.9
 31
0.0
100
AcDbText
 73
2
  0
CIRCLE
  5
52
330
17
100
AcDbEntity
  8
AXES_REPERES
100
AcDbCircle
 10
37.5
 20
44.4
 30
0.0
 40
0.4
  0
TEXT
  5
53
330
17
100
AcDbEntity
  8
AXES_REPERES
100
AcDbText
 10
37.5
 20
44.4
 30
0.0
 40
0.4
  1
6
 72
1
 11
37.5
 21
44.4
 31
0.0
100
AcDbText
 73
2
  0
LINE
  5
54
330
17
100
AcDbEntity
  8
AXES_REPERES
100
AcDbLine
 10
-1.5
 20
0.0
 30
0.0
 11
39.0
 21
0.0
 31
0.0
  0
CIRCLE
  5
55
330
17
100
AcDbEntity
  8
AXES_REPERES
100
AcDbCircle
 10
-1.9
 20
0.0
 30
0.0
 40
0.4
  0
TEXT
  5
56
330
17
100
AcDbEntity
  8
AXES_REPERES
100
AcDbText
 10
-1.9
 20
0.0
 30
0.0
 40
0.4
  1
A
 72
1
 11
-1.9
 21
0.0
 31
0.0
100
AcDbText
 73
2
  0
CIRCLE
  5
57
330
17
100
AcDbEntity
  8
AXES_REPERES
100
AcDbCircle
 10
39.4
 20
0.0
 30
0.0
 40
0.4
  0
TEXT
  5
58
330
17
100
AcDbEntity
  8
AXES_REPERES
100
AcDbText
 10
39.4
 20
0.0
 30
0.0
 40
0.4
  1
A
 72
1
 11
39.4
 21
0.0
 31
0.0
100
AcDbText
 73
2
  0
LINE
  5
59
330
17
100
AcDbEntity
  8
AXES_REPERES
100
AcDbLine
 10
-1.5
 20
8.5
 30
0.0
 11
39.0
 21
8.5
 31
0.0
  0
CIRCLE
  5
5A
330
17
100
AcDbEntity
  8
AXES_REPERES
100
AcDbCircle
 10
-1.9
 20
8.5
 30
0.0
 40
0.4
  0
TEXT
  5
5B
330
17
100
AcDbEntity
  8
AXES_REPERES
100
AcDbText
 10
-1.9
 20
8.5
 30
0.0
 40
0.4
  1
B
 72
1
 11
-1.9
 21
8.5
 31
0.0
100
AcDbText
 73
2
  0
CIRCLE
  5
5C
330
17
100
AcDbEntity
  8
AXES_REPERES
100
AcDbCircle
 10
39.4
 20
8.5
 30
0.0
 40
0.4
  0
TEXT
  5
5D
330
17
100
AcDbEntity
  8
AXES_REPERES
100
AcDbText
 10
39.4
 20
8.5
 30
0.0
 40
0.4
  1
B
 72
1
 11
39.4
 21
8.5
 31
0.0
100
AcDbText
 73
2
  0
LINE
  5
5E
330
17
100
AcDbEntity
  8
AXES_REPERES
100
AcDbLine
 10
-1.5
 20
17.0
 30
0.0
 11
39.0
 21
17.0
 31
0.0
  0
CIRCLE
  5
5F
330
17
100
AcDbEntity
  8
AXES_REPERES
100
AcDbCircle
 10
-1.9
 20
17.0
 30
0.0
 40
0.4
  0
TEXT
  5
60
330
17
100
AcDbEntity
  8
AXES_REPERES
100
AcDbText
 10
-1.9
 20
17.0
 30
0.0
 40
0.4
  1
C
 72
1
 11
-1.9
 21
17.0
 31
0.0
100
AcDbText
 73
2
  0
CIRCLE
  5
61
330
17
100
AcDbEntity
  8
AXES_REPERES
100
AcDbCircle
 10
39.4
 20
17.0
 30
0.0
 40
0.4
  0
TEXT
  5
62
330
17
100
AcDbEntity
  8
AXES_REPERES
100
AcDbText
 10
39.4
 20
17.0
 30
0.0
 40
0.4
  1
C
 72
1
 11
39.4
 21
17.0
 31
0.0
100
AcDbText
 73
2
  0
LINE
  5
63
330
17
100
AcDbEntity
  8
AXES_REPERES
100
AcDbLine
 10
-1.5
 20
25.5
 30
0.0
 11
39.0
 21
25.5
 31
0.0
  0
CIRCLE
  5
64
330
17
100
AcDbEntity
  8
AXES_REPERES
100
AcDbCircle
 10
-1.9
 20
25.5
 30
0.0
 40
0.4
  0
TEXT
  5
65
330
17
100
AcDbEntity
  8
AXES_REPERES
100
AcDbText
 10
-1.9
 20
25.5
 30
0.0
 40
0.4
  1
D
 72
1
 11
-1.9
 21
25.5
 31
0.0
100
AcDbText
 73
2
  0
CIRCLE
  5
66
330
17
100
AcDbEntity
  8
AXES_REPERES
100
AcDbCircle
 10
39.4
 20
25.5
 30
0.0
 40
0.4
  0
TEXT
  5
67
330
17
100
AcDbEntity
  8
AXES_REPERES
100
AcDbText
 10
39.4
 20
25.5
 30
0.0
 40
0.4
  1
D
 72
1
 11
39.4
 21
25.5
 31
0.0
100
AcDbText
 73
2
  0
LINE
  5
68
330
17
100
AcDbEntity
  8
AXES_REPERES
100
AcDbLine
 10
-1.5
 20
34.0
 30
0.0
 11
39.0
 21
34.0
 31
0.0
  0
CIRCLE
  5
69
330
17
100
AcDbEntity
  8
AXES_REPERES
100
AcDbCircle
 10
-1.9
 20
34.0
 30
0.0
 40
0.4
  0
TEXT
  5
6A
330
17
100
AcDbEntity
  8
AXES_REPERES
100
AcDbText
 10
-1.9
 20
34.0
 30
0.0
 40
0.4
  1
E
 72
1
 11
-1.9
 21
34.0
 31
0.0
100
AcDbText
 73
2
  0
CIRCLE
  5
6B
330
17
100
AcDbEntity
  8
AXES_REPERES
100
AcDbCircle
 10
39.4
 20
34.0
 30
0.0
 40
0.4
  0
TEXT
  5
6C
330
17
100
AcDbEntity
  8
AXES_REPERES
100
AcDbText
 10
39.4
 20
34.0
 30
0.0
 40
0.4
  1
E
 72
1
 11
39.4
 21
34.0
 31
0.0
100
AcDbText
 73
2
  0
LINE
  5
6D
330
17
100
AcDbEntity
  8
AXES_REPERES
100
AcDbLine
 10
-1.5
 20
42.5
 30
0.0
 11
39.0
 21
42.5
 31
0.0
  0
CIRCLE
  5
6E
330
17
100
AcDbEntity
  8
AXES_REPERES
100
AcDbCircle
 10
-1.9
 20
42.5
 30
0.0
 40
0.4
  0
TEXT
  5
6F
330
17
100
AcDbEntity
  8
AXES_REPERES
100
AcDbText
 10
-1.9
 20
42.5
 30
0.0
 40
0.4
  1
F
 72
1
 11
-1.9
 21
42.5
 31
0.0
100
AcDbText
 73
2
  0
CIRCLE
  5
70
330
17
100
AcDbEntity
  8
AXES_REPERES
100
AcDbCircle
 10
39.4
 20
42.5
 30
0.0
 40
0.4
  0
TEXT
  5
71
330
17
100
AcDbEntity
  8
AXES_REPERES
100
AcDbText
 10
39.4
 20
42.5
 30
0.0
 40
0.4
  1
F
 72
1
 11
39.4
 21
42.5
 31
0.0
100
AcDbText
 73
2
  0
LWPOLYLINE
  5
72
330
17
100
AcDbEntity
  8
SEMELLES
100
AcDbPolyline
 90
5
 70
0
 10
-0.983
 20
-0.983
 10
0.983
 20
-0.983
 10
0.983
 20
0.983
 10
-0.983
 20
0.983
 10
-0.983
 20
-0.983
  0
LWPOLYLINE
  5
73
330
17
100
AcDbEntity
  8
POTEAUX
100
AcDbPolyline
 90
5
 70
0
 10
-0.15
 20
-0.15
 10
0.15
 20
-0.15
 10
0.15
 20
0.15
 10
-0.15
 20
0.15
 10
-0.15
 20
-0.15
  0
TEXT
  5
74
330
17
100
AcDbEntity
  8
ANNOTATIONS
100
AcDbText
 10
1.083
 20
0.0
 30
0.0
 40
0.5898
  1
S3(200x200x45)
100
AcDbText
  0
TEXT
  5
75
330
17
100
AcDbEntity
  8
POTEAUX
100
AcDbText
 10
-0.2
 20
0.2
 30
0.0
 40
0.12
  1
P3
100
AcDbText
  0
LWPOLYLINE
  5
76
330
17
100
AcDbEntity
  8
SEMELLES
100
AcDbPolyline
 90
5
 70
0
 10
-1.39
 20
7.11
 10
1.39
 20
7.11
 10
1.39
 20
9.89
 10
-1.39
 20
9.89
 10
-1.39
 20
7.11
  0
LWPOLYLINE
  5
77
330
17
100
AcDbEntity
  8
POTEAUX
100
AcDbPolyline
 90
5
 70
0
 10
-0.175
 20
8.325
 10
0.175
 20
8.325
 10
0.175
 20
8.675
 10
-0.175
 20
8.675
 10
-0.175
 20
8.325
  0
TEXT
  5
78
330
17
100
AcDbEntity
  8
ANNOTATIONS
100
AcDbText
 10
1.49
 20
8.5
 30
0.0
 40
0.834
  1
S2(280x280x65)
100
AcDbText
  0
TEXT
  5
79
330
17
100
AcDbEntity
  8
POTEAUX
100
AcDbText
 10
-0.22499999999999998
 20
8.725000000000001
 30
0.0
 40
0.13999999999999999
  1
P2
100
AcDbText
  0
LWPOLYLINE
  5
7A
330
17
100
AcDbEntity
  8
SEMELLES
100
AcDbPolyline
 90
5
 70
0
 10
-1.39
 20
15.61
 10
1.39
 20
15.61
 10
1.39
 20
18.39
 10
-1.39
 20
18.39
 10
-1.39
 20
15.61
  0
LWPOLYLINE
  5
7B
330
17
100
AcDbEntity
  8
POTEAUX
100
AcDbPolyline
 90
5
 70
0
 10
-0.175
 20
16.825
 10
0.175
 20
16.825
 10
0.175
 20
17.175
 10
-0.175
 20
17.175
 10
-0.175
 20
16.825
  0
TEXT
  5
7C
330
17
100
AcDbEntity
  8
ANNOTATIONS
100
AcDbText
 10
1.49
 20
17.0
 30
0.0
 40
0.834
  1
S2(280x280x65)
100
AcDbText
  0
TEXT
  5
7D
330
17
100
AcDbEntity
  8
POTEAUX
100
AcDbText
 10
-0.22499999999999998
 20
17.225
 30
0.0
 40
0.13999999999999999
  1
P2
100
AcDbText
  0
LWPOLYLINE
  5
7E
330
17
100
AcDbEntity
  8
SEMELLES
100
AcDbPolyline
 90
5
 70
0
 10
-1.39
 20
24.11
 10
1.39
 20
24.11
 10
1.39
 20
26.89
 10
-1.39
 20
26.89
 10
-1.39
 20
24.11
  0
LWPOLYLINE
  5
7F
330
17
100
AcDbEntity
  8
POTEAUX
100
AcDbPolyline
 90
5
 70
0
 10
-0.175
 20
25.325
 10
0.175
 20
25.325
 10
0.175
 20
25.675
 10
-0.175
 20
25.675
 10
-0.175
 20
25.325
  0
TEXT
  5
80
330
17
100
AcDbEntity
  8
ANNOTATIONS
100
AcDbText
 10
1.49
 20
25.5
 30
0.0
 40
0.834
  1
S2(280x280x65)
100
AcDbText
  0
TEXT
  5
81
330
17
100
AcDbEntity
  8
POTEAUX
100
AcDbText
 10
-0.22499999999999998
 20
25.725
 30
0.0
 40
0.13999999999999999
  1
P2
100
AcDbText
  0
LWPOLYLINE
  5
82
330
17
100
AcDbEntity
  8
SEMELLES
100
AcDbPolyline
 90
5
 70
0
 10
-1.39
 20
32.61
 10
1.39
 20
32.61
 10
1.39
 20
35.39
 10
-1.39
 20
35.39
 10
-1.39
 20
32.61
  0
LWPOLYLINE
  5
83
330
17
100
AcDbEntity
  8
POTEAUX
100
AcDbPolyline
 90
5
 70
0
 10
-0.175
 20
33.825
 10
0.175
 20
33.825
 10
0.175
 20
34.175
 10
-0.175
 20
34.175
 10
-0.175
 20
33.825
  0
TEXT
  5
84
330
17
100
AcDbEntity
  8
ANNOTATIONS
100
AcDbText
 10
1.49
 20
34.0
 30
0.0
 40
0.834
  1
S2(280x280x65)
100
AcDbText
  0
TEXT
  5
85
330
17
100
AcDbEntity
  8
POTEAUX
100
AcDbText
 10
-0.22499999999999998
 20
34.224999999999994
 30
0.0
 40
0.13999999999999999
  1
P2
100
AcDbText
  0
LWPOLYLINE
  5
86
330
17
100
AcDbEntity
  8
SEMELLES
100
AcDbPolyline
 90
5
 70
0
 10
-0.983
 20
41.517
 10
0.983
 20
41.517
 10
0.983
 20
43.483
 10
-0.983
 20
43.483
 10
-0.983
 20
41.517
  0
LWPOLYLINE
  5
87
330
17
100
AcDbEntity
  8
POTEAUX
100
AcDbPolyline
 90
5
 70
0
 10
-0.15
 20
42.35
 10
0.15
 20
42.35
 10
0.15
 20
42.65
 10
-0.15
 20
42.65
 10
-0.15
 20
42.35
  0
TEXT
  5
88
330
17
100
AcDbEntity
  8
ANNOTATIONS
100
AcDbText
 10
1.083
 20
42.5
 30
0.0
 40
0.5898
  1
S3(200x200x45)
100
AcDbText
  0
TEXT
  5
89
330
17
100
AcDbEntity
  8
POTEAUX
100
AcDbText
 10
-0.2
 20
42.699999999999996
 30
0.0
 40
0.12
  1
P3
100
AcDbText
  0
LWPOLYLINE
  5
8A
330
17
100
AcDbEntity
  8
SEMELLES
100
AcDbPolyline
 90
5
 70
0
 10
6.11
 20
-1.39
 10
8.89
 20
-1.39
 10
8.89
 20
1.39
 10
6.11
 20
1.39
 10
6.11
 20
-1.39
  0
LWPOLYLINE
  5
8B
330
17
100
AcDbEntity
  8
POTEAUX
100
AcDbPolyline
 90
5
 70
0
 10
7.325
 20
-0.175
 10
7.675
 20
-0.175
 10
7.675
 20
0.175
 10
7.325
 20
0.175
 10
7.325
 20
-0.175
  0
TEXT
  5
8C
330
17
100
AcDbEntity
  8
ANNOTATIONS
100
AcDbText
 10
8.99
 20
0.0
 30
0.0
 40
0.834
  1
S2(280x280x65)
100
AcDbText
  0
TEXT
  5
8D
330
17
100
AcDbEntity
  8
POTEAUX
100
AcDbText
 10
7.275
 20
0.22499999999999998
 30
0.0
 40
0.13999999999999999
  1
P2
100
AcDbText
  0
LWPOLYLINE
  5
8E
330
17
100
AcDbEntity
  8
SEMELLES
100
AcDbPolyline
 90
5
 70
0
 10
5.534
 20
6.534
 10
9.466
 20
6.534
 10
9.466
 20
10.466
 10
5.534
 20
10.466
 10
5.534
 20
6.534
  0
LWPOLYLINE
  5
8F
330
17
100
AcDbEntity
  8
POTEAUX
100
AcDbPolyline
 90
5
 70
0
 10
7.25
 20
8.25
 10
7.75
 20
8.25
 10
7.75
 20
8.75
 10
7.25
 20
8.75
 10
7.25
 20
8.25
  0
TEXT
  5
90
330
17
100
AcDbEntity
  8
ANNOTATIONS
100
AcDbText
 10
9.565999999999999
 20
8.5
 30
0.0
 40
1.1796
  1
S1(395x395x90)
100
AcDbText
  0
TEXT
  5
91
330
17
100
AcDbEntity
  8
POTEAUX
100
AcDbText
 10
7.2
 20
8.8
 30
0.0
 40
0.2
  1
P1
100
AcDbText
  0
LWPOLYLINE
  5
92
330
17
100
AcDbEntity
  8
SEMELLES
100
AcDbPolyline
 90
5
 70
0
 10
5.534
 20
15.034
 10
9.466
 20
15.034
 10
9.466
 20
18.966
 10
5.534
 20
18.966
 10
5.534
 20
15.034
  0
LWPOLYLINE
  5
93
330
17
100
AcDbEntity
  8
POTEAUX
100
AcDbPolyline
 90
5
 70
0
 10
7.25
 20
16.75
 10
7.75
 20
16.75
 10
7.75
 20
17.25
 10
7.25
 20
17.25
 10
7.25
 20
16.75
  0
TEXT
  5
94
330
17
100
AcDbEntity
  8
ANNOTATIONS
100
AcDbText
 10
9.565999999999999
 20
17.0
 30
0.0
 40
1.1796
  1
S1(395x395x90)
100
AcDbText
  0
TEXT
  5
95
330
17
100
AcDbEntity
  8
POTEAUX
100
AcDbText
 10
7.2
 20
17.3
 30
0.0
 40
0.2
  1
P1
100
AcDbText
  0
LWPOLYLINE
  5
96
330
17
100
AcDbEntity
  8
SEMELLES
100
AcDbPolyline
 90
5
 70
0
 10
5.534
 20
23.534
 10
9.466
 20
23.534
 10
9.466
 20
27.466
 10
5.534
 20
27.466
 10
5.534
 20
23.534
  0
LWPOLYLINE
  5
97
330
17
100
AcDbEntity
  8
POTEAUX
100
AcDbPolyline
 90
5
 70
0
 10
7.25
 20
25.25
 10
7.75
 20
25.25
 10
7.75
 20
25.75
 10
7.25
 20
25.75
 10
7.25
 20
25.25
  0
TEXT
  5
98
330
17
100
AcDbEntity
  8
ANNOTATIONS
100
AcDbText
 10
9.565999999999999
 20
25.5
 30
0.0
 40
1.1796
  1
S1(395x395x90)
100
AcDbText
  0
TEXT
  5
99
330
17
100
AcDbEntity
  8
POTEAUX
100
AcDbText
 10
7.2
 20
25.8
 30
0.0
 40
0.2
  1
P1
100
AcDbText
  0
LWPOLYLINE
  5
9A
330
17
100
AcDbEntity
  8
SEMELLES
100
AcDbPolyline
 90
5
 70
0
 10
5.534
 20
32.034
 10
9.466
 20
32.034
 10
9.466
 20
35.966
 10
5.534
 20
35.966
 10
5.534
 20
32.034
  0
LWPOLYLINE
  5
9B
330
17
100
AcDbEntity
  8
POTEAUX
100
AcDbPolyline
 90
5
 70
0
 10
7.25
 20
33.75
 10
7.75
 20
33.75
 10
7.75
 20
34.25
 10
7.25
 20
34.25
 10
7.25
 20
33.75
  0
TEXT
  5
9C
330
17
100
AcDbEntity
  8
ANNOTATIONS
100
AcDbText
 10
9.565999999999999
 20
34.0
 30
0.0
 40
1.1796
  1
S1(395x395x90)
100
AcDbText
  0
TEXT
  5
9D
330
17
100
AcDbEntity
  8
POTEAUX
100
AcDbText
 10
7.2
 20
34.3
 30
0.0
 40
0.2
  1
P1
100
AcDbText
  0
LWPOLYLINE
  5
9E
330
17
100
AcDbEntity
  8
SEMELLES
100
AcDbPolyline
 90
5
 70
0
 10
6.11
 20
41.11
 10
8.89
 20
41.11
 10
8.89
 20
43.89
 10
6.11
 20
43.89
 10
6.11
 20
41.11
  0
LWPOLYLINE
  5
9F
330
17
100
AcDbEntity
  8
POTEAUX
100
AcDbPolyline
 90
5
 70
0
 10
7.325
 20
42.325
 10
7.675
 20
42.325
 10
7.675
 20
42.675
 10
7.325
 20
42.675
 10
7.325
 20
42.325
  0
TEXT
  5
A0
330
17
100
AcDbEntity
  8
ANNOTATIONS
100
AcDbText
 10
8.99
 20
42.5
 30
0.0
 40
0.834
  1
S2(280x280x65)
100
AcDbText
  0
TEXT
  5
A1
330
17
100
AcDbEntity
  8
POTEAUX
100
AcDbText
 10
7.275
 20
42.724999999999994
 30
0.0
 40
0.13999999999999999
  1
P2
100
AcDbText
  0
LWPOLYLINE
  5
A2
330
17
100
AcDbEntity
  8
SEMELLES
100
AcDbPolyline
 90
5
 70
0
 10
13.61
 20
-1.39
 10
16.39
 20
-1.39
 10
16.39
 20
1.39
 10
13.61
 20
1.39
 10
13.61
 20
-1.39
  0
LWPOLYLINE
  5
A3
330
17
100
AcDbEntity
  8
POTEAUX
100
AcDbPolyline
 90
5
 70
0
 10
14.825
 20
-0.175
 10
15.175
 20
-0.175
 10
15.175
 20
0.175
 10
14.825
 20
0.175
 10
14.825
 20
-0.175
  0
TEXT
  5
A4
330
17
100
AcDbEntity
  8
ANNOTATIONS
100
AcDbText
 10
16.490000000000002
 20
0.0
 30
0.0
 40
0.834
  1
S2(280x280x65)
100
AcDbText
  0
TEXT
  5
A5
330
17
100
AcDbEntity
  8
POTEAUX
100
AcDbText
 10
14.774999999999999
 20
0.22499999999999998
 30
0.0
 40
0.13999999999999999
  1
P2
100
AcDbText
  0
LWPOLYLINE
  5
A6
330
17
100
AcDbEntity
  8
SEMELLES
100
AcDbPolyline
 90
5
 70
0
 10
13.034
 20
6.534
 10
16.966
 20
6.534
 10
16.966
 20
10.466
 10
13.034
 20
10.466
 10
13.034
 20
6.534
  0
LWPOLYLINE
  5
A7
330
17
100
AcDbEntity
  8
POTEAUX
100
AcDbPolyline
 90
5
 70
0
 10
14.75
 20
8.25
 10
15.25
 20
8.25
 10
15.25
 20
8.75
 10
14.75
 20
8.75
 10
14.75
 20
8.25
  0
TEXT
  5
A8
330
17
100
AcDbEntity
  8
ANNOTATIONS
100
AcDbText
 10
17.066000000000003
 20
8.5
 30
0.0
 40
1.1796
  1
S1(395x395x90)
100
AcDbText
  0
TEXT
  5
A9
330
17
100
AcDbEntity
  8
POTEAUX
100
AcDbText
 10
14.7
 20
8.8
 30
0.0
 40
0.2
  1
P1
100
AcDbText
  0
LWPOLYLINE
  5
AA
330
17
100
AcDbEntity
  8
SEMELLES
100
AcDbPolyline
 90
5
 70
0
 10
13.034
 20
15.034
 10
16.966
 20
15.034
 10
16.966
 20
18.966
 10
13.034
 20
18.966
 10
13.034
 20
15.034
  0
LWPOLYLINE
  5
AB
330
17
100
AcDbEntity
  8
POTEAUX
100
AcDbPolyline
 90
5
 70
0
 10
14.75
 20
16.75
 10
15.25
 20
16.75
 10
15.25
 20
17.25
 10
14.75
 20
17.25
 10
14.75
 20
16.75
  0
TEXT
  5
AC
330
17
100
AcDbEntity
  8
ANNOTATIONS
100
AcDbText
 10
17.066000000000003
 20
17.0
 30
0.0
 40
1.1796
  1
S1(395x395x90)
100
AcDbText
  0
TEXT
  5
AD
330
17
100
AcDbEntity
  8
POTEAUX
100
AcDbText
 10
14.7
 20
17.3
 30
0.0
 40
0.2
  1
P1
100
AcDbText
  0
LWPOLYLINE
  5
AE
330
17
100
AcDbEntity
  8
SEMELLES
100
AcDbPolyline
 90
5
 70
0
 10
13.034
 20
23.534
 10
16.966
 20
23.534
 10
16.966
 20
27.466
 10
13.034
 20
27.466
 10
13.034
 20
23.534
  0
LWPOLYLINE
  5
AF
330
17
100
AcDbEntity
  8
POTEAUX
100
AcDbPolyline
 90
5
 70
0
 10
14.75
 20
25.25
 10
15.25
 20
25.25
 10
15.25
 20
25.75
 10
14.75
 20
25.75
 10
14.75
 20
25.25
  0
TEXT
  5
B0
330
17
100
AcDbEntity
  8
ANNOTATIONS
100
AcDbText
 10
17.066000000000003
 20
25.5
 30
0.0
 40
1.1796
  1
S1(395x395x90)
100
AcDbText
  0
TEXT
  5
B1
330
17
100
AcDbEntity
  8
POTEAUX
100
AcDbText
 10
14.7
 20
25.8
 30
0.0
 40
0.2
  1
P1
100
AcDbText
  0
LWPOLYLINE
  5
B2
330
17
100
AcDbEntity
  8
SEMELLES
100
AcDbPolyline
 90
5
 70
0
 10
13.034
 20
32.034
 10
16.966
 20
32.034
 10
16.966
 20
35.966
 10
13.034
 20
35.966
 10
13.034
 20
32.034
  0
LWPOLYLINE
  5
B3
330
17
100
AcDbEntity
  8
POTEAUX
100
AcDbPolyline
 90
5
 70
0
 10
14.75
 20
33.75
 10
15.25
 20
33.75
 10
15.25
 20
34.25
 10
14.75
 20
34.25
 10
14.75
 20
33.75
  0
TEXT
  5
B4
330
17
100
AcDbEntity
  8
ANNOTATIONS
100
AcDbText
 10
17.066000000000003
 20
34.0
 30
0.0
 40
1.1796
  1
S1(395x395x90)
100
AcDbText
  0
TEXT
  5
B5
330
17
100
AcDbEntity
  8
POTEAUX
100
AcDbText
 10
14.7
 20
34.3
 30
0.0
 40
0.2
  1
P1
100
AcDbText
  0
LWPOLYLINE
  5
B6
330
17
100
AcDbEntity
  8
SEMELLES
100
AcDbPolyline
 90
5
 70
0
 10
13.61
 20
41.11
 10
16.39
 20
41.11
 10
16.39
 20
43.89
 10
13.61
 20
43.89
 10
13.61
 20
41.11
  0
LWPOLYLINE
  5
B7
330
17
100
AcDbEntity
  8
POTEAUX
100
AcDbPolyline
 90
5
 70
0
 10
14.825
 20
42.325
 10
15.175
 20
42.325
 10
15.175
 20
42.675
 10
14.825
 20
42.675
 10
14.825
 20
42.325
  0
TEXT
  5
B8
330
17
100
AcDbEntity
  8
ANNOTATIONS
100
AcDbText
 10
16.490000000000002
 20
42.5
 30
0.0
 40
0.834
  1
S2(280x280x65)
100
AcDbText
  0
TEXT
  5
B9
330
17
100
AcDbEntity
  8
POTEAUX
100
AcDbText
 10
14.774999999999999
 20
42.724999999999994
 30
0.0
 40
0.13999999999999999
  1
P2
100
AcDbText
  0
LWPOLYLINE
  5
BA
330
17
100
AcDbEntity
  8
SEMELLES
100
AcDbPolyline
 90
5
 70
0
 10
21.11
 20
-1.39
 10
23.89
 20
-1.39
 10
23.89
 20
1.39
 10
21.11
 20
1.39
 10
21.11
 20
-1.39
  0
LWPOLYLINE
  5
BB
330
17
100
AcDbEntity
  8
POTEAUX
100
AcDbPolyline
 90
5
 70
0
 10
22.325
 20
-0.175
 10
22.675
 20
-0.175
 10
22.675
 20
0.175
 10
22.325
 20
0.175
 10
22.325
 20
-0.175
  0
TEXT
  5
BC
330
17
100
AcDbEntity
  8
ANNOTATIONS
100
AcDbText
 10
23.990000000000002
 20
0.0
 30
0.0
 40
0.834
  1
S2(280x280x65)
100
AcDbText
  0
TEXT
  5
BD
330
17
100
AcDbEntity
  8
POTEAUX
100
AcDbText
 10
22.275
 20
0.22499999999999998
 30
0.0
 40
0.13999999999999999
  1
P2
100
AcDbText
  0
LWPOLYLINE
  5
BE
330
17
100
AcDbEntity
  8
SEMELLES
100
AcDbPolyline
 90
5
 70
0
 10
20.534
 20
6.534
 10
24.466
 20
6.534
 10
24.466
 20
10.466
 10
20.534
 20
10.466
 10
20.534
 20
6.534
  0
LWPOLYLINE
  5
BF
330
17
100
AcDbEntity
  8
POTEAUX
100
AcDbPolyline
 90
5
 70
0
 10
22.25
 20
8.25
 10
22.75
 20
8.25
 10
22.75
 20
8.75
 10
22.25
 20
8.75
 10
22.25
 20
8.25
  0
TEXT
  5
C0
330
17
100
AcDbEntity
  8
ANNOTATIONS
100
AcDbText
 10
24.566000000000003
 20
8.5
 30
0.0
 40
1.1796
  1
S1(395x395x90)
100
AcDbText
  0
TEXT
  5
C1
330
17
100
AcDbEntity
  8
POTEAUX
100
AcDbText
 10
22.2
 20
8.8
 30
0.0
 40
0.2
  1
P1
100
AcDbText
  0
LWPOLYLINE
  5
C2
330
17
100
AcDbEntity
  8
SEMELLES
100
AcDbPolyline
 90
5
 70
0
 10
20.534
 20
15.034
 10
24.466
 20
15.034
 10
24.466
 20
18.966
 10
20.534
 20
18.966
 10
20.534
 20
15.034
  0
LWPOLYLINE
  5
C3
330
17
100
AcDbEntity
  8
POTEAUX
100
AcDbPolyline
 90
5
 70
0
 10
22.25
 20
16.75
 10
22.75
 20
16.75
 10
22.75
 20
17.25
 10
22.25
 20
17.25
 10
22.25
 20
16.75
  0
TEXT
  5
C4
330
17
100
AcDbEntity
  8
ANNOTATIONS
100
AcDbText
 10
24.566000000000003
 20
17.0
 30
0.0
 40
1.1796
  1
S1(395x395x90)
100
AcDbText
  0
TEXT
  5
C5
330
17
100
AcDbEntity
  8
POTEAUX
100
AcDbText
 10
22.2
 20
17.3
 30
0.0
 40
0.2
  1
P1
100
AcDbText
  0
LWPOLYLINE
  5
C6
330
17
100
AcDbEntity
  8
SEMELLES
100
AcDbPolyline
 90
5
 70
0
 10
20.534
 20
23.534
 10
24.466
 20
23.534
 10
24.466
 20
27.466
 10
20.534
 20
27.466
 10
20.534
 20
23.534
  0
LWPOLYLINE
  5
C7
330
17
100
AcDbEntity
  8
POTEAUX
100
AcDbPolyline
 90
5
 70
0
 10
22.25
 20
25.25
 10
22.75
 20
25.25
 10
22.75
 20
25.75
 10
22.25
 20
25.75
 10
22.25
 20
25.25
  0
TEXT
  5
C8
330
17
100
AcDbEntity
  8
ANNOTATIONS
100
AcDbText
 10
24.566000000000003
 20
25.5
 30
0.0
 40
1.1796
  1
S1(395x395x90)
100
AcDbText
  0
TEXT
  5
C9
330
17
100
AcDbEntity
  8
POTEAUX
100
AcDbText
 10
22.2
 20
25.8
 30
0.0
 40
0.2
  1
P1
100
AcDbText
  0
LWPOLYLINE
  5
CA
330
17
100
AcDbEntity
  8
SEMELLES
100
AcDbPolyline
 90
5
 70
0
 10
20.534
 20
32.034
 10
24.466
 20
32.034
 10
24.466
 20
35.966
 10
20.534
 20
35.966
 10
20.534
 20
32.034
  0
LWPOLYLINE
  5
CB
330
17
100
AcDbEntity
  8
POTEAUX
100
AcDbPolyline
 90
5
 70
0
 10
22.25
 20
33.75
 10
22.75
 20
33.75
 10
22.75
 20
34.25
 10
22.25
 20
34.25
 10
22.25
 20
33.75
  0
TEXT
  5
CC
330
17
100
AcDbEntity
  8
ANNOTATIONS
100
AcDbText
 10
24.566000000000003
 20
34.0
 30
0.0
 40
1.1796
  1
S1(395x395x90)
100
AcDbText
  0
TEXT
  5
CD
330
17
100
AcDbEntity
  8
POTEAUX
100
AcDbText
 10
22.2
 20
34.3
 30
0.0
 40
0.2
  1
P1
100
AcDbText
  0
LWPOLYLINE
  5
CE
330
17
100
AcDbEntity
  8
SEMELLES
100
AcDbPolyline
 90
5
 70
0
 10
21.11
 20
41.11
 10
23.89
 20
41.11
 10
23.89
 20
43.89
 10
21.11
 20
43.89
 10
21.11
 20
41.11
  0
LWPOLYLINE
  5
CF
330
17
100
AcDbEntity
  8
POTEAUX
100
AcDbPolyline
 90
5
 70
0
 10
22.325
 20
42.325
 10
22.675
 20
42.325
 10
22.675
 20
42.675
 10
22.325
 20
42.675
 10
22.325
 20
42.325
  0
TEXT
  5
D0
330
17
100
AcDbEntity
  8
ANNOTATIONS
100
AcDbText
 10
23.990000000000002
 20
42.5
 30
0.0
 40
0.834
  1
S2(280x280x65)
100
AcDbText
  0
TEXT
  5
D1
330
17
100
AcDbEntity
  8
POTEAUX
100
AcDbText
 10
22.275
 20
42.724999999999994
 30
0.0
 40
0.13999999999999999
  1
P2
100
AcDbText
  0
LWPOLYLINE
  5
D2
330
17
100
AcDbEntity
  8
SEMELLES
100
AcDbPolyline
 90
5
 70
0
 10
28.61
 20
-1.39
 10
31.39
 20
-1.39
 10
31.39
 20
1.39
 10
28.61
 20
1.39
 10
28.61
 20
-1.39
  0
LWPOLYLINE
  5
D3
330
17
100
AcDbEntity
  8
POTEAUX
100
AcDbPolyline
 90
5
 70
0
 10
29.825
 20
-0.175
 10
30.175
 20
-0.175
 10
30.175
 20
0.175
 10
29.825
 20
0.175
 10
29.825
 20
-0.175
  0
TEXT
  5
D4
330
17
100
AcDbEntity
  8
ANNOTATIONS
100
AcDbText
 10
31.490000000000002
 20
0.0
 30
0.0
 40
0.834
  1
S2(280x280x65)
100
AcDbText
  0
TEXT
  5
D5
330
17
100
AcDbEntity
  8
POTEAUX
100
AcDbText
 10
29.775
 20
0.22499999999999998
 30
0.0
 40
0.13999999999999999
  1
P2
100
AcDbText
  0
LWPOLYLINE
  5
D6
330
17
100
AcDbEntity
  8
SEMELLES
100
AcDbPolyline
 90
5
 70
0
 10
28.034
 20
6.534
 10
31.966
 20
6.534
 10
31.966
 20
10.466
 10
28.034
 20
10.466
 10
28.034
 20
6.534
  0
LWPOLYLINE
  5
D7
330
17
100
AcDbEntity
  8
POTEAUX
100
AcDbPolyline
 90
5
 70
0
 10
29.75
 20
8.25
 10
30.25
 20
8.25
 10
30.25
 20
8.75
 10
29.75
 20
8.75
 10
29.75
 20
8.25
  0
TEXT
  5
D8
330
17
100
AcDbEntity
  8
ANNOTATIONS
100
AcDbText
 10
32.066
 20
8.5
 30
0.0
 40
1.1796
  1
S1(395x395x90)
100
AcDbText
  0
TEXT
  5
D9
330
17
100
AcDbEntity
  8
POTEAUX
100
AcDbText
 10
29.7
 20
8.8
 30
0.0
 40
0.2
  1
P1
100
AcDbText
  0
LWPOLYLINE
  5
DA
330
17
100
AcDbEntity
  8
SEMELLES
100
AcDbPolyline
 90
5
 70
0
 10
28.034
 20
15.034
 10
31.966
 20
15.034
 10
31.966
 20
18.966
 10
28.034
 20
18.966
 10
28.034
 20
15.034
  0
LWPOLYLINE
  5
DB
330
17
100
AcDbEntity
  8
POTEAUX
100
AcDbPolyline
 90
5
 70
0
 10
29.75
 20
16.75
 10
30.25
 20
16.75
 10
30.25
 20
17.25
 10
29.75
 20
17.25
 10
29.75
 20
16.75
  0
TEXT
  5
DC
330
17
100
AcDbEntity
  8
ANNOTATIONS
100
AcDbText
 10
32.066
 20
17.0
 30
0.0
 40
1.1796
  1
S1(395x395x90)
100
AcDbText
  0
TEXT
  5
DD
330
17
100
AcDbEntity
  8
POTEAUX
100
AcDbText
 10
29.7
 20
17.3
 30
0.0
 40
0.2
  1
P1
100
AcDbText
  0
LWPOLYLINE
  5
DE
330
17
100
AcDbEntity
  8
SEMELLES
100
AcDbPolyline
 90
5
 70
0
 10
28.034
 20
23.534
 10
31.966
 20
23.534
 10
31.966
 20
27.466
 10
28.034
 20
27.466
 10
28.034
 20
23.534
  0
LWPOLYLINE
  5
DF
330
17
100
AcDbEntity
  8
POTEAUX
100
AcDbPolyline
 90
5
 70
0
 10
29.75
 20
25.25
 10
30.25
 20
25.25
 10
30.25
 20
25.75
 10
29.75
 20
25.75
 10
29.75
 20
25.25
  0
TEXT
  5
E0
330
17
100
AcDbEntity
  8
ANNOTATIONS
100
AcDbText
 10
32.066
 20
25.5
 30
0.0
 40
1.1796
  1
S1(395x395x90)
100
AcDbText
  0
TEXT
  5
E1
330
17
100
AcDbEntity
  8
POTEAUX
100
AcDbText
 10
29.7
 20
25.8
 30
0.0
 40
0.2
  1
P1
100
AcDbText
  0
LWPOLYLINE
  5
E2
330
17
100
AcDbEntity
  8
SEMELLES
100
AcDbPolyline
 90
5
 70
0
 10
28.034
 20
32.034
 10
31.966
 20
32.034
 10
31.966
 20
35.966
 10
28.034
 20
35.966
 10
28.034
 20
32.034
  0
LWPOLYLINE
  5
E3
330
17
100
AcDbEntity
  8
POTEAUX
100
AcDbPolyline
 90
5
 70
0
 10
29.75
 20
33.75
 10
30.25
 20
33.75
 10
30.25
 20
34.25
 10
29.75
 20
34.25
 10
29.75
 20
33.75
  0
TEXT
  5
E4
330
17
100
AcDbEntity
  8
ANNOTATIONS
100
AcDbText
 10
32.066
 20
34.0
 30
0.0
 40
1.1796
  1
S1(395x395x90)
100
AcDbText
  0
TEXT
  5
E5
330
17
100
AcDbEntity
  8
POTEAUX
100
AcDbText
 10
29.7
 20
34.3
 30
0.0
 40
0.2
  1
P1
100
AcDbText
  0
LWPOLYLINE
  5
E6
330
17
100
AcDbEntity
  8
SEMELLES
100
AcDbPolyline
 90
5
 70
0
 10
28.61
 20
41.11
 10
31.39
 20
41.11
 10
31.39
 20
43.89
 10
28.61
 20
43.89
 10
28.61
 20
41.11
  0
LWPOLYLINE
  5
E7
330
17
100
AcDbEntity
  8
POTEAUX
100
AcDbPolyline
 90
5
 70
0
 10
29.825
 20
42.325
 10
30.175
 20
42.325
 10
30.175
 20
42.675
 10
29.825
 20
42.675
 10
29.825
 20
42.325
  0
TEXT
  5
E8
330
17
100
AcDbEntity
  8
ANNOTATIONS
100
AcDbText
 10
31.490000000000002
 20
42.5
 30
0.0
 40
0.834
  1
S2(280x280x65)
100
AcDbText
  0
TEXT
  5
E9
330
17
100
AcDbEntity
  8
POTEAUX
100
AcDbText
 10
29.775
 20
42.724999999999994
 30
0.0
 40
0.13999999999999999
  1
P2
100
AcDbText
  0
LWPOLYLINE
  5
EA
330
17
100
AcDbEntity
  8
SEMELLES
100
AcDbPolyline
 90
5
 70
0
 10
36.517
 20
-0.983
 10
38.483
 20
-0.983
 10
38.483
 20
0.983
 10
36.517
 20
0.983
 10
36.517
 20
-0.983
  0
LWPOLYLINE
  5
EB
330
17
100
AcDbEntity
  8
POTEAUX
100
AcDbPolyline
 90
5
 70
0
 10
37.35
 20
-0.15
 10
37.65
 20
-0.15
 10
37.65
 20
0.15
 10
37.35
 20
0.15
 10
37.35
 20
-0.15
  0
TEXT
  5
EC
330
17
100
AcDbEntity
  8
ANNOTATIONS
100
AcDbText
 10
38.583
 20
0.0
 30
0.0
 40
0.5898
  1
S3(200x200x45)
100
AcDbText
  0
TEXT
  5
ED
330
17
100
AcDbEntity
  8
POTEAUX
100
AcDbText
 10
37.300000000000004
 20
0.2
 30
0.0
 40
0.12
  1
P3
100
AcDbText
  0
LWPOLYLINE
  5
EE
330
17
100
AcDbEntity
  8
SEMELLES
100
AcDbPolyline
 90
5
 70
0
 10
36.11
 20
7.11
 10
38.89
 20
7.11
 10
38.89
 20
9.89
 10
36.11
 20
9.89
 10
36.11
 20
7.11
  0
LWPOLYLINE
  5
EF
330
17
100
AcDbEntity
  8
POTEAUX
100
AcDbPolyline
 90
5
 70
0
 10
37.325
 20
8.325
 10
37.675
 20
8.325
 10
37.675
 20
8.675
 10
37.325
 20
8.675
 10
37.325
 20
8.325
  0
TEXT
  5
F0
330
17
100
AcDbEntity
  8
ANNOTATIONS
100
AcDbText
 10
38.99
 20
8.5
 30
0.0
 40
0.834
  1
S2(280x280x65)
100
AcDbText
  0
TEXT
  5
F1
330
17
100
AcDbEntity
  8
POTEAUX
100
AcDbText
 10
37.275000000000006
 20
8.725000000000001
 30
0.0
 40
0.13999999999999999
  1
P2
100
AcDbText
  0
LWPOLYLINE
  5
F2
330
17
100
AcDbEntity
  8
SEMELLES
100
AcDbPolyline
 90
5
 70
0
 10
36.11
 20
15.61
 10
38.89
 20
15.61
 10
38.89
 20
18.39
 10
36.11
 20
18.39
 10
36.11
 20
15.61
  0
LWPOLYLINE
  5
F3
330
17
100
AcDbEntity
  8
POTEAUX
100
AcDbPolyline
 90
5
 70
0
 10
37.325
 20
16.825
 10
37.675
 20
16.825
 10
37.675
 20
17.175
 10
37.325
 20
17.175
 10
37.325
 20
16.825
  0
TEXT
  5
F4
330
17
100
AcDbEntity
  8
ANNOTATIONS
100
AcDbText
 10
38.99
 20
17.0
 30
0.0
 40
0.834
  1
S2(280x280x65)
100
AcDbText
  0
TEXT
  5
F5
330
17
100
AcDbEntity
  8
POTEAUX
100
AcDbText
 10
37.275000000000006
 20
17.225
 30
0.0
 40
0.13999999999999999
  1
P2
100
AcDbText
  0
LWPOLYLINE
  5
F6
330
17
100
AcDbEntity
  8
SEMELLES
100
AcDbPolyline
 90
5
 70
0
 10
36.11
 20
24.11
 10
38.89
 20
24.11
 10
38.89
 20
26.89
 10
36.11
 20
26.89
 10
36.11
 20
24.11
  0
LWPOLYLINE
  5
F7
330
17
100
AcDbEntity
  8
POTEAUX
100
AcDbPolyline
 90
5
 70
0
 10
37.325
 20
25.325
 10
37.675
 20
25.325
 10
37.675
 20
25.675
 10
37.325
 20
25.675
 10
37.325
 20
25.325
  0
TEXT
  5
F8
330
17
100
AcDbEntity
  8
ANNOTATIONS
100
AcDbText
 10
38.99
 20
25.5
 30
0.0
 40
0.834
  1
S2(280x280x65)
100
AcDbText
  0
TEXT
  5
F9
330
17
100
AcDbEntity
  8
POTEAUX
100
AcDbText
 10
37.275000000000006
 20
25.725
 30
0.0
 40
0.13999999999999999
  1
P2
100
AcDbText
  0
LWPOLYLINE
  5
FA
330
17
100
AcDbEntity
  8
SEMELLES
100
AcDbPolyline
 90
5
 70
0
 10
36.11
 20
32.61
 10
38.89
 20
32.61
 10
38.89
 20
35.39
 10
36.11
 20
35.39
 10
36.11
 20
32.61
  0
LWPOLYLINE
  5
FB
330
17
100
AcDbEntity
  8
POTEAUX
100
AcDbPolyline
 90
5
 70
0
 10
37.325
 20
33.825
 10
37.675
 20
33.825
 10
37.675
 20
34.175
 10
37.325
 20
34.175
 10
37.325
 20
33.825
  0
TEXT
  5
FC
330
17
100
AcDbEntity
  8
ANNOTATIONS
100
AcDbText
 10
38.99
 20
34.0
 30
0.0
 40
0.834
  1
S2(280x280x65)
100
AcDbText
  0
TEXT
  5
FD
330
17
100
AcDbEntity
  8
POTEAUX
100
AcDbText
 10
37.275000000000006
 20
34.224999999999994
 30
0.0
 40
0.13999999999999999
  1
P2
100
AcDbText
  0
LWPOLYLINE
  5
FE
330
17
100
AcDbEntity
  8
SEMELLES
100
AcDbPolyline
 90
5
 70
0
 10
36.517
 20
41.517
 10
38.483
 20
41.517
 10
38.483
 20
43.483
 10
36.517
 20
43.483
 10
36.517
 20
41.517
  0
LWPOLYLINE
  5
FF
330
17
100
AcDbEntity
  8
POTEAUX
100
AcDbPolyline
 90
5
 70
0
 10
37.35
 20
42.35
 10
37.65
 20
42.35
 10
37.65
 20
42.65
 10
37.35
 20
42.65
 10
37.35
 20
42.35
  0
TEXT
  5
100
330
17
100
AcDbEntity
  8
ANNOTATIONS
100
AcDbText
 10
38.583
 20
42.5
 30
0.0
 40
0.5898
  1
S3(200x200x45)
100
AcDbText
  0
TEXT
  5
101
330
17
100
AcDbEntity
  8
POTEAUX
100
AcDbText
 10
37.300000000000004
 20
42.699999999999996
 30
0.0
 40
0.12
  1
P3
100
AcDbText
  0
LINE
  5
102
330
17
100
AcDbEntity
  8
CHAINAGE
100
AcDbLine
 10
0.0
 20
0.0
 30
0.0
 11
7.5
 21
0.0
 31
0.0
  0
LINE
  5
103
330
17
100
AcDbEntity
  8
CHAINAGE
100
AcDbLine
 10
0.0
 20
0.0
 30
0.0
 11
0.0
 21
8.5
 31
0.0
  0
LINE
  5
104
330
17
100
AcDbEntity
  8
CHAINAGE
100
AcDbLine
 10
0.0
 20
8.5
 30
0.0
 11
7.5
 21
8.5
 31
0.0
  0
LINE
  5
105
330
17
100
AcDbEntity
  8
CHAINAGE
100
AcDbLine
 10
0.0
 20
8.5
 30
0.0
 11
0.0
 21
17.0
 31
0.0
  0
LINE
  5
106
330
17
100
AcDbEntity
  8
CHAINAGE
100
AcDbLine
 10
0.0
 20
17.0
 30
0.0
 11
7.5
 21
17.0
 31
0.0
  0
LINE
  5
107
330
17
100
AcDbEntity
  8
CHAINAGE
100
AcDbLine
 10
0.0
 20
17.0
 30
0.0
 11
0.0
 21
25.5
 31
0.0
  0
LINE
  5
108
330
17
100
AcDbEntity
  8
CHAINAGE
100
AcDbLine
 10
0.0
 20
25.5
 30
0.0
 11
7.5
 21
25.5
 31
0.0
  0
LINE
  5
109
330
17
100
AcDbEntity
  8
CHAINAGE
100
AcDbLine
 10
0.0
 20
25.5
 30
0.0
 11
0.0
 21
34.0
 31
0.0
  0
LINE
  5
10A
330
17
100
AcDbEntity
  8
CHAINAGE
100
AcDbLine
 10
0.0
 20
34.0
 30
0.0
 11
7.5
 21
34.0
 31
0.0
  0
LINE
  5
10B
330
17
100
AcDbEntity
  8
CHAINAGE
100
AcDbLine
 10
0.0
 20
34.0
 30
0.0
 11
0.0
 21
42.5
 31
0.0
  0
LINE
  5
10C
330
17
100
AcDbEntity
  8
CHAINAGE
100
AcDbLine
 10
0.0
 20
42.5
 30
0.0
 11
7.5
 21
42.5
 31
0.0
  0
LINE
  5
10D
330
17
100
AcDbEntity
  8
CHAINAGE
100
AcDbLine
 10
7.5
 20
0.0
 30
0.0
 11
15.0
 21
0.0
 31
0.0
  0
LINE
  5
10E
330
17
100
AcDbEntity
  8
CHAINAGE
100
AcDbLine
 10
7.5
 20
0.0
 30
0.0
 11
7.5
 21
8.5
 31
0.0
  0
LINE
  5
10F
330
17
100
AcDbEntity
  8
CHAINAGE
100
AcDbLine
 10
7.5
 20
8.5
 30
0.0
 11
15.0
 21
8.5
 31
0.0
  0
LINE
  5
110
330
17
100
AcDbEntity
  8
CHAINAGE
100
AcDbLine
 10
7.5
 20
8.5
 30
0.0
 11
7.5
 21
17.0
 31
0.0
  0
LINE
  5
111
330
17
100
AcDbEntity
  8
CHAINAGE
100
AcDbLine
 10
7.5
 20
17.0
 30
0.0
 11
15.0
 21
17.0
 31
0.0
  0
LINE
  5
112
330
17
100
AcDbEntity
  8
CHAINAGE
100
AcDbLine
 10
7.5
 20
17.0
 30
0.0
 11
7.5
 21
25.5
 31
0.0
  0
LINE
  5
113
330
17
100
AcDbEntity
  8
CHAINAGE
100
AcDbLine
 10
7.5
 20
25.5
 30
0.0
 11
15.0
 21
25.5
 31
0.0
  0
LINE
  5
114
330
17
100
AcDbEntity
  8
CHAINAGE
100
AcDbLine
 10
7.5
 20
25.5
 30
0.0
 11
7.5
 21
34.0
 31
0.0
  0
LINE
  5
115
330
17
100
AcDbEntity
  8
CHAINAGE
100
AcDbLine
 10
7.5
 20
34.0
 30
0.0
 11
15.0
 21
34.0
 31
0.0
  0
LINE
  5
116
330
17
100
AcDbEntity
  8
CHAINAGE
100
AcDbLine
 10
7.5
 20
34.0
 30
0.0
 11
7.5
 21
42.5
 31
0.0
  0
LINE
  5
117
330
17
100
AcDbEntity
  8
CHAINAGE
100
AcDbLine
 10
7.5
 20
42.5
 30
0.0
 11
15.0
 21
42.5
 31
0.0
  0
LINE
  5
118
330
17
100
AcDbEntity
  8
CHAINAGE
100
AcDbLine
 10
15.0
 20
0.0
 30
0.0
 11
22.5
 21
0.0
 31
0.0
  0
LINE
  5
119
330
17
100
AcDbEntity
  8
CHAINAGE
100
AcDbLine
 10
15.0
 20
0.0
 30
0.0
 11
15.0
 21
8.5
 31
0.0
  0
LINE
  5
11A
330
17
100
AcDbEntity
  8
CHAINAGE
100
AcDbLine
 10
15.0
 20
8.5
 30
0.0
 11
22.5
 21
8.5
 31
0.0
  0
LINE
  5
11B
330
17
100
AcDbEntity
  8
CHAINAGE
100
AcDbLine
 10
15.0
 20
8.5
 30
0.0
 11
15.0
 21
17.0
 31
0.0
  0
LINE
  5
11C
330
17
100
AcDbEntity
  8
CHAINAGE
100
AcDbLine
 10
15.0
 20
17.0
 30
0.0
 11
22.5
 21
17.0
 31
0.0
  0
LINE
  5
11D
330
17
100
AcDbEntity
  8
CHAINAGE
100
AcDbLine
 10
15.0
 20
17.0
 30
0.0
 11
15.0
 21
25.5
 31
0.0
  0
LINE
  5
11E
330
17
100
AcDbEntity
  8
CHAINAGE
100
AcDbLine
 10
15.0
 20
25.5
 30
0.0
 11
22.5
 21
25.5
 31
0.0
  0
LINE
  5
11F
330
17
100
AcDbEntity
  8
CHAINAGE
100
AcDbLine
 10
15.0
 20
25.5
 30
0.0
 11
15.0
 21
34.0
 31
0.0
  0
LINE
  5
120
330
17
100
AcDbEntity
  8
CHAINAGE
100
AcDbLine
 10
15.0
 20
34.0
 30
0.0
 11
22.5
 21
34.0
 31
0.0
  0
LINE
  5
121
330
17
100
AcDbEntity
  8
CHAINAGE
100
AcDbLine
 10
15.0
 20
34.0
 30
0.0
 11
15.0
 21
42.5
 31
0.0
  0
LINE
  5
122
330
17
100
AcDbEntity
  8
CHAINAGE
100
AcDbLine
 10
15.0
 20
42.5
 30
0.0
 11
22.5
 21
42.5
 31
0.0
  0
LINE
  5
123
330
17
100
AcDbEntity
  8
CHAINAGE
100
AcDbLine
 10
22.5
 20
0.0
 30
0.0
 11
30.0
 21
0.0
 31
0.0
  0
LINE
  5
124
330
17
100
AcDbEntity
  8
CHAINAGE
100
AcDbLine
 10
22.5
 20
0.0
 30
0.0
 11
22.5
 21
8.5
 31
0.0
  0
LINE
  5
125
330
17
100
AcDbEntity
  8
CHAINAGE
100
AcDbLine
 10
22.5
 20
8.5
 30
0.0
 11
30.0
 21
8.5
 31
0.0
  0
LINE
  5
126
330
17
100
AcDbEntity
  8
CHAINAGE
100
AcDbLine
 10
22.5
 20
8.5
 30
0.0
 11
22.5
 21
17.0
 31
0.0
  0
LINE
  5
127
330
17
100
AcDbEntity
  8
CHAINAGE
100
AcDbLine
 10
22.5
 20
17.0
 30
0.0
 11
30.0
 21
17.0
 31
0.0
  0
LINE
  5
128
330
17
100
AcDbEntity
  8
CHAINAGE
100
AcDbLine
 10
22.5
 20
17.0
 30
0.0
 11
22.5
 21
25.5
 31
0.0
  0
LINE
  5
129
330
17
100
AcDbEntity
  8
CHAINAGE
100
AcDbLine
 10
22.5
 20
25.5
 30
0.0
 11
30.0
 21
25.5
 31
0.0
  0
LINE
  5
12A
330
17
100
AcDbEntity
  8
CHAINAGE
100
AcDbLine
 10
22.5
 20
25.5
 30
0.0
 11
22.5
 21
34.0
 31
0.0
  0
LINE
  5
12B
330
17
100
AcDbEntity
  8
CHAINAGE
100
AcDbLine
 10
22.5
 20
34.0
 30
0.0
 11
30.0
 21
34.0
 31
0.0
  0
LINE
  5
12C
330
17
100
AcDbEntity
  8
CHAINAGE
100
AcDbLine
 10
22.5
 20
34.0
 30
0.0
 11
22.5
 21
42.5
 31
0.0
  0
LINE
  5
12D
330
17
100
AcDbEntity
  8
CHAINAGE
100
AcDbLine
 10
22.5
 20
42.5
 30
0.0
 11
30.0
 21
42.5
 31
0.0
  0
LINE
  5
12E
330
17
100
AcDbEntity
  8
CHAINAGE
100
AcDbLine
 10
30.0
 20
0.0
 30
0.0
 11
37.5
 21
0.0
 31
0.0
  0
LINE
  5
12F
330
17
100
AcDbEntity
  8
CHAINAGE
100
AcDbLine
 10
30.0
 20
0.0
 30
0.0
 11
30.0
 21
8.5
 31
0.0
  0
LINE
  5
130
330
17
100
AcDbEntity
  8
CHAINAGE
100
AcDbLine
 10
30.0
 20
8.5
 30
0.0
 11
37.5
 21
8.5
 31
0.0
  0
LINE
  5
131
330
17
100
AcDbEntity
  8
CHAINAGE
100
AcDbLine
 10
30.0
 20
8.5
 30
0.0
 11
30.0
 21
17.0
 31
0.0
  0
LINE
  5
132
330
17
100
AcDbEntity
  8
CHAINAGE
100
AcDbLine
 10
30.0
 20
17.0
 30
0.0
 11
37.5
 21
17.0
 31
0.0
  0
LINE
  5
133
330
17
100
AcDbEntity
  8
CHAINAGE
100
AcDbLine
 10
30.0
 20
17.0
 30
0.0
 11
30.0
 21
25.5
 31
0.0
  0
LINE
  5
134
330
17
100
AcDbEntity
  8
CHAINAGE
100
AcDbLine
 10
30.0
 20
25.5
 30
0.0
 11
37.5
 21
25.5
 31
0.0
  0
LINE
  5
135
330
17
100
AcDbEntity
  8
CHAINAGE
100
AcDbLine
 10
30.0
 20
25.5
 30
0.0
 11
30.0
 21
34.0
 31
0.0
  0
LINE
  5
136
330
17
100
AcDbEntity
  8
CHAINAGE
100
AcDbLine
 10
30.0
 20
34.0
 30
0.0
 11
37.5
 21
34.0
 31
0.0
  0
LINE
  5
137
330
17
100
AcDbEntity
  8
CHAINAGE
100
AcDbLine
 10
30.0
 20
34.0
 30
0.0
 11
30.0
 21
42.5
 31
0.0
  0
LINE
  5
138
330
17
100
AcDbEntity
  8
CHAINAGE
100
AcDbLine
 10
30.0
 20
42.5
 30
0.0
 11
37.5
 21
42.5
 31
0.0
  0
LINE
  5
139
330
17
100
AcDbEntity
  8
CHAINAGE
100
AcDbLine
 10
37.5
 20
0.0
 30
0.0
 11
37.5
 21
8.5
 31
0.0
  0
LINE
  5
13A
330
17
100
AcDbEntity
  8
CHAINAGE
100
AcDbLine
 10
37.5
 20
8.5
 30
0.0
 11
37.5
 21
17.0
 31
0.0
  0
LINE
  5
13B
330
17
100
AcDbEntity
  8
CHAINAGE
100
AcDbLine
 10
37.5
 20
17.0
 30
0.0
 11
37.5
 21
25.5
 31
0.0
  0
LINE
  5
13C
330
17
100
AcDbEntity
  8
CHAINAGE
100
AcDbLine
 10
37.5
 20
25.5
 30
0.0
 11
37.5
 21
34.0
 31
0.0
  0
LINE
  5
13D
330
17
100
AcDbEntity
  8
CHAINAGE
100
AcDbLine
 10
37.5
 20
34.0
 30
0.0
 11
37.5
 21
42.5
 31
0.0
  0
TEXT
  5
13E
330
17
100
AcDbEntity
  8
ANNOTATIONS
100
AcDbText
 10
0.0
 20
-1.5
 30
0.0
 40
0.4
  1
Chaînage bas total : 480.00 ml
100
AcDbText
  0
TEXT
  5
13F
330
17
100
AcDbEntity
  8
ANNOTATIONS
100
AcDbText
 10
0.0
 20
-2.3
 30
0.0
 40
0.3
  1
Nomenclature semelles :
100
AcDbText
  0
TEXT
  5
140
330
17
100
AcDbEntity
  8
ANNOTATIONS
100
AcDbText
 10
0.0
 20
-2.6999999999999997
 30
0.0
 40
0.22
  1
S1 (395x395x90 cm) : 16 élément(s)
100
AcDbText
  0
TEXT
  5
141
330
17
100
AcDbEntity
  8
ANNOTATIONS
100
AcDbText
 10
0.0
 20
-3.0999999999999996
 30
0.0
 40
0.22
  1
S2 (280x280x65 cm) : 16 élément(s)
100
AcDbText
  0
TEXT
  5
142
330
17
100
AcDbEntity
  8
ANNOTATIONS
100
AcDbText
 10
0.0
 20
-3.5
 30
0.0
 40
0.22
  1
S3 (200x200x45 cm) : 4 élément(s)
100
AcDbText
  0
TEXT
  5
143
330
17
100
AcDbEntity
  8
ANNOTATIONS
100
AcDbText
 10
4.5
 20
-2.3
 30
0.0
 40
0.3
  1
Nomenclature poteaux :
100
AcDbText
  0
TEXT
  5
144
330
17
100
AcDbEntity
  8
ANNOTATIONS
100
AcDbText
 10
4.5
 20
-2.6999999999999997
 30
0.0
 40
0.22
  1
P1 (50x50 cm) : 16 élément(s)
100
AcDbText
  0
TEXT
  5
145
330
17
100
AcDbEntity
  8
ANNOTATIONS
100
AcDbText
 10
4.5
 20
-3.0999999999999996
 30
0.0
 40
0.22
  1
P2 (35x35 cm) : 16 élément(s)
100
AcDbText
  0
TEXT
  5
146
330
17
100
AcDbEntity
  8
ANNOTATIONS
100
AcDbText
 10
4.5
 20
-3.5
 30
0.0
 40
0.22
  1
P3 (30x30 cm) : 4 élément(s)
100
AcDbText
  0
LINE
  5
148
330
17
100
AcDbEntity
  8
POUTRES
100
AcDbLine
 10
0.0
 20
0.0
 30
0.0
 11
7.5
 21
0.0
 31
0.0
  0
TEXT
  5
149
330
17
100
AcDbEntity
  8
POUTRES
100
AcDbText
 10
3.75
 20
0.15
 30
0.0
 40
0.15
  1
PX_0_0
100
AcDbText
  0
LINE
  5
14A
330
17
100
AcDbEntity
  8
POUTRES
100
AcDbLine
 10
7.5
 20
0.0
 30
0.0
 11
15.0
 21
0.0
 31
0.0
  0
TEXT
  5
14B
330
17
100
AcDbEntity
  8
POUTRES
100
AcDbText
 10
11.25
 20
0.15
 30
0.0
 40
0.15
  1
PX_1_0
100
AcDbText
  0
LINE
  5
14C
330
17
100
AcDbEntity
  8
POUTRES
100
AcDbLine
 10
15.0
 20
0.0
 30
0.0
 11
22.5
 21
0.0
 31
0.0
  0
TEXT
  5
14D
330
17
100
AcDbEntity
  8
POUTRES
100
AcDbText
 10
18.75
 20
0.15
 30
0.0
 40
0.15
  1
PX_2_0
100
AcDbText
  0
LINE
  5
14E
330
17
100
AcDbEntity
  8
POUTRES
100
AcDbLine
 10
22.5
 20
0.0
 30
0.0
 11
30.0
 21
0.0
 31
0.0
  0
TEXT
  5
14F
330
17
100
AcDbEntity
  8
POUTRES
100
AcDbText
 10
26.25
 20
0.15
 30
0.0
 40
0.15
  1
PX_3_0
100
AcDbText
  0
LINE
  5
150
330
17
100
AcDbEntity
  8
POUTRES
100
AcDbLine
 10
30.0
 20
0.0
 30
0.0
 11
37.5
 21
0.0
 31
0.0
  0
TEXT
  5
151
330
17
100
AcDbEntity
  8
POUTRES
100
AcDbText
 10
33.75
 20
0.15
 30
0.0
 40
0.15
  1
PX_4_0
100
AcDbText
  0
LINE
  5
152
330
17
100
AcDbEntity
  8
POUTRES
100
AcDbLine
 10
0.0
 20
8.5
 30
0.0
 11
7.5
 21
8.5
 31
0.0
  0
TEXT
  5
153
330
17
100
AcDbEntity
  8
POUTRES
100
AcDbText
 10
3.75
 20
8.65
 30
0.0
 40
0.15
  1
PX_0_1
100
AcDbText
  0
LINE
  5
154
330
17
100
AcDbEntity
  8
POUTRES
100
AcDbLine
 10
7.5
 20
8.5
 30
0.0
 11
15.0
 21
8.5
 31
0.0
  0
TEXT
  5
155
330
17
100
AcDbEntity
  8
POUTRES
100
AcDbText
 10
11.25
 20
8.65
 30
0.0
 40
0.15
  1
PX_1_1
100
AcDbText
  0
LINE
  5
156
330
17
100
AcDbEntity
  8
POUTRES
100
AcDbLine
 10
15.0
 20
8.5
 30
0.0
 11
22.5
 21
8.5
 31
0.0
  0
TEXT
  5
157
330
17
100
AcDbEntity
  8
POUTRES
100
AcDbText
 10
18.75
 20
8.65
 30
0.0
 40
0.15
  1
PX_2_1
100
AcDbText
  0
LINE
  5
158
330
17
100
AcDbEntity
  8
POUTRES
100
AcDbLine
 10
22.5
 20
8.5
 30
0.0
 11
30.0
 21
8.5
 31
0.0
  0
TEXT
  5
159
330
17
100
AcDbEntity
  8
POUTRES
100
AcDbText
 10
26.25
 20
8.65
 30
0.0
 40
0.15
  1
PX_3_1
100
AcDbText
  0
LINE
  5
15A
330
17
100
AcDbEntity
  8
POUTRES
100
AcDbLine
 10
30.0
 20
8.5
 30
0.0
 11
37.5
 21
8.5
 31
0.0
  0
TEXT
  5
15B
330
17
100
AcDbEntity
  8
POUTRES
100
AcDbText
 10
33.75
 20
8.65
 30
0.0
 40
0.15
  1
PX_4_1
100
AcDbText
  0
LINE
  5
15C
330
17
100
AcDbEntity
  8
POUTRES
100
AcDbLine
 10
0.0
 20
17.0
 30
0.0
 11
7.5
 21
17.0
 31
0.0
  0
TEXT
  5
15D
330
17
100
AcDbEntity
  8
POUTRES
100
AcDbText
 10
3.75
 20
17.15
 30
0.0
 40
0.15
  1
PX_0_2
100
AcDbText
  0
LINE
  5
15E
330
17
100
AcDbEntity
  8
POUTRES
100
AcDbLine
 10
7.5
 20
17.0
 30
0.0
 11
15.0
 21
17.0
 31
0.0
  0
TEXT
  5
15F
330
17
100
AcDbEntity
  8
POUTRES
100
AcDbText
 10
11.25
 20
17.15
 30
0.0
 40
0.15
  1
PX_1_2
100
AcDbText
  0
LINE
  5
160
330
17
100
AcDbEntity
  8
POUTRES
100
AcDbLine
 10
15.0
 20
17.0
 30
0.0
 11
22.5
 21
17.0
 31
0.0
  0
TEXT
  5
161
330
17
100
AcDbEntity
  8
POUTRES
100
AcDbText
 10
18.75
 20
17.15
 30
0.0
 40
0.15
  1
PX_2_2
100
AcDbText
  0
LINE
  5
162
330
17
100
AcDbEntity
  8
POUTRES
100
AcDbLine
 10
22.5
 20
17.0
 30
0.0
 11
30.0
 21
17.0
 31
0.0
  0
TEXT
  5
163
330
17
100
AcDbEntity
  8
POUTRES
100
AcDbText
 10
26.25
 20
17.15
 30
0.0
 40
0.15
  1
PX_3_2
100
AcDbText
  0
LINE
  5
164
330
17
100
AcDbEntity
  8
POUTRES
100
AcDbLine
 10
30.0
 20
17.0
 30
0.0
 11
37.5
 21
17.0
 31
0.0
  0
TEXT
  5
165
330
17
100
AcDbEntity
  8
POUTRES
100
AcDbText
 10
33.75
 20
17.15
 30
0.0
 40
0.15
  1
PX_4_2
100
AcDbText
  0
LINE
  5
166
330
17
100
AcDbEntity
  8
POUTRES
100
AcDbLine
 10
0.0
 20
25.5
 30
0.0
 11
7.5
 21
25.5
 31
0.0
  0
TEXT
  5
167
330
17
100
AcDbEntity
  8
POUTRES
100
AcDbText
 10
3.75
 20
25.65
 30
0.0
 40
0.15
  1
PX_0_3
100
AcDbText
  0
LINE
  5
168
330
17
100
AcDbEntity
  8
POUTRES
100
AcDbLine
 10
7.5
 20
25.5
 30
0.0
 11
15.0
 21
25.5
 31
0.0
  0
TEXT
  5
169
330
17
100
AcDbEntity
  8
POUTRES
100
AcDbText
 10
11.25
 20
25.65
 30
0.0
 40
0.15
  1
PX_1_3
100
AcDbText
  0
LINE
  5
16A
330
17
100
AcDbEntity
  8
POUTRES
100
AcDbLine
 10
15.0
 20
25.5
 30
0.0
 11
22.5
 21
25.5
 31
0.0
  0
TEXT
  5
16B
330
17
100
AcDbEntity
  8
POUTRES
100
AcDbText
 10
18.75
 20
25.65
 30
0.0
 40
0.15
  1
PX_2_3
100
AcDbText
  0
LINE
  5
16C
330
17
100
AcDbEntity
  8
POUTRES
100
AcDbLine
 10
22.5
 20
25.5
 30
0.0
 11
30.0
 21
25.5
 31
0.0
  0
TEXT
  5
16D
330
17
100
AcDbEntity
  8
POUTRES
100
AcDbText
 10
26.25
 20
25.65
 30
0.0
 40
0.15
  1
PX_3_3
100
AcDbText
  0
LINE
  5
16E
330
17
100
AcDbEntity
  8
POUTRES
100
AcDbLine
 10
30.0
 20
25.5
 30
0.0
 11
37.5
 21
25.5
 31
0.0
  0
TEXT
  5
16F
330
17
100
AcDbEntity
  8
POUTRES
100
AcDbText
 10
33.75
 20
25.65
 30
0.0
 40
0.15
  1
PX_4_3
100
AcDbText
  0
LINE
  5
170
330
17
100
AcDbEntity
  8
POUTRES
100
AcDbLine
 10
0.0
 20
34.0
 30
0.0
 11
7.5
 21
34.0
 31
0.0
  0
TEXT
  5
171
330
17
100
AcDbEntity
  8
POUTRES
100
AcDbText
 10
3.75
 20
34.15
 30
0.0
 40
0.15
  1
PX_0_4
100
AcDbText
  0
LINE
  5
172
330
17
100
AcDbEntity
  8
POUTRES
100
AcDbLine
 10
7.5
 20
34.0
 30
0.0
 11
15.0
 21
34.0
 31
0.0
  0
TEXT
  5
173
330
17
100
AcDbEntity
  8
POUTRES
100
AcDbText
 10
11.25
 20
34.15
 30
0.0
 40
0.15
  1
PX_1_4
100
AcDbText
  0
LINE
  5
174
330
17
100
AcDbEntity
  8
POUTRES
100
AcDbLine
 10
15.0
 20
34.0
 30
0.0
 11
22.5
 21
34.0
 31
0.0
  0
TEXT
  5
175
330
17
100
AcDbEntity
  8
POUTRES
100
AcDbText
 10
18.75
 20
34.15
 30
0.0
 40
0.15
  1
PX_2_4
100
AcDbText
  0
LINE
  5
176
330
17
100
AcDbEntity
  8
POUTRES
100
AcDbLine
 10
22.5
 20
34.0
 30
0.0
 11
30.0
 21
34.0
 31
0.0
  0
TEXT
  5
177
330
17
100
AcDbEntity
  8
POUTRES
100
AcDbText
 10
26.25
 20
34.15
 30
0.0
 40
0.15
  1
PX_3_4
100
AcDbText
  0
LINE
  5
178
330
17
100
AcDbEntity
  8
POUTRES
100
AcDbLine
 10
30.0
 20
34.0
 30
0.0
 11
37.5
 21
34.0
 31
0.0
  0
TEXT
  5
179
330
17
100
AcDbEntity
  8
POUTRES
100
AcDbText
 10
33.75
 20
34.15
 30
0.0
 40
0.15
  1
PX_4_4
100
AcDbText
  0
LINE
  5
17A
330
17
100
AcDbEntity
  8
POUTRES
100
AcDbLine
 10
0.0
 20
42.5
 30
0.0
 11
7.5
 21
42.5
 31
0.0
  0
TEXT
  5
17B
330
17
100
AcDbEntity
  8
POUTRES
100
AcDbText
 10
3.75
 20
42.65
 30
0.0
 40
0.15
  1
PX_0_5
100
AcDbText
  0
LINE
  5
17C
330
17
100
AcDbEntity
  8
POUTRES
100
AcDbLine
 10
7.5
 20
42.5
 30
0.0
 11
15.0
 21
42.5
 31
0.0
  0
TEXT
  5
17D
330
17
100
AcDbEntity
  8
POUTRES
100
AcDbText
 10
11.25
 20
42.65
 30
0.0
 40
0.15
  1
PX_1_5
100
AcDbText
  0
LINE
  5
17E
330
17
100
AcDbEntity
  8
POUTRES
100
AcDbLine
 10
15.0
 20
42.5
 30
0.0
 11
22.5
 21
42.5
 31
0.0
  0
TEXT
  5
17F
330
17
100
AcDbEntity
  8
POUTRES
100
AcDbText
 10
18.75
 20
42.65
 30
0.0
 40
0.15
  1
PX_2_5
100
AcDbText
  0
LINE
  5
180
330
17
100
AcDbEntity
  8
POUTRES
100
AcDbLine
 10
22.5
 20
42.5
 30
0.0
 11
30.0
 21
42.5
 31
0.0
  0
TEXT
  5
181
330
17
100
AcDbEntity
  8
POUTRES
100
AcDbText
 10
26.25
 20
42.65
 30
0.0
 40
0.15
  1
PX_3_5
100
AcDbText
  0
LINE
  5
182
330
17
100
AcDbEntity
  8
POUTRES
100
AcDbLine
 10
30.0
 20
42.5
 30
0.0
 11
37.5
 21
42.5
 31
0.0
  0
TEXT
  5
183
330
17
100
AcDbEntity
  8
POUTRES
100
AcDbText
 10
33.75
 20
42.65
 30
0.0
 40
0.15
  1
PX_4_5
100
AcDbText
  0
LINE
  5
184
330
17
100
AcDbEntity
  8
POUTRES
100
AcDbLine
 10
0.0
 20
0.0
 30
0.0
 11
0.0
 21
8.5
 31
0.0
  0
TEXT
  5
185
330
17
100
AcDbEntity
  8
POUTRES
100
AcDbText
 10
0.0
 20
4.4
 30
0.0
 40
0.15
  1
PY_0_0
100
AcDbText
  0
LINE
  5
186
330
17
100
AcDbEntity
  8
POUTRES
100
AcDbLine
 10
0.0
 20
8.5
 30
0.0
 11
0.0
 21
17.0
 31
0.0
  0
TEXT
  5
187
330
17
100
AcDbEntity
  8
POUTRES
100
AcDbText
 10
0.0
 20
12.9
 30
0.0
 40
0.15
  1
PY_0_1
100
AcDbText
  0
LINE
  5
188
330
17
100
AcDbEntity
  8
POUTRES
100
AcDbLine
 10
0.0
 20
17.0
 30
0.0
 11
0.0
 21
25.5
 31
0.0
  0
TEXT
  5
189
330
17
100
AcDbEntity
  8
POUTRES
100
AcDbText
 10
0.0
 20
21.4
 30
0.0
 40
0.15
  1
PY_0_2
100
AcDbText
  0
LINE
  5
18A
330
17
100
AcDbEntity
  8
POUTRES
100
AcDbLine
 10
0.0
 20
25.5
 30
0.0
 11
0.0
 21
34.0
 31
0.0
  0
TEXT
  5
18B
330
17
100
AcDbEntity
  8
POUTRES
100
AcDbText
 10
0.0
 20
29.9
 30
0.0
 40
0.15
  1
PY_0_3
100
AcDbText
  0
LINE
  5
18C
330
17
100
AcDbEntity
  8
POUTRES
100
AcDbLine
 10
0.0
 20
34.0
 30
0.0
 11
0.0
 21
42.5
 31
0.0
  0
TEXT
  5
18D
330
17
100
AcDbEntity
  8
POUTRES
100
AcDbText
 10
0.0
 20
38.4
 30
0.0
 40
0.15
  1
PY_0_4
100
AcDbText
  0
LINE
  5
18E
330
17
100
AcDbEntity
  8
POUTRES
100
AcDbLine
 10
7.5
 20
0.0
 30
0.0
 11
7.5
 21
8.5
 31
0.0
  0
TEXT
  5
18F
330
17
100
AcDbEntity
  8
POUTRES
100
AcDbText
 10
7.5
 20
4.4
 30
0.0
 40
0.15
  1
PY_1_0
100
AcDbText
  0
LINE
  5
190
330
17
100
AcDbEntity
  8
POUTRES
100
AcDbLine
 10
7.5
 20
8.5
 30
0.0
 11
7.5
 21
17.0
 31
0.0
  0
TEXT
  5
191
330
17
100
AcDbEntity
  8
POUTRES
100
AcDbText
 10
7.5
 20
12.9
 30
0.0
 40
0.15
  1
PY_1_1
100
AcDbText
  0
LINE
  5
192
330
17
100
AcDbEntity
  8
POUTRES
100
AcDbLine
 10
7.5
 20
17.0
 30
0.0
 11
7.5
 21
25.5
 31
0.0
  0
TEXT
  5
193
330
17
100
AcDbEntity
  8
POUTRES
100
AcDbText
 10
7.5
 20
21.4
 30
0.0
 40
0.15
  1
PY_1_2
100
AcDbText
  0
LINE
  5
194
330
17
100
AcDbEntity
  8
POUTRES
100
AcDbLine
 10
7.5
 20
25.5
 30
0.0
 11
7.5
 21
34.0
 31
0.0
  0
TEXT
  5
195
330
17
100
AcDbEntity
  8
POUTRES
100
AcDbText
 10
7.5
 20
29.9
 30
0.0
 40
0.15
  1
PY_1_3
100
AcDbText
  0
LINE
  5
196
330
17
100
AcDbEntity
  8
POUTRES
100
AcDbLine
 10
7.5
 20
34.0
 30
0.0
 11
7.5
 21
42.5
 31
0.0
  0
TEXT
  5
197
330
17
100
AcDbEntity
  8
POUTRES
100
AcDbText
 10
7.5
 20
38.4
 30
0.0
 40
0.15
  1
PY_1_4
100
AcDbText
  0
LINE
  5
198
330
17
100
AcDbEntity
  8
POUTRES
100
AcDbLine
 10
15.0
 20
0.0
 30
0.0
 11
15.0
 21
8.5
 31
0.0
  0
TEXT
  5
199
330
17
100
AcDbEntity
  8
POUTRES
100
AcDbText
 10
15.0
 20
4.4
 30
0.0
 40
0.15
  1
PY_2_0
100
AcDbText
  0
LINE
  5
19A
330
17
100
AcDbEntity
  8
POUTRES
100
AcDbLine
 10
15.0
 20
8.5
 30
0.0
 11
15.0
 21
17.0
 31
0.0
  0
TEXT
  5
19B
330
17
100
AcDbEntity
  8
POUTRES
100
AcDbText
 10
15.0
 20
12.9
 30
0.0
 40
0.15
  1
PY_2_1
100
AcDbText
  0
LINE
  5
19C
330
17
100
AcDbEntity
  8
POUTRES
100
AcDbLine
 10
15.0
 20
17.0
 30
0.0
 11
15.0
 21
25.5
 31
0.0
  0
TEXT
  5
19D
330
17
100
AcDbEntity
  8
POUTRES
100
AcDbText
 10
15.0
 20
21.4
 30
0.0
 40
0.15
  1
PY_2_2
100
AcDbText
  0
LINE
  5
19E
330
17
100
AcDbEntity
  8
POUTRES
100
AcDbLine
 10
15.0
 20
25.5
 30
0.0
 11
15.0
 21
34.0
 31
0.0
  0
TEXT
  5
19F
330
17
100
AcDbEntity
  8
POUTRES
100
AcDbText
 10
15.0
 20
29.9
 30
0.0
 40
0.15
  1
PY_2_3
100
AcDbText
  0
LINE
  5
1A0
330
17
100
AcDbEntity
  8
POUTRES
100
AcDbLine
 10
15.0
 20
34.0
 30
0.0
 11
15.0
 21
42.5
 31
0.0
  0
TEXT
  5
1A1
330
17
100
AcDbEntity
  8
POUTRES
100
AcDbText
 10
15.0
 20
38.4
 30
0.0
 40
0.15
  1
PY_2_4
100
AcDbText
  0
LINE
  5
1A2
330
17
100
AcDbEntity
  8
POUTRES
100
AcDbLine
 10
22.5
 20
0.0
 30
0.0
 11
22.5
 21
8.5
 31
0.0
  0
TEXT
  5
1A3
330
17
100
AcDbEntity
  8
POUTRES
100
AcDbText
 10
22.5
 20
4.4
 30
0.0
 40
0.15
  1
PY_3_0
100
AcDbText
  0
LINE
  5
1A4
330
17
100
AcDbEntity
  8
POUTRES
100
AcDbLine
 10
22.5
 20
8.5
 30
0.0
 11
22.5
 21
17.0
 31
0.0
  0
TEXT
  5
1A5
330
17
100
AcDbEntity
  8
POUTRES
100
AcDbText
 10
22.5
 20
12.9
 30
0.0
 40
0.15
  1
PY_3_1
100
AcDbText
  0
LINE
  5
1A6
330
17
100
AcDbEntity
  8
POUTRES
100
AcDbLine
 10
22.5
 20
17.0
 30
0.0
 11
22.5
 21
25.5
 31
0.0
  0
TEXT
  5
1A7
330
17
100
AcDbEntity
  8
POUTRES
100
AcDbText
 10
22.5
 20
21.4
 30
0.0
 40
0.15
  1
PY_3_2
100
AcDbText
  0
LINE
  5
1A8
330
17
100
AcDbEntity
  8
POUTRES
100
AcDbLine
 10
22.5
 20
25.5
 30
0.0
 11
22.5
 21
34.0
 31
0.0
  0
TEXT
  5
1A9
330
17
100
AcDbEntity
  8
POUTRES
100
AcDbText
 10
22.5
 20
29.9
 30
0.0
 40
0.15
  1
PY_3_3
100
AcDbText
  0
LINE
  5
1AA
330
17
100
AcDbEntity
  8
POUTRES
100
AcDbLine
 10
22.5
 20
34.0
 30
0.0
 11
22.5
 21
42.5
 31
0.0
  0
TEXT
  5
1AB
330
17
100
AcDbEntity
  8
POUTRES
100
AcDbText
 10
22.5
 20
38.4
 30
0.0
 40
0.15
  1
PY_3_4
100
AcDbText
  0
LINE
  5
1AC
330
17
100
AcDbEntity
  8
POUTRES
100
AcDbLine
 10
30.0
 20
0.0
 30
0.0
 11
30.0
 21
8.5
 31
0.0
  0
TEXT
  5
1AD
330
17
100
AcDbEntity
  8
POUTRES
100
AcDbText
 10
30.0
 20
4.4
 30
0.0
 40
0.15
  1
PY_4_0
100
AcDbText
  0
LINE
  5
1AE
330
17
100
AcDbEntity
  8
POUTRES
100
AcDbLine
 10
30.0
 20
8.5
 30
0.0
 11
30.0
 21
17.0
 31
0.0
  0
TEXT
  5
1AF
330
17
100
AcDbEntity
  8
POUTRES
100
AcDbText
 10
30.0
 20
12.9
 30
0.0
 40
0.15
  1
PY_4_1
100
AcDbText
  0
LINE
  5
1B0
330
17
100
AcDbEntity
  8
POUTRES
100
AcDbLine
 10
30.0
 20
17.0
 30
0.0
 11
30.0
 21
25.5
 31
0.0
  0
TEXT
  5
1B1
330
17
100
AcDbEntity
  8
POUTRES
100
AcDbText
 10
30.0
 20
21.4
 30
0.0
 40
0.15
  1
PY_4_2
100
AcDbText
  0
LINE
  5
1B2
330
17
100
AcDbEntity
  8
POUTRES
100
AcDbLine
 10
30.0
 20
25.5
 30
0.0
 11
30.0
 21
34.0
 31
0.0
  0
TEXT
  5
1B3
330
17
100
AcDbEntity
  8
POUTRES
100
AcDbText
 10
30.0
 20
29.9
 30
0.0
 40
0.15
  1
PY_4_3
100
AcDbText
  0
LINE
  5
1B4
330
17
100
AcDbEntity
  8
POUTRES
100
AcDbLine
 10
30.0
 20
34.0
 30
0.0
 11
30.0
 21
42.5
 31
0.0
  0
TEXT
  5
1B5
330
17
100
AcDbEntity
  8
POUTRES
100
AcDbText
 10
30.0
 20
38.4
 30
0.0
 40
0.15
  1
PY_4_4
100
AcDbText
  0
LINE
  5
1B6
330
17
100
AcDbEntity
  8
POUTRES
100
AcDbLine
 10
37.5
 20
0.0
 30
0.0
 11
37.5
 21
8.5
 31
0.0
  0
TEXT
  5
1B7
330
17
100
AcDbEntity
  8
POUTRES
100
AcDbText
 10
37.5
 20
4.4
 30
0.0
 40
0.15
  1
PY_5_0
100
AcDbText
  0
LINE
  5
1B8
330
17
100
AcDbEntity
  8
POUTRES
100
AcDbLine
 10
37.5
 20
8.5
 30
0.0
 11
37.5
 21
17.0
 31
0.0
  0
TEXT
  5
1B9
330
17
100
AcDbEntity
  8
POUTRES
100
AcDbText
 10
37.5
 20
12.9
 30
0.0
 40
0.15
  1
PY_5_1
100
AcDbText
  0
LINE
  5
1BA
330
17
100
AcDbEntity
  8
POUTRES
100
AcDbLine
 10
37.5
 20
17.0
 30
0.0
 11
37.5
 21
25.5
 31
0.0
  0
TEXT
  5
1BB
330
17
100
AcDbEntity
  8
POUTRES
100
AcDbText
 10
37.5
 20
21.4
 30
0.0
 40
0.15
  1
PY_5_2
100
AcDbText
  0
LINE
  5
1BC
330
17
100
AcDbEntity
  8
POUTRES
100
AcDbLine
 10
37.5
 20
25.5
 30
0.0
 11
37.5
 21
34.0
 31
0.0
  0
TEXT
  5
1BD
330
17
100
AcDbEntity
  8
POUTRES
100
AcDbText
 10
37.5
 20
29.9
 30
0.0
 40
0.15
  1
PY_5_3
100
AcDbText
  0
LINE
  5
1BE
330
17
100
AcDbEntity
  8
POUTRES
100
AcDbLine
 10
37.5
 20
34.0
 30
0.0
 11
37.5
 21
42.5
 31
0.0
  0
TEXT
  5
1BF
330
17
100
AcDbEntity
  8
POUTRES
100
AcDbText
 10
37.5
 20
38.4
 30
0.0
 40
0.15
  1
PY_5_4
100
AcDbText
  0
TEXT
  5
1C0
330
17
100
AcDbEntity
  8
DALLAGE
100
AcDbText
 10
-0.2
 20
-0.7
 30
0.0
 40
0.3
  1
Dallage e=34 cm (BAEL 91, pré-dim.)
100
AcDbText
  0
LINE
  5
1C3
330
17
100
AcDbEntity
  8
JOINTS_DILATATION
370
35
100
AcDbLine
 10
18.75
 20
-0.2
 30
0.0
 11
18.75
 21
42.7
 31
0.0
  0
TEXT
  5
1C4
330
17
100
AcDbEntity
  8
JOINTS_DILATATION
100
AcDbText
 10
18.9
 20
21.4
 30
0.0
 40
0.2
  1
JOINT DE DILATATION
100
AcDbText
  0
LINE
  5
1C5
330
17
100
AcDbEntity
  8
JOINTS_DILATATION
370
35
100
AcDbLine
 10
-0.2
 20
21.25
 30
0.0
 11
37.7
 21
21.25
 31
0.0
  0
TEXT
  5
1C6
330
17
100
AcDbEntity
  8
JOINTS_DILATATION
100
AcDbText
 10
18.9
 20
21.4
 30
0.0
 40
0.2
  1
JOINT DE DILATATION
100
AcDbText
  0
DIMENSION
  5
1C8
330
17
100
AcDbEntity
  8
COTATIONS
100
AcDbDimension
280
0
  2
*D1
  3
Standard
 10
0.0
 20
0.8
 30
0.0
 11
3.75
 21
0.8
 31
0.0
 70
32
 71
5
  1
<>
100
AcDbAlignedDimension
 13
0.0
 23
0.0
 33
0.0
 14
7.5
 24
0.0
 34
0.0
 50
0.0
100
AcDbRotatedDimension
  0
DIMENSION
  5
1DC
330
17
100
AcDbEntity
  8
COTATIONS
100
AcDbDimension
280
0
  2
*D2
  3
Standard
 10
-0.8
 20
0.0
 30
0.0
 11
-0.8
 21
4.25
 31
0.0
 70
32
 71
5
  1
<>
100
AcDbAlignedDimension
 13
0.0
 23
0.0
 33
0.0
 14
0.0
 24
8.5
 34
0.0
 50
90.0
100
AcDbRotatedDimension
  0
DIMENSION
  5
1EC
330
17
100
AcDbEntity
  8
COTATIONS
100
AcDbDimension
280
0
  2
*D3
  3
Standard
 10
0.0
 20
9.3
 30
0.0
 11
3.75
 21
9.3
 31
0.0
 70
32
 71
5
  1
<>
100
AcDbAlignedDimension
 13
0.0
 23
8.5
 33
0.0
 14
7.5
 24
8.5
 34
0.0
 50
0.0
100
AcDbRotatedDimension
  0
DIMENSION
  5
1FC
330
17
100
AcDbEntity
  8
COTATIONS
100
AcDbDimension
280
0
  2
*D4
  3
Standard
 10
-0.8
 20
8.5
 30
0.0
 11
-0.8
 21
12.75
 31
0.0
 70
32
 71
5
  1
<>
100
AcDbAlignedDimension
 13
0.0
 23
8.5
 33
0.0
 14
0.0
 24
17.0
 34
0.0
 50
90.0
100
AcDbRotatedDimension
  0
DIMENSION
  5
20C
330
17
100
AcDbEntity
  8
COTATIONS
100
AcDbDimension
280
0
  2
*D5
  3
Standard
 10
0.0
 20
17.8
 30
0.0
 11
3.75
 21
17.8
 31
0.0
 70
32
 71
5
  1
<>
100
AcDbAlignedDimension
 13
0.0
 23
17.0
 33
0.0
 14
7.5
 24
17.0
 34
0.0
 50
0.0
100
AcDbRotatedDimension
  0
DIMENSION
  5
21C
330
17
100
AcDbEntity
  8
COTATIONS
100
AcDbDimension
280
0
  2
*D6
  3
Standard
 10
-0.8
 20
17.0
 30
0.0
 11
-0.8
 21
21.25
 31
0.0
 70
32
 71
5
  1
<>
100
AcDbAlignedDimension
 13
0.0
 23
17.0
 33
0.0
 14
0.0
 24
25.5
 34
0.0
 50
90.0
100
AcDbRotatedDimension
  0
DIMENSION
  5
22C
330
17
100
AcDbEntity
  8
COTATIONS
100
AcDbDimension
280
0
  2
*D7
  3
Standard
 10
0.0
 20
26.3
 30
0.0
 11
3.75
 21
26.3
 31
0.0
 70
32
 71
5
  1
<>
100
AcDbAlignedDimension
 13
0.0
 23
25.5
 33
0.0
 14
7.5
 24
25.5
 34
0.0
 50
0.0
100
AcDbRotatedDimension
  0
DIMENSION
  5
23C
330
17
100
AcDbEntity
  8
COTATIONS
100
AcDbDimension
280
0
  2
*D8
  3
Standard
 10
-0.8
 20
25.5
 30
0.0
 11
-0.8
 21
29.75
 31
0.0
 70
32
 71
5
  1
<>
100
AcDbAlignedDimension
 13
0.0
 23
25.5
 33
0.0
 14
0.0
 24
34.0
 34
0.0
 50
90.0
100
AcDbRotatedDimension
  0
DIMENSION
  5
24C
330
17
100
AcDbEntity
  8
COTATIONS
100
AcDbDimension
280
0
  2
*D9
  3
Standard
 10
0.0
 20
34.8
 30
0.0
 11
3.75
 21
34.8
 31
0.0
 70
32
 71
5
  1
<>
100
AcDbAlignedDimension
 13
0.0
 23
34.0
 33
0.0
 14
7.5
 24
34.0
 34
0.0
 50
0.0
100
AcDbRotatedDimension
  0
DIMENSION
  5
25C
330
17
100
AcDbEntity
  8
COTATIONS
100
AcDbDimension
280
0
  2
*D10
  3
Standard
 10
-0.8
 20
34.0
 30
0.0
 11
-0.8
 21
38.25
 31
0.0
 70
32
 71
5
  1
<>
100
AcDbAlignedDimension
 13
0.0
 23
34.0
 33
0.0
 14
0.0
 24
42.5
 34
0.0
 50
90.0
100
AcDbRotatedDimension
  0
DIMENSION
  5
26C
330
17
100
AcDbEntity
  8
COTATIONS
100
AcDbDimension
280
0
  2
*D11
  3
Standard
 10
0.0
 20
43.3
 30
0.0
 11
3.75
 21
43.3
 31
0.0
 70
32
 71
5
  1
<>
100
AcDbAlignedDimension
 13
0.0
 23
42.5
 33
0.0
 14
7.5
 24
42.5
 34
0.0
 50
0.0
100
AcDbRotatedDimension
  0
DIMENSION
  5
27C
330
17
100
AcDbEntity
  8
COTATIONS
100
AcDbDimension
280
0
  2
*D12
  3
Standard
 10
7.5
 20
0.8
 30
0.0
 11
11.25
 21
0.8
 31
0.0
 70
32
 71
5
  1
<>
100
AcDbAlignedDimension
 13
7.5
 23
0.0
 33
0.0
 14
15.0
 24
0.0
 34
0.0
 50
0.0
100
AcDbRotatedDimension
  0
DIMENSION
  5
28C
330
17
100
AcDbEntity
  8
COTATIONS
100
AcDbDimension
280
0
  2
*D13
  3
Standard
 10
6.7
 20
0.0
 30
0.0
 11
6.7
 21
4.25
 31
0.0
 70
32
 71
5
  1
<>
100
AcDbAlignedDimension
 13
7.5
 23
0.0
 33
0.0
 14
7.5
 24
8.5
 34
0.0
 50
90.0
100
AcDbRotatedDimension
  0
DIMENSION
  5
29C
330
17
100
AcDbEntity
  8
COTATIONS
100
AcDbDimension
280
0
  2
*D14
  3
Standard
 10
7.5
 20
9.3
 30
0.0
 11
11.25
 21
9.3
 31
0.0
 70
32
 71
5
  1
<>
100
AcDbAlignedDimension
 13
7.5
 23
8.5
 33
0.0
 14
15.0
 24
8.5
 34
0.0
 50
0.0
100
AcDbRotatedDimension
  0
DIMENSION
  5
2AC
330
17
100
AcDbEntity
  8
COTATIONS
100
AcDbDimension
280
0
  2
*D15
  3
Standard
 10
6.7
 20
8.5
 30
0.0
 11
6.7
 21
12.75
 31
0.0
 70
32
 71
5
  1
<>
100
AcDbAlignedDimension
 13
7.5
 23
8.5
 33
0.0
 14
7.5
 24
17.0
 34
0.0
 50
90.0
100
AcDbRotatedDimension
  0
DIMENSION
  5
2BC
330
17
100
AcDbEntity
  8
COTATIONS
100
AcDbDimension
280
0
  2
*D16
  3
Standard
 10
7.5
 20
17.8
 30
0.0
 11
11.25
 21
17.8
 31
0.0
 70
32
 71
5
  1
<>
100
AcDbAlignedDimension
 13
7.5
 23
17.0
 33
0.0
 14
15.0
 24
17.0
 34
0.0
 50
0.0
100
AcDbRotatedDimension
  0
DIMENSION
  5
2CC
330
17
100
AcDbEntity
  8
COTATIONS
100
AcDbDimension
280
0
  2
*D17
  3
Standard
 10
6.7
 20
17.0
 30
0.0
 11
6.7
 21
21.25
 31
0.0
 70
32
 71
5
  1
<>
100
AcDbAlignedDimension
 13
7.5
 23
17.0
 33
0.0
 14
7.5
 24
25.5
 34
0.0
 50
90.0
100
AcDbRotatedDimension
  0
DIMENSION
  5
2DC
330
17
100
AcDbEntity
  8
COTATIONS
100
AcDbDimension
280
0
  2
*D18
  3
Standard
 10
7.5
 20
26.3
 30
0.0
 11
11.25
 21
26.3
 31
0.0
 70
32
 71
5
  1
<>
100
AcDbAlignedDimension
 13
7.5
 23
25.5
 33
0.0
 14
15.0
 24
25.5
 34
0.0
 50
0.0
100
AcDbRotatedDimension
  0
DIMENSION
  5
2EC
330
17
100
AcDbEntity
  8
COTATIONS
100
AcDbDimension
280
0
  2
*D19
  3
Standard
 10
6.7
 20
25.5
 30
0.0
 11
6.7
 21
29.75
 31
0.0
 70
32
 71
5
  1
<>
100
AcDbAlignedDimension
 13
7.5
 23
25.5
 33
0.0
 14
7.5
 24
34.0
 34
0.0
 50
90.0
100
AcDbRotatedDimension
  0
DIMENSION
  5
2FC
330
17
100
AcDbEntity
  8
COTATIONS
100
AcDbDimension
280
0
  2
*D20
  3
Standard
 10
7.5
 20
34.8
 30
0.0
 11
11.25
 21
34.8
 31
0.0
 70
32
 71
5
  1
<>
100
AcDbAlignedDimension
 13
7.5
 23
34.0
 33
0.0
 14
15.0
 24
34.0
 34
0.0
 50
0.0
100
AcDbRotatedDimension
  0
DIMENSION
  5
30C
330
17
100
AcDbEntity
  8
COTATIONS
100
AcDbDimension
280
0
  2
*D21
  3
Standard
 10
6.7
 20
34.0
 30
0.0
 11
6.7
 21
38.25
 31
0.0
 70
32
 71
5
  1
<>
100
AcDbAlignedDimension
 13
7.5
 23
34.0
 33
0.0
 14
7.5
 24
42.5
 34
0.0
 50
90.0
100
AcDbRotatedDimension
  0
DIMENSION
  5
31C
330
17
100
AcDbEntity
  8
COTATIONS
100
AcDbDimension
280
0
  2
*D22
  3
Standard
 10
7.5
 20
43.3
 30
0.0
 11
11.25
 21
43.3
 31
0.0
 70
32
 71
5
  1
<>
100
AcDbAlignedDimension
 13
7.5
 23
42.5
 33
0.0
 14
15.0
 24
42.5
 34
0.0
 50
0.0
100
AcDbRotatedDimension
  0
DIMENSION
  5
32C
330
17
100
AcDbEntity
  8
COTATIONS
100
AcDbDimension
280
0
  2
*D23
  3
Standard
 10
15.0
 20
0.8
 30
0.0
 11
18.75
 21
0.8
 31
0.0
 70
32
 71
5
  1
<>
100
AcDbAlignedDimension
 13
15.0
 23
0.0
 33
0.0
 14
22.5
 24
0.0
 34
0.0
 50
0.0
100
AcDbRotatedDimension
  0
DIMENSION
  5
33C
330
17
100
AcDbEntity
  8
COTATIONS
100
AcDbDimension
280
0
  2
*D24
  3
Standard
 10
14.2
 20
0.0
 30
0.0
 11
14.2
 21
4.25
 31
0.0
 70
32
 71
5
  1
<>
100
AcDbAlignedDimension
 13
15.0
 23
0.0
 33
0.0
 14
15.0
 24
8.5
 34
0.0
 50
90.0
100
AcDbRotatedDimension
  0
DIMENSION
  5
34C
330
17
100
AcDbEntity
  8
COTATIONS
100
AcDbDimension
280
0
  2
*D25
  3
Standard
 10
15.0
 20
9.3
 30
0.0
 11
18.75
 21
9.3
 31
0.0
 70
32
 71
5
  1
<>
100
AcDbAlignedDimension
 13
15.0
 23
8.5
 33
0.0
 14
22.5
 24
8.5
 34
0.0
 50
0.0
100
AcDbRotatedDimension
  0
DIMENSION
  5
35C
330
17
100
AcDbEntity
  8
COTATIONS
100
AcDbDimension
280
0
  2
*D26
  3
Standard
 10
14.2
 20
8.5
 30
0.0
 11
14.2
 21
12.75
 31
0.0
 70
32
 71
5
  1
<>
100
AcDbAlignedDimension
 13
15.0
 23
8.5
 33
0.0
 14
15.0
 24
17.0
 34
0.0
 50
90.0
100
AcDbRotatedDimension
  0
DIMENSION
  5
36C
330
17
100
AcDbEntity
  8
COTATIONS
100
AcDbDimension
280
0
  2
*D27
  3
Standard
 10
15.0
 20
17.8
 30
0.0
 11
18.75
 21
17.8
 31
0.0
 70
32
 71
5
  1
<>
100
AcDbAlignedDimension
 13
15.0
 23
17.0
 33
0.0
 14
22.5
 24
17.0
 34
0.0
 50
0.0
100
AcDbRotatedDimension
  0
DIMENSION
  5
37C
330
17
100
AcDbEntity
  8
COTATIONS
100
AcDbDimension
280
0
  2
*D28
  3
Standard
 10
14.2
 20
17.0
 30
0.0
 11
14.2
 21
21.25
 31
0.0
 70
32
 71
5
  1
<>
100
AcDbAlignedDimension
 13
15.0
 23
17.0
 33
0.0
 14
15.0
 24
25.5
 34
0.0
 50
90.0
100
AcDbRotatedDimension
  0
DIMENSION
  5
38C
330
17
100
AcDbEntity
  8
COTATIONS
100
AcDbDimension
280
0
  2
*D29
  3
Standard
 10
15.0
 20
26.3
 30
0.0
 11
18.75
 21
26.3
 31
0.0
 70
32
 71
5
  1
<>
100
AcDbAlignedDimension
 13
15.0
 23
25.5
 33
0.0
 14
22.5
 24
25.5
 34
0.0
 50
0.0
100
AcDbRotatedDimension
  0
DIMENSION
  5
39C
330
17
100
AcDbEntity
  8
COTATIONS
100
AcDbDimension
280
0
  2
*D30
  3
Standard
 10
14.2
 20
25.5
 30
0.0
 11
14.2
 21
29.75
 31
0.0
 70
32
 71
5
  1
<>
100
AcDbAlignedDimension
 13
15.0
 23
25.5
 33
0.0
 14
15.0
 24
34.0
 34
0.0
 50
90.0
100
AcDbRotatedDimension
  0
DIMENSION
  5
3AC
330
17
100
AcDbEntity
  8
COTATIONS
100
AcDbDimension
280
0
  2
*D31
  3
Standard
 10
15.0
 20
34.8
 30
0.0
 11
18.75
 21
34.8
 31
0.0
 70
32
 71
5
  1
<>
100
AcDbAlignedDimension
 13
15.0
 23
34.0
 33
0.0
 14
22.5
 24
34.0
 34
0.0
 50
0.0
100
AcDbRotatedDimension
  0
DIMENSION
  5
3BC
330
17
100
AcDbEntity
  8
COTATIONS
100
AcDbDimension
280
0
  2
*D32
  3
Standard
 10
14.2
 20
34.0
 30
0.0
 11
14.2
 21
38.25
 31
0.0
 70
32
 71
5
  1
<>
100
AcDbAlignedDimension
 13
15.0
 23
34.0
 33
0.0
 14
15.0
 24
42.5
 34
0.0
 50
90.0
100
AcDbRotatedDimension
  0
DIMENSION
  5
3CC
330
17
100
AcDbEntity
  8
COTATIONS
100
AcDbDimension
280
0
  2
*D33
  3
Standard
 10
15.0
 20
43.3
 30
0.0
 11
18.75
 21
43.3
 31
0.0
 70
32
 71
5
  1
<>
100
AcDbAlignedDimension
 13
15.0
 23
42.5
 33
0.0
 14
22.5
 24
42.5
 34
0.0
 50
0.0
100
AcDbRotatedDimension
  0
DIMENSION
  5
3DC
330
17
100
AcDbEntity
  8
COTATIONS
100
AcDbDimension
280
0
  2
*D34
  3
Standard
 10
22.5
 20
0.8
 30
0.0
 11
26.25
 21
0.8
 31
0.0
 70
32
 71
5
  1
<>
100
AcDbAlignedDimension
 13
22.5
 23
0.0
 33
0.0
 14
30.0
 24
0.0
 34
0.0
 50
0.0
100
AcDbRotatedDimension
  0
DIMENSION
  5
3EC
330
17
100
AcDbEntity
  8
COTATIONS
100
AcDbDimension
280
0
  2
*D35
  3
Standard
 10
21.7
 20
0.0
 30
0.0
 11
21.7
 21
4.25
 31
0.0
 70
32
 71
5
  1
<>
100
AcDbAlignedDimension
 13
22.5
 23
0.0
 33
0.0
 14
22.5
 24
8.5
 34
0.0
 50
90.0
100
AcDbRotatedDimension
  0
DIMENSION
  5
3FC
330
17
100
AcDbEntity
  8
COTATIONS
100
AcDbDimension
280
0
  2
*D36
  3
Standard
 10
22.5
 20
9.3
 30
0.0
 11
26.25
 21
9.3
 31
0.0
 70
32
 71
5
  1
<>
100
AcDbAlignedDimension
 13
22.5
 23
8.5
 33
0.0
 14
30.0
 24
8.5
 34
0.0
 50
0.0
100
AcDbRotatedDimension
  0
DIMENSION
  5
40C
330
17
100
AcDbEntity
  8
COTATIONS
100
AcDbDimension
280
0
  2
*D37
  3
Standard
 10
21.7
 20
8.5
 30
0.0
 11
21.7
 21
12.75
 31
0.0
 70
32
 71
5
  1
<>
100
AcDbAlignedDimension
 13
22.5
 23
8.5
 33
0.0
 14
22.5
 24
17.0
 34
0.0
 50
90.0
100
AcDbRotatedDimension
  0
DIMENSION
  5
41C
330
17
100
AcDbEntity
  8
COTATIONS
100
AcDbDimension
280
0
  2
*D38
  3
Standard
 10
22.5
 20
17.8
 30
0.0
 11
26.25
 21
17.8
 31
0.0
 70
32
 71
5
  1
<>
100
AcDbAlignedDimension
 13
22.5
 23
17.0
 33
0.0
 14
30.0
 24
17.0
 34
0.0
 50
0.0
100
AcDbRotatedDimension
  0
DIMENSION
  5
42C
330
17
100
AcDbEntity
  8
COTATIONS
100
AcDbDimension
280
0
  2
*D39
  3
Standard
 10
21.7
 20
17.0
 30
0.0
 11
21.7
 21
21.25
 31
0.0
 70
32
 71
5
  1
<>
100
AcDbAlignedDimension
 13
22.5
 23
17.0
 33
0.0
 14
22.5
 24
25.5
 34
0.0
 50
90.0
100
AcDbRotatedDimension
  0
DIMENSION
  5
43C
330
17
100
AcDbEntity
  8
COTATIONS
100
AcDbDimension
280
0
  2
*D40
  3
Standard
 10
22.5
 20
26.3
 30
0.0
 11
26.25
 21
26.3
 31
0.0
 70
32
 71
5
  1
<>
100
AcDbAlignedDimension
 13
22.5
 23
25.5
 33
0.0
 14
30.0
 24
25.5
 34
0.0
 50
0.0
100
AcDbRotatedDimension
  0
DIMENSION
  5
44C
330
17
100
AcDbEntity
  8
COTATIONS
100
AcDbDimension
280
0
  2
*D41
  3
Standard
 10
21.7
 20
25.5
 30
0.0
 11
21.7
 21
29.75
 31
0.0
 70
32
 71
5
  1
<>
100
AcDbAlignedDimension
 13
22.5
 23
25.5
 33
0.0
 14
22.5
 24
34.0
 34
0.0
 50
90.0
100
AcDbRotatedDimension
  0
DIMENSION
  5
45C
330
17
100
AcDbEntity
  8
COTATIONS
100
AcDbDimension
280
0
  2
*D42
  3
Standard
 10
22.5
 20
34.8
 30
0.0
 11
26.25
 21
34.8
 31
0.0
 70
32
 71
5
  1
<>
100
AcDbAlignedDimension
 13
22.5
 23
34.0
 33
0.0
 14
30.0
 24
34.0
 34
0.0
 50
0.0
100
AcDbRotatedDimension
  0
DIMENSION
  5
46C
330
17
100
AcDbEntity
  8
COTATIONS
100
AcDbDimension
280
0
  2
*D43
  3
Standard
 10
21.7
 20
34.0
 30
0.0
 11
21.7
 21
38.25
 31
0.0
 70
32
 71
5
  1
<>
100
AcDbAlignedDimension
 13
22.5
 23
34.0
 33
0.0
 14
22.5
 24
42.5
 34
0.0
 50
90.0
100
AcDbRotatedDimension
  0
DIMENSION
  5
47C
330
17
100
AcDbEntity
  8
COTATIONS
100
AcDbDimension
280
0
  2
*D44
  3
Standard
 10
22.5
 20
43.3
 30
0.0
 11
26.25
 21
43.3
 31
0.0
 70
32
 71
5
  1
<>
100
AcDbAlignedDimension
 13
22.5
 23
42.5
 33
0.0
 14
30.0
 24
42.5
 34
0.0
 50
0.0
100
AcDbRotatedDimension
  0
DIMENSION
  5
48C
330
17
100
AcDbEntity
  8
COTATIONS
100
AcDbDimension
280
0
  2
*D45
  3
Standard
 10
30.0
 20
0.8
 30
0.0
 11
33.75
 21
0.8
 31
0.0
 70
32
 71
5
  1
<>
100
AcDbAlignedDimension
 13
30.0
 23
0.0
 33
0.0
 14
37.5
 24
0.0
 34
0.0
 50
0.0
100
AcDbRotatedDimension
  0
DIMENSION
  5
49C
330
17
100
AcDbEntity
  8
COTATIONS
100
AcDbDimension
280
0
  2
*D46
  3
Standard
 10
29.2
 20
0.0
 30
0.0
 11
29.2
 21
4.25
 31
0.0
 70
32
 71
5
  1
<>
100
AcDbAlignedDimension
 13
30.0
 23
0.0
 33
0.0
 14
30.0
 24
8.5
 34
0.0
 50
90.0
100
AcDbRotatedDimension
  0
DIMENSION
  5
4AC
330
17
100
AcDbEntity
  8
COTATIONS
100
AcDbDimension
280
0
  2
*D47
  3
Standard
 10
30.0
 20
9.3
 30
0.0
 11
33.75
 21
9.3
 31
0.0
 70
32
 71
5
  1
<>
100
AcDbAlignedDimension
 13
30.0
 23
8.5
 33
0.0
 14
37.5
 24
8.5
 34
0.0
 50
0.0
100
AcDbRotatedDimension
  0
DIMENSION
  5
4BC
330
17
100
AcDbEntity
  8
COTATIONS
100
AcDbDimension
280
0
  2
*D48
  3
Standard
 10
29.2
 20
8.5
 30
0.0
 11
29.2
 21
12.75
 31
0.0
 70
32
 71
5
  1
<>
100
AcDbAlignedDimension
 13
30.0
 23
8.5
 33
0.0
 14
30.0
 24
17.0
 34
0.0
 50
90.0
100
AcDbRotatedDimension
  0
DIMENSION
  5
4CC
330
17
100
AcDbEntity
  8
COTATIONS
100
AcDbDimension
280
0
  2
*D49
  3
Standard
 10
30.0
 20
17.8
 30
0.0
 11
33.75
 21
17.8
 31
0.0
 70
32
 71
5
  1
<>
100
AcDbAlignedDimension
 13
30.0
 23
17.0
 33
0.0
 14
37.5
 24
17.0
 34
0.0
 50
0.0
100
AcDbRotatedDimension
  0
DIMENSION
  5
4DC
330
17
100
AcDbEntity
  8
COTATIONS
100
AcDbDimension
280
0
  2
*D50
  3
Standard
 10
29.2
 20
17.0
 30
0.0
 11
29.2
 21
21.25
 31
0.0
 70
32
 71
5
  1
<>
100
AcDbAlignedDimension
 13
30.0
 23
17.0
 33
0.0
 14
30.0
 24
25.5
 34
0.0
 50
90.0
100
AcDbRotatedDimension
  0
DIMENSION
  5
4EC
330
17
100
AcDbEntity
  8
COTATIONS
100
AcDbDimension
280
0
  2
*D51
  3
Standard
 10
30.0
 20
26.3
 30
0.0
 11
33.75
 21
26.3
 31
0.0
 70
32
 71
5
  1
<>
100
AcDbAlignedDimension
 13
30.0
 23
25.5
 33
0.0
 14
37.5
 24
25.5
 34
0.0
 50
0.0
100
AcDbRotatedDimension
  0
DIMENSION
  5
4FC
330
17
100
AcDbEntity
  8
COTATIONS
100
AcDbDimension
280
0
  2
*D52
  3
Standard
 10
29.2
 20
25.5
 30
0.0
 11
29.2
 21
29.75
 31
0.0
 70
32
 71
5
  1
<>
100
AcDbAlignedDimension
 13
30.0
 23
25.5
 33
0.0
 14
30.0
 24
34.0
 34
0.0
 50
90.0
100
AcDbRotatedDimension
  0
DIMENSION
  5
50C
330
17
100
AcDbEntity
  8
COTATIONS
100
AcDbDimension
280
0
  2
*D53
  3
Standard
 10
30.0
 20
34.8
 30
0.0
 11
33.75
 21
34.8
 31
0.0
 70
32
 71
5
  1
<>
100
AcDbAlignedDimension
 13
30.0
 23
34.0
 33
0.0
 14
37.5
 24
34.0
 34
0.0
 50
0.0
100
AcDbRotatedDimension
  0
DIMENSION
  5
51C
330
17
100
AcDbEntity
  8
COTATIONS
100
AcDbDimension
280
0
  2
*D54
  3
Standard
 10
29.2
 20
34.0
 30
0.0
 11
29.2
 21
38.25
 31
0.0
 70
32
 71
5
  1
<>
100
AcDbAlignedDimension
 13
30.0
 23
34.0
 33
0.0
 14
30.0
 24
42.5
 34
0.0
 50
90.0
100
AcDbRotatedDimension
  0
DIMENSION
  5
52C
330
17
100
AcDbEntity
  8
COTATIONS
100
AcDbDimension
280
0
  2
*D55
  3
Standard
 10
30.0
 20
43.3
 30
0.0
 11
33.75
 21
43.3
 31
0.0
 70
32
 71
5
  1
<>
100
AcDbAlignedDimension
 13
30.0
 23
42.5
 33
0.0
 14
37.5
 24
42.5
 34
0.0
 50
0.0
100
AcDbRotatedDimension
  0
DIMENSION
  5
53C
330
17
100
AcDbEntity
  8
COTATIONS
100
AcDbDimension
280
0
  2
*D56
  3
Standard
 10
36.7
 20
0.0
 30
0.0
 11
36.7
 21
4.25
 31
0.0
 70
32
 71
5
  1
<>
100
AcDbAlignedDimension
 13
37.5
 23
0.0
 33
0.0
 14
37.5
 24
8.5
 34
0.0
 50
90.0
100
AcDbRotatedDimension
  0
DIMENSION
  5
54C
330
17
100
AcDbEntity
  8
COTATIONS
100
AcDbDimension
280
0
  2
*D57
  3
Standard
 10
36.7
 20
8.5
 30
0.0
 11
36.7
 21
12.75
 31
0.0
 70
32
 71
5
  1
<>
100
AcDbAlignedDimension
 13
37.5
 23
8.5
 33
0.0
 14
37.5
 24
17.0
 34
0.0
 50
90.0
100
AcDbRotatedDimension
  0
DIMENSION
  5
55C
330
17
100
AcDbEntity
  8
COTATIONS
100
AcDbDimension
280
0
  2
*D58
  3
Standard
 10
36.7
 20
17.0
 30
0.0
 11
36.7
 21
21.25
 31
0.0
 70
32
 71
5
  1
<>
100
AcDbAlignedDimension
 13
37.5
 23
17.0
 33
0.0
 14
37.5
 24
25.5
 34
0.0
 50
90.0
100
AcDbRotatedDimension
  0
DIMENSION
  5
56C
330
17
100
AcDbEntity
  8
COTATIONS
100
AcDbDimension
280
0
  2
*D59
  3
Standard
 10
36.7
 20
25.5
 30
0.0
 11
36.7
 21
29.75
 31
0.0
 70
32
 71
5
  1
<>
100
AcDbAlignedDimension
 13
37.5
 23
25.5
 33
0.0
 14
37.5
 24
34.0
 34
0.0
 50
90.0
100
AcDbRotatedDimension
  0
DIMENSION
  5
57C
330
17
100
AcDbEntity
  8
COTATIONS
100
AcDbDimension
280
0
  2
*D60
  3
Standard
 10
36.7
 20
34.0
 30
0.0
 11
36.7
 21
38.25
 31
0.0
 70
32
 71
5
  1
<>
100
AcDbAlignedDimension
 13
37.5
 23
34.0
 33
0.0
 14
37.5
 24
42.5
 34
0.0
 50
90.0
100
AcDbRotatedDimension
  0
ENDSEC
  0
SECTION
  2
OBJECTS
  0
DICTIONARY
  5
A
330
0
100
AcDbDictionary
281
1
  3
ACAD_COLOR
350
B
  3
ACAD_GROUP
350
C
  3
ACAD_LAYOUT
350
D
  3
ACAD_MATERIAL
350
E
  3
ACAD_MLEADERSTYLE
350
F
  3
ACAD_MLINESTYLE
350
10
  3
ACAD_PLOTSETTINGS
350
11
  3
ACAD_PLOTSTYLENAME
350
12
  3
ACAD_SCALELIST
350
14
  3
ACAD_TABLESTYLE
350
15
  3
ACAD_VISUALSTYLE
350
16
  3
EZDXF_META
350
2D
  0
DICTIONARY
  5
B
330
A
100
AcDbDictionary
281
1
  0
DICTIONARY
  5
C
330
A
100
AcDbDictionary
281
1
  0
DICTIONARY
  5
D
330
A
100
AcDbDictionary
281
1
  3
Model
350
1A
  3
Layout1
350
1E
  0
DICTIONARY
  5
E
330
A
100
AcDbDictionary
281
1
  3
ByBlock
350
1F
  3
ByLayer
350
20
  3
Global
350
21
  0
DICTIONARY
  5
F
330
A
100
AcDbDictionary
281
1
  3
Standard
350
2C
  0
DICTIONARY
  5
10
330
A
100
AcDbDictionary
281
1
  3
Standard
350
22
  0
DICTIONARY
  5
11
330
A
100
AcDbDictionary
281
1
  0
ACDBDICTIONARYWDFLT
  5
12
330
A
100
AcDbDictionary
281
1
  3
Normal
350
13
100
AcDbDictionaryWithDefault
340
13
  0
ACDBPLACEHOLDER
  5
13
330
12
  0
DICTIONARY
  5
14
330
A
100
AcDbDictionary
281
1
  0
DICTIONARY
  5
15
330
A
100
AcDbDictionary
281
1
  0
DICTIONARY
  5
16
330
A
100
AcDbDictionary
281
1
  0
LAYOUT
  5
1A
330
D
100
AcDbPlotSettings
  1

  4
A3
  6

 40
7.5
 41
20.0
 42
7.5
 43
20.0
 44
420.0
 45
297.0
 46
0.0
 47
0.0
 48
0.0
 49
0.0
140
0.0
141
0.0
142
1.0
143
1.0
 70
1024
 72
1
 73
0
 74
5
  7

 75
16
 76
0
 77
2
 78
300
147
1.0
148
0.0
149
0.0
100
AcDbLayout
  1
Model
 70
1
 71
0
 10
0.0
 20
0.0
 11
420.0
 21
297.0
 12
0.0
 22
0.0
 32
0.0
 14
1e+20
 24
1e+20
 34
1e+20
 15
-1e+20
 25
-1e+20
 35
-1e+20
146
0.0
 13
0.0
 23
0.0
 33
0.0
 16
1.0
 26
0.0
 36
0.0
 17
0.0
 27
1.0
 37
0.0
 76
1
330
17
  0
LAYOUT
  5
1E
330
D
100
AcDbPlotSettings
  1

  4
A3
  6

 40
7.5
 41
20.0
 42
7.5
 43
20.0
 44
420.0
 45
297.0
 46
0.0
 47
0.0
 48
0.0
 49
0.0
140
0.0
141
0.0
142
1.0
143
1.0
 70
0
 72
1
 73
0
 74
5
  7

 75
16
 76
0
 77
2
 78
300
147
1.0
148
0.0
149
0.0
100
AcDbLayout
  1
Layout1
 70
1
 71
1
 10
0.0
 20
0.0
 11
420.0
 21
297.0
 12
0.0
 22
0.0
 32
0.0
 14
1e+20
 24
1e+20
 34
1e+20
 15
-1e+20
 25
-1e+20
 35
-1e+20
146
0.0
 13
0.0
 23
0.0
 33
0.0
 16
1.0
 26
0.0
 36
0.0
 17
0.0
 27
1.0
 37
0.0
 76
1
330
1B
  0
MATERIAL
  5
1F
102
{ACAD_REACTORS
330
E
102
}
330
E
100
AcDbMaterial
  1
ByBlock
  2

 70
0
 40
1.0
 71
1
 41
1.0
 91
-1023410177
 42
1.0
 72
1
  3

 73
1
 74
1
 75
1
 44
0.5
 73
0
 45
1.0
 46
1.0
 77
1
  4

 78
1
 79
1
170
1
 48
1.0
171
1
  6

172
1
173
1
174
1
140
1.0
141
1.0
175
1
  7

176
1
177
1
178
1
143
1.0
179
1
  8

270
1
271
1
272
1
145
1.0
146
1.0
273
1
  9

274
1
275
1
276
1
 42
1.0
 72
1
  3

 73
1
 74
1
 75
1
 94
63
  0
MATERIAL
  5
20
102
{ACAD_REACTORS
330
E
102
}
330
E
100
AcDbMaterial
  1
ByLayer
  2

 70
0
 40
1.0
 71
1
 41
1.0
 91
-1023410177
 42
1.0
 72
1
  3

 73
1
 74
1
 75
1
 44
0.5
 73
0
 45
1.0
 46
1.0
 77
1
  4

 78
1
 79
1
170
1
 48
1.0
171
1
  6

172
1
173
1
174
1
140
1.0
141
1.0
175
1
  7

176
1
177
1
178
1
143
1.0
179
1
  8

270
1
271
1
272
1
145
1.0
146
1.0
273
1
  9

274
1
275
1
276
1
 42
1.0
 72
1
  3

 73
1
 74
1
 75
1
 94
63
  0
MATERIAL
  5
21
102
{ACAD_REACTORS
330
E
102
}
330
E
100
AcDbMaterial
  1
Global
  2

 70
0
 40
1.0
 71
1
 41
1.0
 91
-1023410177
 42
1.0
 72
1
  3

 73
1
 74
1
 75
1
 44
0.5
 73
0
 45
1.0
 46
1.0
 77
1
  4

 78
1
 79
1
170
1
 48
1.0
171
1
  6

172
1
173
1
174
1
140
1.0
141
1.0
175
1
  7

176
1
177
1
178
1
143
1.0
179
1
  8

270
1
271
1
272
1
145
1.0
146
1.0
273
1
  9

274
1
275
1
276
1
 42
1.0
 72
1
  3

 73
1
 74
1
 75
1
 94
63
  0
MLINESTYLE
  5
22
102
{ACAD_REACTORS
330
10
102
}
330
10
100
AcDbMlineStyle
  2
Standard
 70
0
  3

 62
256
 51
90.0
 52
90.0
 71
2
 49
0.5
 62
256
  6
BYLAYER
 49
-0.5
 62
256
  6
BYLAYER
  0
MLEADERSTYLE
  5
2C
102
{ACAD_REACTORS
330
F
102
}
330
F
100
AcDbMLeaderStyle
179
2
170
2
171
1
172
0
 90
2
 40
0.0
 41
0.0
173
1
 91
-1056964608
 92
-2
290
1
 42
2.0
291
1
 43
8.0
  3
Standard
 44
4.0
300

342
29
174
1
175
1
176
0
178
1
 93
-1056964608
 45
4.0
292
0
297
0
 46
4.0
 94
-1056964608
 47
1.0
 49
1.0
140
1.0
294
1
141
0.0
177
0
142
1.0
295
0
296
0
143
3.75
271
0
272
9
273
9
  0
DICTIONARY
  5
2D
330
A
100
AcDbDictionary
280
1
281
1
  3
CREATED_BY_EZDXF
350
2E
  3
WRITTEN_BY_EZDXF
350
58E
  0
DICTIONARYVAR
  5
2E
330
2D
100
DictionaryVariables
280
0
  1
1.4.4 @ 2026-09-11T21:01:25.059572+00:00
  0
DICTIONARYVAR
  5
58E
330
2D
100
DictionaryVariables
280
0
  1
1.4.4 @ 2026-09-11T21:01:25.413119+00:00
  0
ENDSEC
  0
EOF
